<?xml version="1.0" standalone="no"?>
<!DOCTYPE svg PUBLIC "-//W3C//DTD SVG 1.1//EN" "http://www.w3.org/Graphics/SVG/1.1/DTD/svg11.dtd" >
<svg xmlns="http://www.w3.org/2000/svg">
<metadata>
Created by FontPrep 20130207 at Fri Dec 11 18:19:47 2015
 By brian p harrington
Copyright (c) 2009 by Hannes von Doehren. All rights reserved.
</metadata>
<defs>
<font id="50bf5a2005a5412419d6a4b30314e68e" horiz-adv-x='1024' >
  <font-face 
    font-family="BrandonGrotesque-Regular"
    font-weight="390"
    font-stretch="normal"
    units-per-em="2048"
    panose-1="2 11 5 3 2 2 3 6 2 2"
    ascent="1434"
    descent="-614"
    x-height="819"
    cap-height="1434"
    bbox="-264.881 -765.587 2112 2112"
    underline-thickness="102"
    underline-position="-102"
    unicode-range="U+0020-FB02"
  />
<missing-glyph horiz-adv-x="1226" 
d="M502 319q0 -41 30 -69t69 -29q40 0 70 29q29 30 29 70t-29 69q-30 29 -70 29q-39 0 -69 -29t-30 -70zM537 643q0 -25 28 -25h74q31 0 31 27v53q0 57 107 124q40 26 74 75t34 109q0 98 -73 162t-193 65q-120 0 -213 -80q-22 -18 -41 -44t-3 -38l46 -45q24 -18 70 33
q45 51 120 51q74 0 108 -31t34 -75t-32 -80q-32 -37 -70 -62q-38 -24 -70 -66t-31 -94v-59zM102 61v1311q0 61 62 62h899q61 0 61 -62v-1311q0 -61 -61 -61h-899q-62 0 -62 61z" />
    <glyph glyph-name="fi" unicode="fi" horiz-adv-x="1079" 
d="M211 39v657h-125q-16 0 -28 12t-11 27v45q0 39 39 39h125v287q0 170 96 259t238 89q90 0 174 -33t127 -63q25 -18 8 -47l-33 -56q-14 -23 -53 -2q-137 74 -220 74t-139 -55t-57 -166v-287h543q15 0 27 -12t12 -27v-741q0 -15 -12 -27t-27 -12h-64q-16 0 -27 12t-11 27
v657h-441v-657q0 -15 -12 -27t-27 -12h-63q-16 0 -28 12q-11 13 -11 27z" />
    <glyph glyph-name="fl" unicode="fl" horiz-adv-x="1085" 
d="M211 39v657h-125q-16 0 -28 12t-11 27v45q0 39 39 39h125v287q0 170 95 259t237 89q77 0 143 -27t94 -51l29 -26l16 51q10 33 39 33h35q15 0 27 -12t12 -27v-1356q0 -15 -12 -27t-27 -12h-63q-16 0 -28 12q-11 12 -11 27v1149q-11 14 -29 36t-82 58t-139 35
q-76 0 -135 -51t-60 -160v-287h238q39 0 39 -39v-45q1 -16 -11 -27t-28 -12h-238v-657q0 -15 -12 -27t-27 -12h-63q-16 0 -28 12q-11 13 -11 27z" />
    <glyph glyph-name="f_f" unicode="ff" horiz-adv-x="1216" 
d="M352 819h420v287q0 74 14 125q-25 27 -83 51t-119 25q-98 1 -165 -61t-67 -195v-232zM211 39v657h-125q-16 0 -28 12t-11 27v45q0 39 39 39h125v232q0 193 106 287t261 96q155 0 272 -80q86 100 229 100t232 -84q25 -20 8 -47l-33 -53q-18 -31 -53 -2q-78 59 -152 59
q-75 0 -121 -54t-47 -167v-287h238q39 0 39 -39v-45q0 -16 -11 -27t-28 -12h-238v-657q0 -15 -12 -27t-27 -12h-63q-16 0 -28 12q-11 12 -11 27v657h-420v-657q0 -15 -12 -27t-27 -12h-63q-16 0 -28 12q-11 13 -11 27z" />
    <glyph glyph-name="f_f_i" unicode="ffi" horiz-adv-x="1640" 
d="M352 819h420v287q0 74 14 125q-25 27 -83 51t-119 25q-98 1 -165 -61t-67 -195v-232zM211 39v657h-125q-16 0 -28 12t-11 27v45q0 39 39 39h125v232q2 190 106 286q104 97 260 97t273 -80q86 100 252 100q92 0 177 -33t128 -63q25 -18 8 -47l-33 -56q-14 -23 -53 -2
q-137 74 -221 74t-139 -56t-56 -167v-285h543q14 0 26 -12t13 -27v-741q0 -15 -12 -27t-27 -12h-63q-16 0 -28 12q-11 12 -11 27v657h-441v-657q0 -15 -12 -27t-27 -12h-63q-16 0 -28 12q-11 12 -11 27v657h-420v-657q0 -15 -12 -27t-27 -12h-63q-16 0 -28 12q-11 13 -11 27
z" />
    <glyph glyph-name="f_f_l" unicode="ffl" horiz-adv-x="1646" 
d="M352 819h420v287q0 74 14 125q-25 27 -83 51t-119 25q-98 1 -165 -61t-67 -195v-232zM211 39v657h-125q-16 0 -28 12t-11 27v45q0 39 39 39h125v232q0 193 106 287t261 96q155 0 272 -80q86 100 258 100q74 0 140 -27t93 -51l29 -26l16 51q10 33 39 33h35q14 0 26 -12
t13 -27v-1356q0 -15 -12 -27t-27 -12h-63q-16 0 -28 12q-11 12 -11 27v1149q-10 14 -28 36t-82 58t-140 35q-76 0 -135 -51t-60 -160v-287h238q39 0 39 -39v-45q0 -16 -11 -27t-28 -12h-238v-657q0 -15 -12 -27t-27 -12h-63q-16 0 -28 12q-11 12 -11 27v657h-420v-657
q0 -15 -12 -27t-27 -12h-63q-16 0 -28 12q-11 13 -11 27z" />
    <glyph glyph-name="f_f_h" unicode="ffh" horiz-adv-x="2226" 
d="M352 819h420v287q0 74 14 125q-25 27 -83 51t-119 25q-98 1 -165 -61t-67 -195v-232zM211 39v657h-125q-16 0 -28 12t-11 27v45q0 39 39 39h125v232q0 193 106 287t261 96q155 0 272 -80q86 100 258 100q74 0 140 -27t93 -51l29 -26l16 51q10 33 39 33h35q14 0 26 -12
t13 -27v-664q42 42 122 76q79 33 153 33q317 0 317 -369v-432q0 -15 -11 -27t-28 -12h-65q-16 0 -28 12q-11 12 -11 27v432q0 115 -48 173t-149 58t-203 -74q-5 -4 -49 -40v-549q0 -15 -12 -27t-27 -12h-63q-16 0 -28 12q-11 12 -11 27v1149q-10 14 -28 36t-82 58t-140 35
q-76 0 -135 -51t-60 -160v-287h238q39 0 39 -39v-45q0 -16 -11 -27t-28 -12h-238v-657q0 -15 -12 -27t-27 -12h-63q-16 0 -28 12q-11 12 -11 27v657h-420v-657q0 -15 -12 -27t-27 -12h-63q-16 0 -28 12q-11 13 -11 27z" />
    <glyph glyph-name="f_k" unicode="fk" horiz-adv-x="1566" 
d="M211 39v657h-125q-16 0 -28 12t-11 27v45q0 39 39 39h125v287q0 170 95 259t237 89q77 0 143 -27t94 -51l29 -26l16 51q10 33 39 33h35q15 0 27 -12t12 -27v-887l356 287q29 25 49 24h103q25 0 28 -20t-10 -31l-379 -309l443 -408q14 -11 9 -31t-30 -20h-112
q-18 0 -41 16l-416 396v-373q0 -15 -12 -27t-27 -12h-63q-16 0 -28 12q-11 12 -11 27v1149q-11 14 -29 36t-82 58t-139 35q-76 0 -135 -51t-60 -160v-287h238q39 0 39 -39v-45q1 -16 -11 -27t-28 -12h-238v-657q0 -15 -12 -27t-27 -12h-63q-16 0 -28 12q-11 13 -11 27z" />
    <glyph glyph-name="f_j" unicode="fj" horiz-adv-x="1081" 
d="M211 39v657h-125q-16 0 -28 12t-11 27v45q0 39 39 39h125v287q0 170 96 259t238 89q90 0 174 -33t127 -63q25 -18 8 -47l-33 -56q-14 -23 -53 -2q-137 74 -220 74t-139 -55t-57 -166v-287h543q15 0 27 -12t12 -27v-1067q0 -170 -87 -259t-225 -89t-227 84q-25 20 -8 47
l33 53q18 31 53 2q78 -59 152 -59q75 0 121 54t47 167v983h-441v-657q0 -15 -12 -27t-27 -12h-63q-16 0 -28 12q-11 13 -11 27z" />
    <glyph glyph-name="f_f_j" unicode="ffj" horiz-adv-x="1642" 
d="M352 819h420v242q0 119 14 170q-25 27 -83 51t-119 25q-98 1 -165 -61t-67 -195v-232zM211 39v657h-125q-16 0 -28 12t-11 27v45q0 39 39 39h125v232q0 190 105 286q105 97 261 97t273 -80q86 100 252 100q92 0 177 -33t128 -63q25 -18 8 -47l-33 -56q-14 -23 -53 -2
q-137 74 -234 74t-139 -71t-43 -224v-213h543q14 0 26 -12t13 -27v-1067q0 -170 -87 -259t-225 -89t-227 84q-25 20 -8 47l33 53q18 31 53 2q78 -59 152 -59t121 54t47 167v983h-441v-657q0 -15 -12 -27t-27 -12h-63q-16 0 -28 12q-11 12 -11 27v657h-420v-657
q0 -15 -12 -27t-27 -12h-63q-16 0 -28 12q-11 13 -11 27z" />
    <glyph glyph-name="f_b" unicode="fb" horiz-adv-x="1636" 
d="M1407 411q0 126 -73 209q-73 82 -185 82t-184 -36l-25 -13v-409q8 -14 24 -37t75 -61q58 -38 124 -37q109 0 177 88t67 214zM211 39v657h-125q-16 0 -28 12t-11 27v45q0 39 39 39h125v287q0 170 95 259t237 89q77 0 143 -27t94 -51l29 -26l16 51q10 33 39 33h35
q15 0 27 -12t12 -27v-609q84 53 219 54q174 0 284 -123q109 -123 109 -303t-108 -308q-109 -127 -264 -126q-68 0 -131 26t-93 55l-28 27q-2 -6 -5 -21q-13 -67 -42 -67h-43q-16 0 -28 12q-11 12 -11 27v1149q-11 14 -29 36t-82 58t-139 35q-76 0 -135 -51t-60 -160v-287
h238q39 0 39 -39v-45q1 -16 -11 -27t-28 -12h-238v-657q0 -15 -12 -27t-27 -12h-63q-16 0 -28 12q-11 13 -11 27z" />
    <glyph glyph-name="f_f_k" unicode="ffk" horiz-adv-x="2127" 
d="M352 819h420v287q0 74 14 125q-25 27 -83 51t-119 25q-98 1 -165 -61t-67 -195v-232zM211 39v657h-125q-16 0 -28 12t-11 27v45q0 39 39 39h125v232q0 193 106 287t261 96q155 0 272 -80q86 100 258 100q74 0 140 -27t93 -51l29 -26l16 51q10 33 39 33h35q14 0 26 -12
t13 -27v-887l356 287q29 25 50 24h102q25 0 28 -20t-10 -31l-378 -309l442 -408q14 -11 9 -31t-30 -20h-112q-18 0 -41 16l-416 396v-373q0 -15 -12 -27t-27 -12h-63q-16 0 -28 12q-11 12 -11 27v1149q-10 14 -28 36t-82 58t-140 35q-76 0 -135 -51t-60 -160v-287h238
q39 0 39 -39v-45q0 -16 -11 -27t-28 -12h-238v-657q0 -15 -12 -27t-27 -12h-63q-16 0 -28 12q-11 12 -11 27v657h-420v-657q0 -15 -12 -27t-27 -12h-63q-16 0 -28 12q-11 13 -11 27z" />
    <glyph glyph-name="f_h" unicode="fh" horiz-adv-x="1667" 
d="M211 39v657h-125q-16 0 -28 12t-11 27v45q0 39 39 39h125v287q0 170 95 259t237 89q77 0 143 -27t94 -51l29 -26l16 51q10 33 39 33h35q15 0 27 -12t12 -27v-664q42 42 122 76q79 33 152 33q172 0 245 -109t73 -332v-360q0 -15 -11 -27t-28 -12h-66q-16 0 -27 12t-12 27
v432q0 115 -48 173t-150 58t-201 -74q-5 -4 -49 -40v-549q0 -15 -12 -27t-27 -12h-63q-16 0 -28 12q-11 12 -11 27v1149q-11 14 -29 36t-82 58t-139 35q-76 0 -135 -51t-60 -160v-287h238q39 0 39 -39v-45q1 -16 -11 -27t-28 -12h-238v-657q0 -15 -12 -27t-27 -12h-63
q-16 0 -28 12q-11 13 -11 27z" />
    <glyph glyph-name="f_f_b" unicode="ffb" horiz-adv-x="2197" 
d="M1501 244q9 -14 25 -37t74 -61t124 -37q109 0 177 88q67 88 67 214t-73 209q-73 82 -183 82t-186 -36l-25 -13v-409zM352 819h420v287q0 74 14 125q-25 27 -83 51t-119 25q-98 1 -165 -61t-67 -195v-232zM211 39v657h-125q-16 0 -28 12t-11 27v45q0 39 39 39h125v232
q0 193 106 287t261 96q155 0 272 -80q86 100 258 100q74 0 140 -27t93 -51l29 -26l16 51q10 33 39 33h35q14 0 26 -12t13 -27v-609q84 53 219 54q174 0 284 -123t110 -303t-109 -308q-109 -127 -264 -126q-68 0 -131 26t-92 55l-29 27q-2 -6 -5 -21l-5 -25q-9 -42 -37 -42
h-43q-16 0 -28 12q-11 12 -11 27v1149q-10 14 -28 36t-82 58t-140 35q-76 0 -135 -51t-60 -160v-287h238q39 0 39 -39v-45q0 -16 -11 -27t-28 -12h-238v-657q0 -15 -12 -27t-27 -12h-63q-16 0 -28 12q-11 12 -11 27v657h-420v-657q0 -15 -12 -27t-27 -12h-63q-16 0 -28 12
q-11 13 -11 27z" />
    <glyph glyph-name=".notdef" horiz-adv-x="1226" 
d="M502 319q0 -41 30 -69t69 -29q40 0 70 29q29 30 29 70t-29 69q-30 29 -70 29q-39 0 -69 -29t-30 -70zM537 643q0 -25 28 -25h74q31 0 31 27v53q0 57 107 124q40 26 74 75t34 109q0 98 -73 162t-193 65q-120 0 -213 -80q-22 -18 -41 -44t-3 -38l46 -45q24 -18 70 33
q45 51 120 51q74 0 108 -31t34 -75t-32 -80q-32 -37 -70 -62q-38 -24 -70 -66t-31 -94v-59zM102 61v1311q0 61 62 62h899q61 0 61 -62v-1311q0 -61 -61 -61h-899q-62 0 -62 61z" />
    <glyph glyph-name=".null" horiz-adv-x="0" 
 />
    <glyph glyph-name="nonmarkingreturn" horiz-adv-x="681" 
 />
    <glyph glyph-name="space" unicode=" " horiz-adv-x="454" 
 />
    <glyph glyph-name="exclam" unicode="!" horiz-adv-x="610" 
d="M188 97q0 48 35 82t83 34t82 -34t34 -82t-34 -83q-34 -34 -82 -34t-83 34t-35 83zM293 557q-14 0 -26 10q-11 10 -13 23l-39 571v234q0 14 11 26t28 13h102q16 0 28 -12t11 -27v-230l-39 -575q-2 -12 -13 -22t-26 -11h-24z" />
    <glyph glyph-name="quotedbl" unicode="&#x22;" horiz-adv-x="628" 
d="M139 1026q-16 0 -27 11t-12 28v330q0 14 12 26t27 13h70q19 0 31 -16t6 -36l-58 -325q-8 -31 -36 -31h-13zM449 1026q-14 0 -27 11q-12 11 -12 28v330q0 14 12 26t27 13h69q20 0 32 -16t5 -36l-57 -325q-8 -31 -37 -31h-12z" />
    <glyph glyph-name="numbersign" unicode="#" horiz-adv-x="1110" 
d="M373 492h313l47 350h-309zM125 399q-15 -1 -27 11t-12 28v15q0 39 39 39h158l49 350h-148q-16 0 -27 11t-12 28v14q-1 15 11 27t28 12h160l66 467q2 12 12 22t24 11h15q16 0 27 -14t10 -31l-62 -455h309l64 467q2 12 13 22t26 11h12q18 0 30 -14t9 -31l-61 -455h143
q15 0 27 -11t12 -28v-14q0 -39 -35 -39h-160l-49 -350h146q16 0 27 -12t12 -27v-15q-1 -16 -11 -27t-24 -12h-164l-53 -366q-4 -33 -39 -33h-13q-18 0 -29 13t-10 32l54 354h-314l-51 -366q-4 -33 -39 -33h-12q-20 0 -32 13q-11 14 -7 32l51 354h-143z" />
    <glyph glyph-name="dollar" unicode="$" horiz-adv-x="1073" 
d="M588 119q102 8 172 74q70 65 70 149t-59 146q-58 62 -183 124v-493zM500 819v496q-119 -12 -178 -81q-60 -68 -60 -150q0 -158 238 -265zM111 1100q1 62 37 138t128 140t224 74v66q0 16 11 27t28 11h14q17 0 27 -11t10 -27v-66q80 -6 156 -32t114 -48l37 -22
q38 -16 12 -70l-12 -18q-8 -12 -15 -25t-13 -15q-7 -3 -13 -8q-12 -9 -52 14q-120 69 -214 85l-2 -531q194 -82 301 -177q106 -95 105 -251t-120 -259t-286 -113v-213q0 -37 -44 -37t-44 37v213q-96 8 -190 48t-128 65q-36 25 -68 53t-8 67q6 5 18 23q36 51 61 47
q11 -3 27 -17t43 -38t101 -62t144 -47v532q-178 72 -273 153q-94 81 -112 210q-4 22 -4 84z" />
    <glyph glyph-name="percent" unicode="%" horiz-adv-x="1382" 
d="M1151 252q0 66 -46 112t-112 46q-65 0 -111 -46t-46 -112t46 -112t111 -46t112 46q46 46 46 112zM719 254q0 115 81 196q82 80 196 80t195 -80t81 -196q0 -115 -81 -196t-196 -81t-195 81t-81 196zM346 1020q66 0 112 46t46 112t-46 111q-46 46 -112 46t-112 -46
q-46 -45 -46 -111t46 -112t112 -46zM1032 1434q23 0 34 -18t1 -38l-707 -1358q-10 -20 -34 -20h-29q-23 0 -34 18t-1 37l703 1358q12 20 34 21h33zM348 903q-116 0 -196 81t-80 196q0 116 81 196t195 80t196 -81q81 -81 81 -195t-81 -196q-81 -81 -196 -81z" />
    <glyph glyph-name="ampersand" unicode="&#x26;" horiz-adv-x="1363" 
d="M311 354q0 -106 75 -177t183 -71q207 0 351 175l-379 397q-230 -140 -230 -324zM610 1333q-98 0 -155 -61t-58 -154q-2 -61 31 -114t100 -119l45 -45q104 65 155 108q99 85 97 187q0 80 -58 139q-59 59 -157 59zM168 356q0 242 285 410v4l-50 53q-147 156 -145 293
q2 138 96 238t262 100t260 -91q93 -91 93 -224q0 -205 -303 -394l338 -337q82 168 81 364q1 31 11 39t37 8h49q29 0 34 -15q5 -14 5 -16v-16q0 -246 -121 -461l196 -196q23 -25 25 -40t-27 -55l-24 -22q-43 -39 -86 6l-174 180q-182 -205 -447 -204q-186 0 -291 108
q-104 108 -104 268z" />
    <glyph glyph-name="quotesingle" unicode="'" horiz-adv-x="319" 
d="M139 1026q-16 0 -27 11t-12 28v330q0 14 12 26t27 13h70q19 0 31 -16t6 -36l-58 -325q-8 -31 -36 -31h-13z" />
    <glyph glyph-name="parenleft" unicode="(" horiz-adv-x="704" 
d="M119 645q0 594 308 758q81 43 175 47q35 4 37 -20l4 -56q6 -31 -20 -35q-189 -37 -275 -211t-86 -483t86 -483t275 -211q27 -4 20 -35l-4 -55q-2 -25 -37 -21q-190 8 -328 179q-72 89 -113 249q-42 160 -42 377z" />
    <glyph glyph-name="parenright" unicode=")" horiz-adv-x="704" 
d="M442 645q0 309 -86 483t-274 211q-27 4 -21 35l5 56q2 25 36 20q192 -8 328 -179q72 -89 114 -249t42 -377q0 -592 -308 -758q-81 -43 -176 -47q-35 -4 -36 21l-5 55q-6 31 21 35q188 37 274 211t86 483z" />
    <glyph glyph-name="asterisk" unicode="*" horiz-adv-x="671" 
d="M322 850q-14 0 -27 11q-12 11 -12 28l4 168l-137 -99q-12 -8 -28 -5t-26 18l-14 20q-20 31 10 56l154 96l-158 96q-29 23 -10 53q4 4 12 19t26 19t29 -3l142 -100l-4 170q0 14 11 25t28 12h26q16 0 28 -12t11 -25l-4 -168l137 102q31 16 53 -12l15 -23q18 -35 -10 -53
l-158 -100l160 -101q33 -20 12 -53l-14 -22q-20 -31 -56 -13l-139 101l4 -166q0 -15 -11 -27t-28 -12h-26z" />
    <glyph glyph-name="plus" unicode="+" horiz-adv-x="1026" 
d="M444 322v321h-321q-16 0 -28 12q-11 12 -11 27v57q0 15 11 27t28 12h321v324q0 14 12 25t27 12h58q16 1 27 -11t12 -26v-324h323q13 0 25 -11t12 -28v-57q0 -16 -11 -28t-26 -11h-323v-321q0 -14 -12 -26t-27 -11h-58q-15 -1 -27 11t-12 26z" />
    <glyph glyph-name="comma" unicode="," horiz-adv-x="477" 
d="M113 97q0 48 34 82q35 34 82 34q135 0 136 -184q-1 -115 -55 -217t-117 -162q-29 -25 -50 -4l-28 28q-20 20 12 50q127 115 127 258q-8 -2 -40 -2t-67 34q-34 35 -34 83z" />
    <glyph glyph-name="hyphen" unicode="-" horiz-adv-x="845" 
d="M209 451q-16 0 -28 10q-11 10 -11 26v39q0 39 39 39h428q39 0 39 -39v-39q0 -16 -11 -26t-28 -10h-428z" />
    <glyph glyph-name="period" unicode="." horiz-adv-x="462" 
d="M115 97q0 48 35 82q34 34 82 34t82 -34t34 -82t-34 -83q-34 -34 -82 -34t-82 34t-35 83z" />
    <glyph glyph-name="slash" unicode="/" horiz-adv-x="655" 
d="M520 1434h45q23 0 33 -16t4 -36l-399 -1355q-8 -27 -37 -27h-47q-20 0 -32 15q-11 16 -5 36l401 1356q8 27 37 27z" />
    <glyph glyph-name="zero" unicode="0" horiz-adv-x="1294" 
d="M647 113q170 -1 261 151t91 432t-92 432t-260 152t-260 -153t-92 -433t91 -430q91 -151 261 -151zM647 -20q-237 0 -367 189t-130 527t130 528t368 189q238 0 367 -189q130 -190 130 -528t-130 -527t-368 -189z" />
    <glyph glyph-name="one" unicode="1" horiz-adv-x="667" 
d="M305 39v1100l-147 -115q-27 -20 -47 2l-39 43q-18 23 4 45l286 279h56q14 1 25 -11t12 -28v-1315q1 -15 -11 -27t-26 -12h-74q-16 0 -28 11q-11 12 -11 28z" />
    <glyph glyph-name="two" unicode="2" horiz-adv-x="1062" 
d="M86 39v61q84 90 251 272t251 271q207 225 207 371q0 102 -71 181t-217 79t-290 -154q-29 -27 -55 0l-41 39q-25 29 -2 53q96 128 255 180q67 22 134 21q209 0 326 -115t116 -280q0 -123 -63 -224t-161 -206t-228 -245t-197 -210h602q15 0 27 -11t12 -28v-55
q0 -15 -12 -27t-27 -12h-778q-16 0 -28 11q-11 12 -11 28z" />
    <glyph glyph-name="three" unicode="3" horiz-adv-x="1089" 
d="M514 106q123 0 209 70t86 186t-91 192q-91 77 -272 77h-114q-39 0 -39 45v49q0 45 43 45h113q157 0 241 71t84 183t-78 184q-78 70 -190 70q-152 0 -268 -133q-25 -29 -54 -4l-49 39q-29 25 0 53q11 15 58 55q149 125 325 125t293 -102t117 -273q0 -110 -66 -198
t-145 -125v-6q92 -39 169 -126t77 -206q0 -172 -124 -285t-331 -112q-252 0 -412 182q-25 29 2 49l56 47q31 23 52 -5q21 -27 51 -53q29 -26 103 -60t154 -34z" />
    <glyph glyph-name="four" unicode="4" horiz-adv-x="1200" 
d="M782 442v713l-577 -713h577zM1087 440q39 0 39 -37v-45q0 -16 -11 -27t-28 -12h-165v-280q0 -15 -12 -27t-27 -12h-70q-14 0 -27 12q-12 12 -12 27v276h-702q-16 -1 -28 11t-11 28v76l776 973q12 12 31 12h41q16 0 27 -11t12 -28l2 -936h165z" />
    <glyph glyph-name="five" unicode="5" horiz-adv-x="1091" 
d="M856 445q0 128 -83 212t-238 84h-312q-29 0 -46 23t-17 49v541q0 16 11 27t28 12h618q15 1 27 -11t12 -28v-60q0 -16 -11 -27t-28 -12h-520v-376h238q229 0 351 -114q122 -115 122 -313t-136 -335t-340 -137q-254 0 -395 170q-35 39 -4 69q7 5 23 21l24 24q31 27 50 -1
q20 -27 48 -55t100 -63t157 -34q141 0 231 103t90 231z" />
    <glyph glyph-name="six" unicode="6" horiz-adv-x="1112" 
d="M600 115q114 0 204 96q89 96 89 229q0 132 -90 226t-219 94q-84 0 -165 -34t-120 -67l-39 -32q-34 -148 45 -333q33 -77 107 -128t188 -51zM109 563q0 156 51 293t125 228t198 187t299 169q31 12 45 -21l23 -49q18 -43 -46 -63t-165 -89t-163 -126q-62 -58 -116 -136
t-73 -155q45 32 139 62t172 30q180 0 310 -123q130 -122 130 -318t-134 -334t-318 -138q-238 0 -358 161q-119 162 -119 422z" />
    <glyph glyph-name="seven" unicode="7" horiz-adv-x="970" 
d="M186 39v22l572 1194h-670q-14 -1 -26 11t-13 28v60q0 14 12 26t27 13h823q15 -1 27 -13t12 -26v-15l-598 -1286q-25 -53 -67 -53h-60q-15 0 -27 12t-12 27z" />
    <glyph glyph-name="eight" unicode="8" horiz-adv-x="1173" 
d="M281 352q0 -108 89 -178q89 -72 219 -72t218 70t88 179t-84 191t-223 95q-141 -13 -224 -95t-83 -190zM315 1038q0 -106 68 -172t205 -78q135 14 204 79q68 65 68 173t-79 179t-197 71t-193 -72q-76 -74 -76 -180zM127 375q0 119 79 211t169 131v6q-82 37 -147 122
t-64 193q0 168 119 272t304 103q185 0 305 -103t120 -272q0 -110 -65 -194t-146 -121v-6q90 -39 169 -131t79 -211q0 -172 -126 -284q-126 -111 -336 -111t-335 112t-125 283z" />
    <glyph glyph-name="nine" unicode="9" horiz-adv-x="1112" 
d="M528 645q84 0 165 34t120 66l39 33q34 148 -45 333q-33 77 -107 128t-188 51t-204 -96q-89 -96 -89 -229t90 -227t219 -93zM514 512q-180 0 -310 123t-130 319t134 333q134 138 318 138q238 1 358 -161t120 -422q0 -156 -52 -293t-125 -228q-74 -91 -198 -187t-299 -169
q-31 -12 -45 21l-23 49q-18 43 46 63t165 89t163 126t116 135t73 156q-45 -32 -139 -62t-172 -30z" />
    <glyph glyph-name="colon" unicode=":" horiz-adv-x="524" 
d="M145 97q0 48 35 82t83 34t82 -34t34 -82t-34 -83q-34 -34 -82 -34t-83 34t-35 83zM263 606q-48 0 -83 35t-35 83t35 82t83 34t82 -34t34 -82t-34 -83t-82 -35z" />
    <glyph glyph-name="semicolon" unicode=";" horiz-adv-x="530" 
d="M245 -20q-32 0 -67 34t-35 83q0 48 35 82t82 34q135 0 135 -184q0 -115 -54 -217t-118 -162q-29 -25 -49 -4l-29 28q-20 20 13 50q127 115 127 258q-8 -2 -40 -2zM261 606q-48 0 -83 35t-35 83t35 82t83 34t82 -34t34 -82t-34 -83t-82 -35z" />
    <glyph glyph-name="less" unicode="&#x3c;" horiz-adv-x="899" 
d="M51 475q0 23 21 35l696 434q20 12 38 2t19 -35v-73q0 -25 -22 -39l-535 -328l535 -315q23 -14 22 -39v-74q0 -25 -18 -35t-39 2l-696 420q-20 12 -21 35v10z" />
    <glyph glyph-name="equal" unicode="=" horiz-adv-x="1044" 
d="M215 287q-16 0 -28 11q-11 11 -11 28v63q0 15 11 27t28 12h612q15 0 27 -11t12 -28v-63q0 -16 -11 -28t-28 -11h-612zM215 719q-16 0 -28 11q-11 11 -11 28v61q0 15 11 27t28 12h612q15 0 27 -11t12 -28v-61q0 -16 -11 -28t-28 -11h-612z" />
    <glyph glyph-name="greater" unicode="&#x3e;" horiz-adv-x="899" 
d="M74 43v74q0 27 22 39l535 315l-535 328q-23 14 -22 39v73q0 25 18 35t39 -2l696 -434q20 -12 21 -35v-10q0 -23 -21 -35l-696 -420q-20 -12 -39 -2q-18 10 -18 35z" />
    <glyph glyph-name="question" unicode="?" horiz-adv-x="944" 
d="M319 97q0 48 35 82t83 34t82 -34t34 -82t-34 -83q-34 -34 -82 -34t-83 34t-35 83zM412 557q-16 0 -28 11q-11 11 -11 28v86q0 126 108 208q45 34 90 66q109 76 109 191q0 76 -53 128t-154 52t-169 -45q-16 -12 -28 -18t-27 -20t-21 -20q-6 -5 -19 -20l-14 -16
q-27 -27 -54 -2l-39 35q-32 25 15 72q55 60 105 92q111 69 263 69t250 -86q99 -86 99 -224t-115 -234q-47 -38 -94 -70q-115 -80 -115 -158v-84q0 -41 -43 -41h-55z" />
    <glyph glyph-name="at" unicode="@" horiz-adv-x="2009" 
d="M729 413q0 -140 70 -219t167 -79t150 55t74 137v291q-8 12 -24 32t-71 51q-56 32 -124 32q-106 0 -174 -80t-68 -220zM88 457q0 440 257 719q257 278 671 278t646 -242t232 -622q0 -224 -92 -406q-47 -92 -134 -148q-86 -56 -194 -56t-166 45t-77 114h-17
q-34 -71 -102 -115t-156 -44q-158 0 -258 118t-100 317q0 197 101 311t264 114q74 0 132 -27t81 -55l22 -27q2 9 5 23t5 20t5 16q9 30 55 29h20q14 0 26 -12t13 -27v-436q0 -142 37 -196t111 -54q123 0 207 133t85 363q1 330 -193 540t-556 209q-362 1 -582 -237
q-219 -238 -219 -645q1 -281 147 -487t394 -312q24 -10 26 -20t-8 -31l-22 -56q-12 -29 -41 -16q-285 119 -455 359t-170 563z" />
    <glyph glyph-name="A" unicode="A" horiz-adv-x="1357" 
d="M985 487l-299 672h-16l-299 -672h614zM47 0q-23 0 -34 16t-1 37l623 1379q12 23 35 22h20q23 0 35 -22l618 -1379q10 -21 -1 -37t-33 -16h-82q-27 0 -35 23l-152 337h-727l-149 -337q-8 -23 -35 -23h-82z" />
    <glyph glyph-name="B" unicode="B" horiz-adv-x="1280" 
d="M358 137h373q111 0 185 75q74 74 73 184q0 110 -86 182t-207 71h-338v-512zM362 791h334q115 1 181 73q65 72 65 184t-64 178t-182 66h-334v-501zM209 39v1356q0 16 11 27t28 12h448q186 0 303 -106t117 -271q0 -109 -59 -195t-142 -133q99 -41 173 -124t73 -210
q0 -171 -125 -283t-321 -112h-467q-16 0 -28 11q-11 12 -11 28z" />
    <glyph glyph-name="C" unicode="C" horiz-adv-x="1447" 
d="M104 715q0 307 216 523t524 216q272 0 495 -190q29 -31 2 -58l-55 -55q-23 -29 -53 2q-179 154 -405 154t-392 -174t-166 -415t166 -415t406 -174q153 0 278 75q45 28 113 79q27 20 49 6l61 -56q11 -10 11 -26t-13 -29q-205 -198 -505 -198t-516 214t-216 521z" />
    <glyph glyph-name="D" unicode="D" horiz-adv-x="1529" 
d="M365 141h307q252 0 416 163t163 415q0 252 -164 414t-415 161h-307v-1153zM209 39v1356q0 16 11 27t26 12h459q297 0 507 -210t211 -506q0 -296 -211 -507t-507 -211h-459q-14 0 -26 11q-11 12 -11 28z" />
    <glyph glyph-name="E" unicode="E" horiz-adv-x="1212" 
d="M209 39v1356q0 16 11 27t28 12h807q16 0 27 -12t12 -27v-60q0 -16 -12 -27t-27 -12h-688v-499h587q16 1 28 -11t11 -28v-60q0 -16 -11 -27t-28 -12h-587v-522h688q16 0 27 -11t12 -28v-59q0 -15 -12 -27t-27 -12h-807q-16 0 -28 11q-11 12 -11 28z" />
    <glyph glyph-name="F" unicode="F" horiz-adv-x="1165" 
d="M209 39v1356q0 16 11 27t28 12h807q16 0 27 -12t12 -27v-60q0 -16 -12 -27t-27 -12h-688v-561h587q16 0 28 -11t11 -28v-59q0 -15 -11 -27t-28 -12h-587v-559q1 -15 -11 -27t-28 -12h-80q-16 0 -28 11q-11 12 -11 28z" />
    <glyph glyph-name="G" unicode="G" horiz-adv-x="1499" 
d="M975 504q-39 0 -39 37v75q0 39 39 39h354q13 0 25 -11t12 -28v-469q0 -20 -16 -32q-23 -14 -66 -37t-176 -61t-264 -37q-308 0 -524 214t-216 521t216 523t524 216q272 0 495 -190q29 -31 2 -58l-57 -57q-23 -25 -53 2q-82 72 -185 116t-204 44q-240 0 -405 -173
t-165 -414t165 -417t405 -176q100 0 192 22t133 44l43 20v287h-235z" />
    <glyph glyph-name="H" unicode="H" horiz-adv-x="1564" 
d="M209 39v1356q0 14 12 26t27 13h80q16 0 27 -12t12 -27v-598h831v598q0 16 11 27t28 12h80q14 0 26 -12t13 -27v-1356q0 -15 -12 -27t-27 -12h-80q-16 0 -28 11q-11 11 -11 28v620h-831v-620q1 -15 -11 -27t-28 -12h-80q-14 0 -27 12q-12 13 -12 27z" />
    <glyph glyph-name="I" unicode="I" horiz-adv-x="577" 
d="M209 39v1356q0 14 12 26t27 13h82q14 0 26 -12t13 -27v-1356q-1 -15 -13 -27t-26 -12h-82q-14 0 -27 12q-12 13 -12 27z" />
    <glyph glyph-name="J" unicode="J" horiz-adv-x="829" 
d="M524 1395q0 16 12 27t27 12h80q15 0 27 -12t12 -27v-967q0 -209 -114 -329t-300 -120t-309 152q-16 27 4 51l43 49q35 33 70 -6q96 -109 198 -109t177 79q74 78 73 229v971z" />
    <glyph glyph-name="K" unicode="K" horiz-adv-x="1265" 
d="M209 49v1335q0 20 14 34t35 16h59q21 0 35 -14t15 -36v-579l639 608q16 20 38 21h101q29 0 38 -25t-14 -47l-647 -604l678 -695q14 -11 5 -37t-40 -26h-104q-27 0 -37 14l-657 686v-651q-1 -21 -15 -35t-35 -14h-59q-20 0 -35 14q-14 15 -14 35z" />
    <glyph glyph-name="L" unicode="L" horiz-adv-x="1005" 
d="M209 39v1356q0 16 11 27t28 12h80q16 0 27 -12t12 -27v-1258h589q16 0 28 -11t11 -28v-59q0 -15 -11 -27t-28 -12h-708q-16 0 -28 11q-11 12 -11 28z" />
    <glyph glyph-name="M" unicode="M" horiz-adv-x="1765" 
d="M408 1454h32q27 0 35 -22l406 -1129h10l399 1129q8 23 35 22h33q31 0 37 -29l264 -1376q10 -49 -37 -49h-82q-29 0 -37 29l-182 1054h-8l-377 -1081q-8 -23 -35 -22h-37q-27 0 -35 22l-380 1081h-9l-178 -1054q-2 -9 -13 -19t-24 -10h-82q-47 0 -37 49l265 1376
q6 29 37 29z" />
    <glyph glyph-name="N" unicode="N" horiz-adv-x="1585" 
d="M209 39v1378q0 13 11 25t28 12h51l924 -1151h4v1092q0 16 11 27t28 12h71q15 0 27 -12t12 -27v-1379q0 -14 -11 -25t-28 -11h-37l-940 1173h-2v-1114q0 -15 -11 -27t-28 -12h-71q-14 0 -27 12q-12 13 -12 27z" />
    <glyph glyph-name="O" unicode="O" horiz-adv-x="1681" 
d="M248 715q0 -244 174 -418t418 -174t418 174t176 418q0 244 -176 420t-418 176q-244 0 -418 -176t-174 -420zM104 715q0 307 214 523t522 216t522 -216q215 -216 215 -523t-215 -521t-522 -214t-522 214q-214 214 -214 521z" />
    <glyph glyph-name="P" unicode="P" horiz-adv-x="1220" 
d="M365 672h325q127 0 219 91t92 218t-92 212t-219 85h-325v-606zM209 39v1356q0 16 11 27t28 12h452q188 0 324 -134t135 -321q0 -187 -134 -323t-323 -136h-337v-481q-1 -15 -13 -27t-26 -12h-78q-16 0 -28 11q-11 12 -11 28z" />
    <glyph glyph-name="Q" unicode="Q" horiz-adv-x="1683" 
d="M248 715q0 -244 174 -418t418 -174t418 174t176 418q0 244 -176 420t-418 176q-244 0 -418 -176t-174 -420zM104 715q0 307 214 523t522 216t522 -216q215 -216 215 -523q0 -223 -120 -405t-316 -269l239 -385q14 -20 3 -40t-35 -22h-103q-20 0 -33 21l-223 377
q-68 -12 -149 -12q-307 0 -522 214q-214 214 -214 521z" />
    <glyph glyph-name="R" unicode="R" horiz-adv-x="1353" 
d="M371 696h397q119 0 207 87t88 208t-88 207t-207 86h-397v-588zM209 39v1356q0 16 11 27t28 12h530q184 0 316 -127t131 -310q0 -139 -83 -251t-220 -166l280 -521q12 -19 1 -39t-36 -20h-104q-23 0 -33 18l-272 543h-391v-522q1 -15 -11 -27t-28 -12h-80q-16 0 -28 11
q-11 12 -11 28z" />
    <glyph glyph-name="S" unicode="S" horiz-adv-x="1091" 
d="M840 345q0 97 -85 170t-274 151q-188 82 -274 171t-86 253q0 118 95 233q48 57 137 94t191 37t190 -27q87 -27 130 -51l43 -26q37 -16 13 -70q-19 -28 -25 -39q-29 -43 -72 -18q-166 94 -268 94q-145 0 -214 -72q-69 -71 -69 -161t69 -157t208 -124q235 -97 345 -193
t110 -258t-130 -267t-313 -105q-109 0 -214 40t-147 68q-42 30 -75 59t-8 68q18 18 30 39q37 49 72 18q182 -156 346 -155q121 -1 198 65t77 163z" />
    <glyph glyph-name="T" unicode="T" horiz-adv-x="978" 
d="M412 39v1257h-357q-16 0 -27 12t-12 27v60q0 16 12 27t27 12h869q16 0 27 -12t12 -27v-60q1 -16 -11 -27t-28 -12h-357v-1257q0 -15 -11 -27t-28 -12h-77q-16 0 -28 12q-11 13 -11 27z" />
    <glyph glyph-name="U" unicode="U" horiz-adv-x="1466" 
d="M190 528v867q0 14 12 26t27 13h78q15 0 27 -12t12 -27v-854q0 -180 104 -298t282 -118q177 0 283 117q105 117 105 295v858q0 16 12 27t27 12h78q15 0 27 -12t12 -27v-867q0 -236 -153 -392t-391 -156t-390 156t-152 392z" />
    <glyph glyph-name="V" unicode="V" horiz-adv-x="1359" 
d="M131 1434q27 0 35 -23l510 -1147h8l510 1147q8 23 35 23h82q23 0 34 -16t1 -38l-623 -1378q-10 -23 -35 -22h-20q-25 -1 -35 22l-619 1378q-10 20 1 36t34 18h82z" />
    <glyph glyph-name="W" unicode="W" horiz-adv-x="1847" 
d="M199 1434q29 0 37 -29l284 -1061h8l342 1088q8 23 35 22h37q27 0 35 -22l348 -1088h8l279 1061q8 29 37 29h86q23 0 33 -14t4 -36l-388 -1376q-8 -29 -36 -28h-33q-25 0 -35 22l-354 1108h-11l-348 -1108q-10 -23 -35 -22h-32q-29 -1 -37 28l-387 1376q-6 20 4 34t33 16
h86z" />
    <glyph glyph-name="X" unicode="X" horiz-adv-x="1193" 
d="M244 1434q25 0 35 -19l315 -543h2l319 543q10 18 35 19h111q27 0 37 -18t-2 -40l-400 -641l414 -678q12 -21 2 -39t-37 -18h-94q-27 0 -35 18l-350 580h-2l-346 -580q-10 -18 -35 -18h-94q-27 0 -38 18t1 39l416 678l-400 641q-12 20 -2 38t37 20h111z" />
    <glyph glyph-name="Y" unicode="Y" horiz-adv-x="1157" 
d="M498 39v651l-494 684q-12 20 -2 40t35 20h96q18 0 33 -19l414 -571l413 571q14 18 33 19h96q25 0 35 -20t-2 -40l-500 -682v-653q0 -15 -12 -27t-27 -12h-79q-16 0 -28 11q-11 12 -11 28z" />
    <glyph glyph-name="Z" unicode="Z" horiz-adv-x="1093" 
d="M61 39v37l744 1208v6h-645q-16 0 -28 12t-11 27v66q0 14 11 26t28 13h829q15 0 27 -12t12 -27v-27l-756 -1223v-2h676q16 0 28 -11t11 -28v-65q0 -15 -11 -27t-28 -12h-848q-14 0 -26 12t-13 27z" />
    <glyph glyph-name="bracketleft" unicode="[" horiz-adv-x="669" 
d="M299 -485h281q16 1 27 -11t11 -26v-53q0 -15 -12 -27t-26 -12h-381q-14 0 -27 12q-12 12 -12 27v1970q0 14 12 26t27 13h381q14 0 26 -12t12 -27v-52q0 -16 -11 -27t-27 -11h-281v-1790z" />
    <glyph glyph-name="backslash" unicode="\" horiz-adv-x="675" 
d="M156 1434q29 0 37 -27l401 -1356q6 -19 -5 -35t-32 -16h-68q-28 0 -36 27l-400 1355q-6 20 4 36t33 16h66z" />
    <glyph glyph-name="bracketright" unicode="]" horiz-adv-x="669" 
d="M90 -485h281v1790h-281q-16 0 -28 11q-11 11 -11 27v52q0 14 11 26t28 13h381q15 0 27 -12t12 -27v-1970q0 -15 -11 -27t-28 -12h-381q-16 0 -28 12q-11 12 -11 27v53q-1 14 11 26t28 11z" />
    <glyph glyph-name="asciicircum" unicode="^" horiz-adv-x="1073" 
d="M123 815q-25 1 -35 19t2 38l412 570q12 20 35 20h10q23 0 35 -20l401 -570q12 -20 2 -38t-35 -19h-67q-25 0 -39 23l-305 432l-310 -432q-16 -23 -39 -23h-67z" />
    <glyph glyph-name="underscore" unicode="_" horiz-adv-x="792" 
d="M90 -129q-39 0 -39 37v33q0 39 39 39h612q39 0 39 -39v-33q0 -16 -11 -26t-28 -11h-612z" />
    <glyph glyph-name="grave" unicode="`" horiz-adv-x="618" 
d="M485 1145l-329 137q-29 10 -13 43l37 74q6 12 26 13t27 -7l308 -172q25 -12 12 -39l-21 -45q-10 -20 -47 -4z" />
    <glyph glyph-name="a" unicode="a" horiz-adv-x="860" 
d="M428 412q-102 0 -156 -43t-55 -113q0 -70 39 -112q40 -42 108 -42t130 36t92 79v162q-56 33 -158 33zM86 248q0 120 87 196t241 76q91 0 151 -20l23 -6q2 123 -24 172t-109 49q-129 0 -246 -45q-29 -12 -39 20l-16 51q-10 31 27 48t124 34q87 16 156 17q152 0 206 -79
t54 -267v-455q0 -15 -12 -27t-27 -12h-39q-25 0 -35 31l-16 55q-106 -106 -254 -106q-108 0 -180 74t-72 194z" />
    <glyph glyph-name="b" unicode="b" 
d="M758 412q0 127 -70 209q-70 81 -184 81t-189 -36l-24 -13v-409q8 -14 24 -37q17 -23 75 -61t124 -37q108 0 176 88t68 215zM147 39v1356q1 14 13 26t26 13h64q16 0 28 -12t11 -27v-609q84 53 219 54q180 0 286 -122t107 -303q0 -181 -108 -309q-109 -127 -265 -126
q-68 0 -131 26t-92 55l-29 27l-12 -55q-8 -33 -35 -33h-43q-14 0 -26 12t-13 27z" />
    <glyph glyph-name="c" unicode="c" horiz-adv-x="903" 
d="M504 -20q-172 0 -296 123t-124 303t126 307t301 127t288 -144q25 -33 -8 -57l-39 -33q-26 -26 -60 8q-76 86 -190 86t-192 -84q-79 -84 -79 -206t78 -209q78 -86 193 -86q56 0 82 11t40 16q14 4 29 18q17 14 23 19t22 21l21 21q29 29 61 4l23 -16q35 -25 14 -57
q-49 -78 -131 -125t-182 -47z" />
    <glyph glyph-name="d" unicode="d" 
d="M490 702q-120 0 -191 -82q-70 -82 -70 -208q0 -127 68 -215t163 -88t155 48q57 41 81 87v409q-86 49 -206 49zM453 -20q-151 0 -259 127t-108 308t106 303t287 122q59 0 115 -14t80 -27l24 -13v609q0 14 12 26t27 13h64q14 0 26 -12t13 -27v-1356q0 -15 -12 -27t-27 -12
h-43q-27 0 -35 33l-12 55q-108 -108 -258 -108z" />
    <glyph glyph-name="e" unicode="e" horiz-adv-x="935" 
d="M482 715q-97 0 -170 -65t-83 -161h488q-4 90 -71 158t-164 68zM488 -20q-182 0 -292 124t-110 305t111 306t281 125t276 -106q104 -106 104 -269q0 -27 -4 -55q-4 -35 -37 -35h-590q6 -103 87 -185q82 -82 186 -82t205 62q27 14 33 16t24 -12q6 -8 17 -23t21 -27t9 -24
q0 -10 -21 -26q-119 -94 -300 -94z" />
    <glyph glyph-name="f" unicode="f" horiz-adv-x="655" 
d="M211 39v657h-125q-16 0 -28 12t-11 27v45q0 39 39 39h125v287q0 170 87 259t225 89t227 -84q25 -20 8 -47l-33 -53q-18 -31 -53 -2q-78 59 -152 59t-121 -54t-47 -167v-287h238q39 0 39 -39v-45q1 -16 -11 -27t-28 -12h-238v-657q0 -15 -12 -27t-27 -12h-63q-16 0 -28 12
q-11 13 -11 27z" />
    <glyph glyph-name="g" unicode="g" horiz-adv-x="940" 
d="M240 -342q0 -64 70 -112t176 -48t190 54t84 141q0 23 -7 49t-45 54q-38 30 -104 30h-227q-16 -4 -39 -13q-22 -9 -60 -51q-38 -40 -38 -104zM482 254q93 0 150 63q56 63 56 165t-56 166t-150 64t-153 -64q-61 -65 -61 -165q0 -101 60 -165t154 -64zM63 32q0 77 34 135
t69 83l35 24q-66 84 -66 220t95 240q95 105 251 106h346q39 0 39 -39v-35q0 -31 -22 -35l-111 -22q9 -7 25 -23t42 -76t25 -131q0 -145 -95 -247t-249 -101q-57 0 -106 12t-68 25l-20 14q-35 -14 -63 -50t-28 -75t30 -69t83 -29h295q135 0 221 -67q86 -66 86 -196t-121 -231
q-122 -100 -309 -100t-287 85t-100 201t119 187v6q-55 14 -103 62t-47 126z" />
    <glyph glyph-name="h" unicode="h" horiz-adv-x="1015" 
d="M147 39v1356q1 14 13 26t26 13h64q16 0 28 -12t11 -27v-664q42 42 122 76q79 33 152 33q154 0 236 -96t82 -273v-432q-1 -15 -13 -27t-26 -12h-66q-14 0 -26 12t-13 27v432q0 115 -48 173t-127 58q-78 0 -144 -28t-99 -58l-30 -28v-549q0 -15 -11 -27t-28 -12h-64
q-14 0 -26 12t-13 27z" />
    <glyph glyph-name="i" unicode="i" horiz-adv-x="432" 
d="M145 39v741q-1 14 11 26t28 13h64q14 0 26 -12t13 -27v-741q-1 -15 -13 -27t-26 -12h-64q-16 0 -28 12t-11 27zM213 1198q-41 0 -69 28t-28 68t28 70q28 29 69 29t70 -29t29 -70q0 -40 -30 -68q-28 -28 -69 -28z" />
    <glyph glyph-name="j" unicode="j" horiz-adv-x="436" 
d="M147 -287v1067q-1 16 11 28t28 11h64q16 0 28 -11t11 -28v-1067q0 -170 -87 -259q-88 -89 -226 -89t-226 84q-25 20 -8 47l33 53q18 31 53 2q78 -59 152 -59t120 54q47 54 47 167zM217 1198q-41 0 -69 28t-28 68t28 70q28 29 69 29t70 -29t29 -70q0 -40 -30 -68
q-28 -28 -69 -28z" />
    <glyph glyph-name="k" unicode="k" horiz-adv-x="917" 
d="M147 39v1356q1 14 13 26t26 13h64q16 0 28 -12t11 -27v-887l348 287q29 25 49 24h111q25 0 27 -20t-9 -31l-389 -311l453 -406q14 -11 9 -31t-30 -20h-113q-18 0 -40 16l-416 396v-373q0 -15 -11 -27t-28 -12h-64q-14 0 -26 12t-13 27z" />
    <glyph glyph-name="l" unicode="l" horiz-adv-x="436" 
d="M147 39v1356q1 14 13 26t26 13h64q16 0 28 -12t11 -27v-1356q0 -15 -11 -27t-28 -12h-64q-14 0 -26 12t-13 27z" />
    <glyph glyph-name="m" unicode="m" horiz-adv-x="1560" 
d="M1108 840q317 0 317 -369v-432q0 -15 -12 -27t-27 -12h-65q-14 0 -27 12q-12 12 -12 27v432q0 231 -184 231q-127 0 -250 -114q10 -57 10 -117v-432q0 -15 -11 -27t-28 -12h-65q-16 0 -28 12q-11 12 -11 27v432q0 231 -195 231q-66 0 -124 -30t-85 -58l-24 -28v-547
q-1 -15 -13 -27t-26 -12h-64q-16 0 -28 12t-11 27v741q-1 14 11 26t28 13h39q27 0 33 -24l18 -64q106 106 276 107q171 2 253 -131q166 133 305 133z" />
    <glyph glyph-name="n" unicode="n" horiz-adv-x="1013" 
d="M145 39v741q-1 14 11 26t28 13h39q27 0 33 -24l18 -64q40 40 126 75q86 34 161 34q317 0 318 -369v-432q1 -15 -11 -27t-28 -12h-66q-16 0 -28 12q-11 12 -11 27v432q0 115 -48 173t-126 58q-79 0 -145 -30t-97 -58l-32 -28v-547q-1 -15 -13 -27t-26 -12h-64
q-16 0 -28 12t-11 27z" />
    <glyph glyph-name="o" unicode="o" 
d="M494 113q114 0 190 87t76 210q0 122 -77 208t-189 86t-190 -85q-77 -86 -77 -209t77 -210t190 -87zM494 840q170 0 288 -127t119 -303q0 -176 -119 -304q-118 -128 -288 -126q-170 0 -289 127t-119 303t119 303t289 127z" />
    <glyph glyph-name="p" unicode="p" 
d="M758 410q0 125 -70 213t-188 88q-60 0 -112 -26t-75 -50l-22 -25v-422q87 -72 201 -72t190 85q76 84 76 209zM289 -575q0 -15 -11 -27t-28 -12h-64q-14 0 -26 12t-13 27v1355q1 14 13 26t26 13h43q23 0 33 -26l14 -39q31 31 102 59q70 27 136 27q166 0 277 -127t111 -306
t-114 -303q-113 -124 -280 -124q-58 0 -114 16t-81 33l-24 18v-622z" />
    <glyph glyph-name="q" unicode="q" 
d="M229 410q0 -125 76 -209t193 -84q49 0 99 17t75 34l24 16v426q-8 10 -24 28t-70 45q-54 28 -115 28q-119 0 -189 -88t-69 -213zM86 407q0 179 111 306t276 127q66 0 125 -22t86 -44l27 -20l14 37q10 29 39 28h37q14 0 26 -12t13 -27v-1355q0 -15 -12 -27t-27 -12h-64
q-16 0 -27 12t-12 27v626q-84 -72 -219 -71q-169 0 -281 124t-112 303z" />
    <glyph glyph-name="r" unicode="r" horiz-adv-x="684" 
d="M145 39v741q-1 14 11 26t28 13h39q29 0 35 -28l16 -60q4 4 19 23t73 51q58 33 154 35q167 0 144 -68l-25 -70q-12 -34 -49 -18q-38 16 -94 16t-111 -28t-78 -58l-20 -28v-547q-1 -15 -13 -27t-26 -12h-64q-16 0 -28 12t-11 27z" />
    <glyph glyph-name="s" unicode="s" horiz-adv-x="729" 
d="M373 100q61 0 97 28t36 74t-39 78t-124 74t-129 70q-44 29 -83 83t-39 126q0 71 66 139t198 68t224 -64q35 -23 12 -63l-17 -33q-23 -39 -59 -18q-88 49 -156 49t-97 -25q-27 -26 -27 -58t24 -59t48 -39q22 -12 116 -59t143 -85q88 -69 88 -168t-80 -169
q-80 -69 -215 -69t-254 92q-20 16 -13 32t19 37q11 20 13 25q18 29 55 6q88 -72 193 -72z" />
    <glyph glyph-name="t" unicode="t" horiz-adv-x="700" 
d="M199 205v491h-105q-16 0 -27 12t-12 27v45q0 39 39 39h105v228q0 14 11 26t28 12l65 5q13 0 25 -12t12 -27v-232h238q39 0 38 -39v-45q0 -16 -11 -27t-27 -12h-238v-479q0 -59 15 -79t67 -19q52 0 135 45q31 16 49 -12l31 -52q17 -31 -15 -51t-102 -45t-133 -24
q-113 0 -151 57t-37 168z" />
    <glyph glyph-name="u" unicode="u" horiz-adv-x="993" 
d="M135 350v430q0 14 12 26t27 13h66q14 0 26 -12t13 -27v-432q0 -115 48 -173t127 -58q79 1 139 29t87 59l27 28v547q0 14 11 26t27 13h64q15 0 27 -12t12 -27v-741q0 -15 -12 -27t-27 -12h-39q-27 0 -37 35l-14 53q-108 -108 -266 -108q-318 -1 -318 370z" />
    <glyph glyph-name="v" unicode="v" horiz-adv-x="841" 
d="M63 819h64q25 0 37 -22l254 -586h2l270 586q10 23 35 22h53q23 0 32 -13t-1 -34l-350 -772q-8 -20 -35 -20h-10q-27 0 -35 20l-346 772q-10 20 -1 34t31 13z" />
    <glyph glyph-name="w" unicode="w" horiz-adv-x="1236" 
d="M98 819h64q29 0 37 -22l149 -541h2l232 563q8 20 34 21h11q27 0 35 -21l229 -565h2l147 543q8 23 35 22h64q45 0 30 -47l-223 -772q-6 -20 -35 -20h-10q-27 0 -35 20l-250 614l-241 -614q-8 -20 -35 -20h-10q-29 0 -35 20l-227 772q-14 47 30 47z" />
    <glyph glyph-name="x" unicode="x" horiz-adv-x="854" 
d="M111 819h86q20 0 32 -16l195 -279h2l203 279q12 16 33 16h86q26 0 34 -16t-8 -37l-260 -346l262 -367q14 -21 6 -37t-32 -16h-76q-16 0 -31 18l-217 301h-2l-213 -303q-12 -16 -33 -16h-76q-24 0 -32 16t6 37l268 365l-260 348q-16 20 -8 36t35 17z" />
    <glyph glyph-name="y" unicode="y" horiz-adv-x="954" 
d="M59 819h91q23 0 34 -22l303 -627h2l287 627q10 23 35 22h78q23 0 32 -13t-1 -34l-629 -1362q-12 -25 -35 -24h-76q-23 0 -33 14t0 37l263 565l-381 772q-10 20 -1 32t31 13z" />
    <glyph glyph-name="z" unicode="z" horiz-adv-x="747" 
d="M94 780q0 39 37 39h514q23 0 35 -17t0 -38l-391 -629v-6h315q39 0 39 -39v-51q0 -15 -11 -27t-28 -12h-491q-14 0 -27 12q-12 13 -12 27v20l401 625v6h-344q-14 0 -26 11q-11 11 -11 28v51z" />
    <glyph glyph-name="braceleft" unicode="{" horiz-adv-x="817" 
d="M223 -145v329q0 60 -48 106t-86 52t-38 37v63q0 27 38 33t86 51t48 107v330q0 133 48 233q82 171 285 232q83 26 169 26q41 0 41 -35v-39q0 -33 -27 -37q-159 -23 -267 -123t-107 -257v-273q0 -145 -54 -199t-108 -75v-15q116 -45 146 -150q15 -52 16 -124v-272
q1 -158 109 -257t265 -122q27 -4 27 -35v-41q0 -14 -12 -24t-29 -11q-176 0 -329 105q-77 52 -125 152t-48 233z" />
    <glyph glyph-name="bar" unicode="|" horiz-adv-x="405" 
d="M158 -578v2096q0 16 11 27t28 11h14q17 0 27 -11t10 -27v-2096q0 -14 -11 -25t-28 -11h-12q-16 0 -28 11q-11 11 -11 25z" />
    <glyph glyph-name="braceright" unicode="}" horiz-adv-x="817" 
d="M453 127q0 146 54 200t107 74v15q-116 45 -146 150q-15 52 -15 124v273q0 158 -109 258t-266 122q-27 4 -27 37v39q0 35 41 35q175 0 329 -104q77 -54 125 -154t48 -233v-330q0 -61 48 -107t86 -51q38 -6 38 -33v-63q0 -31 -38 -37t-86 -51t-48 -107v-329
q0 -133 -48 -233t-125 -152q-153 -105 -329 -105q-16 0 -29 10q-12 10 -12 25v41q0 31 27 35q158 23 266 122t109 257v272z" />
    <glyph glyph-name="asciitilde" unicode="~" horiz-adv-x="1138" 
d="M390 610q-82 0 -143 -90q-5 -8 -17 -25t-13 -20q-24 -35 -55 -8q-6 6 -20 17t-23 18q-27 23 -4 49q11 21 44 60q34 38 63 63q78 65 168 65t202 -81q114 -80 175 -80q75 0 135 90q5 8 18 26l12 19q25 35 55 8l43 -35q27 -23 4 -49q-12 -24 -45 -61q-111 -127 -229 -127
q-88 0 -215 88q-12 12 -56 38q-58 35 -99 35z" />
    <glyph glyph-name="uni00A0" unicode="&#xa0;" horiz-adv-x="454" 
 />
    <glyph glyph-name="exclamdown" unicode="&#xa1;" horiz-adv-x="468" 
d="M223 262h25q14 0 25 -10t14 -23l39 -571v-233q0 -15 -12 -27t-27 -12h-103q-16 0 -27 12t-12 27v229l39 575q2 13 14 23t25 10zM235 840q49 0 83 -35t34 -83t-34 -82t-83 -34q-48 0 -82 34t-34 82t34 83t82 35z" />
    <glyph glyph-name="cent" unicode="&#xa2;" horiz-adv-x="874" 
d="M481 700q-115 0 -193 -84t-79 -188q0 -202 141 -281l150 551q-10 2 -19 2zM61 408q0 180 123 306t299 126q16 0 54 -4l22 84q10 37 47 26l15 -4q37 -8 26 -47l-22 -82q88 -37 151 -117q25 -33 -8 -57l-39 -33q-22 -18 -33 -12q-12 6 -36 32t-72 50l-152 -559q14 -2 54 -2
t88 20q48 19 64 35q17 16 50 48t66 7l22 -16q35 -25 15 -57q-49 -78 -131 -125t-183 -47q-47 0 -80 8l-53 -199q-2 -14 -16 -22t-31 -5l-12 5q-37 8 -29 45l53 202q-113 48 -183 154t-69 240z" />
    <glyph glyph-name="sterling" unicode="&#xa3;" horiz-adv-x="1032" 
d="M301 1028q0 -130 68 -334h336q16 0 27 -11t11 -28v-16q0 -17 -11 -27t-27 -10h-314q18 -72 8 -224t-53 -247h512q16 0 26 -11t11 -28v-53q0 -15 -11 -27t-26 -12h-651q-14 0 -27 12q-12 13 -12 27v37q131 248 80 526h-90q-14 0 -26 11q-11 11 -11 28v14q0 15 11 27t26 12
h65q-1 8 -33 116t-32 224q0 190 122 305t302 115t346 -145q31 -23 4 -54l-43 -53q-31 -39 -60 -2q-47 47 -118 83q-72 36 -133 36q-119 0 -198 -80q-79 -81 -79 -211z" />
    <glyph glyph-name="currency" unicode="&#xa4;" horiz-adv-x="974" 
d="M487 532q61 0 105 43q43 43 43 105t-43 104q-42 43 -104 43t-105 -43t-43 -104q0 -60 43 -104t104 -44zM488 956q76 0 141 -38l86 86q27 25 53 -3l41 -40q27 -27 0 -54l-84 -84q41 -63 41 -142t-41 -144l84 -84q27 -27 0 -54l-41 -41q-27 -27 -53 -2l-86 86
q-66 -39 -143 -38t-140 40l-84 -84q-10 -10 -28 -10t-27 10l-41 39q-27 27 0 56l84 84q-82 141 0 282l-84 84q-27 29 0 56l41 38q10 11 27 11t28 -11l84 -84q66 41 142 41z" />
    <glyph glyph-name="yen" unicode="&#xa5;" horiz-adv-x="1265" 
d="M283 252q-14 0 -26 11q-11 11 -11 28v14q0 15 11 27t26 12h268v154h-268q-14 0 -26 11q-11 11 -11 28v14q0 15 11 27t26 12h268v100l-494 684q-12 20 -2 40t35 20h96q18 0 33 -19l414 -571l414 571q14 18 32 19h97q24 0 34 -20t-2 -40l-499 -682v-102h264q16 0 27 -11
t12 -28v-16q0 -17 -12 -27t-27 -10h-264v-154h264q16 0 27 -11t12 -28v-16q0 -17 -12 -27t-27 -10h-264v-213q-1 -15 -13 -27t-26 -12h-80q-16 0 -28 11q-11 11 -11 28v213h-268z" />
    <glyph glyph-name="brokenbar" unicode="&#xa6;" horiz-adv-x="745" 
d="M328 100q0 16 11 28t28 11h14q17 0 27 -11t10 -28v-678q0 -14 -11 -25t-28 -11h-12q-16 0 -28 11q-11 11 -11 25v678zM367 805q-16 0 -28 11q-11 11 -11 26v676q0 16 11 27t28 11h14q17 0 27 -11t10 -27v-676q0 -14 -11 -26t-28 -11h-12z" />
    <glyph glyph-name="section" unicode="&#xa7;" horiz-adv-x="1079" 
d="M250 564q0 -54 17 -91t65 -71t85 -54q38 -20 126 -62t141 -69q12 4 41 26q92 71 92 166t-82 155t-276 143q-57 25 -86 38q-15 -6 -35 -18q-20 -13 -54 -61t-34 -102zM562 -375q98 0 176 53q78 54 79 150q0 96 -87 172t-271 154q-360 152 -361 399q0 101 55 164
q55 64 109 98q-104 70 -146 192q-17 50 -18 103q0 127 108 236t329 108q90 0 177 -27t130 -51l43 -26q35 -15 14 -68l-31 -47q-27 -35 -67 -12q-164 94 -269 94q-150 -1 -216 -63t-66 -142q0 -156 276 -268q238 -98 346 -186t109 -228q0 -76 -44 -146t-87 -104l-43 -33
q113 -75 156 -202q18 -53 18 -109q0 -158 -125 -253t-317 -95q-109 0 -214 40t-147 70t-77 60q-34 30 -7 66l41 51q31 37 57 11t61 -53q36 -28 123 -68q88 -40 186 -40z" />
    <glyph glyph-name="dieresis" unicode="&#xa8;" horiz-adv-x="847" 
d="M261 1198q-41 0 -69 28t-28 68t27 70q28 29 69 29t70 -29q28 -29 28 -70q0 -40 -28 -68t-69 -28zM655 1198q-41 0 -69 28t-27 68q0 40 28 70q29 29 69 29t69 -29t29 -70q0 -40 -29 -68t-70 -28z" />
    <glyph glyph-name="copyright" unicode="&#xa9;" horiz-adv-x="1691" 
d="M855 330q-149 0 -261 112t-113 272q0 160 112 272t260 112t247 -78q33 -29 4 -59l-29 -37q-18 -25 -55 -2q-70 47 -163 47t-163 -74t-70 -178t70 -176t161 -72t159 45q39 25 59 -2l33 -39q27 -29 -2 -57q-100 -86 -249 -86zM233 717q-1 -254 179 -433q180 -180 434 -180
t433 180t179 433q0 254 -178 433t-433 179t-435 -179t-179 -433zM111 718q0 304 216 520t520 216t520 -217t216 -520t-216 -519t-521 -216t-520 216t-215 520z" />
    <glyph glyph-name="ordfeminine" unicode="&#xaa;" horiz-adv-x="638" 
d="M164 1030q0 -46 28 -76t75 -30q46 0 92 24t69 53v115q-52 27 -118 27t-106 -33t-40 -80zM332 1360q-66 0 -168 -37q-23 -6 -31 23l-10 36q-6 20 16 34t88 26t120 12q101 0 141 -44t43 -133q1 -27 1 -57v-348q0 -29 -26 -28h-37q-18 0 -25 20l-12 43q-86 -80 -172 -80
q-86 1 -137 55t-51 143t62 143t152 54t146 -20q0 90 -17 124t-83 34z" />
    <glyph glyph-name="guillemotleft" unicode="&#xab;" horiz-adv-x="849" 
d="M373 774q27 0 35 -19t-5 -44l-151 -285l145 -301q12 -25 4 -43t-34 -19h-39q-19 1 -31 17l-213 317q-16 23 0 49l223 304q14 25 37 24h29zM707 774q27 0 35 -19t-5 -44l-151 -285l145 -301q12 -25 4 -43t-35 -19h-38q-18 0 -31 17l-213 317q-16 23 0 49l223 304
q14 25 37 24h29z" />
    <glyph glyph-name="logicalnot" unicode="&#xac;" horiz-adv-x="1064" 
d="M115 643q-16 0 -28 12q-11 12 -11 27v57q0 15 11 27t28 12h778q15 0 27 -12t12 -27v-417q0 -14 -11 -26t-28 -11h-57q-16 0 -28 11q-11 11 -11 26v321h-682z" />
    <glyph glyph-name="uni00AD" unicode="&#xad;" horiz-adv-x="710" 
d="M141 451q-16 0 -27 10t-12 26v39q0 39 39 39h428q39 0 39 -39v-39q0 -16 -11 -26t-28 -10h-428z" />
    <glyph glyph-name="registered" unicode="&#xae;" horiz-adv-x="1693" 
d="M719 748h201q55 0 89 34q33 34 33 84q0 51 -32 83q-33 32 -90 32h-201v-233zM590 383v672q0 16 11 27t28 12h291q102 0 177 -60t75 -166t-53 -159q-52 -53 -113 -68q81 -158 122 -242q10 -19 -1 -37t-33 -18h-70q-23 0 -37 29l-115 256h-151v-246q0 -15 -11 -27t-28 -12
h-53q-16 0 -28 11q-11 12 -11 28zM233 717q-1 -254 179 -433q180 -180 434 -180t433 180t179 433q0 254 -178 433t-433 179t-435 -179t-179 -433zM111 718q0 304 216 520t520 216t520 -217t216 -520t-216 -519t-521 -216t-520 216t-215 520z" />
    <glyph glyph-name="macron" unicode="&#xaf;" horiz-adv-x="847" 
d="M162 1194q-39 0 -39 37v43q0 39 39 39h524q39 0 39 -39v-43q0 -17 -11 -27t-28 -10h-524z" />
    <glyph glyph-name="degree" unicode="&#xb0;" horiz-adv-x="684" 
d="M340 1010q64 0 116 51q50 51 50 115t-50 115q-50 50 -115 50t-116 -50q-51 -51 -51 -115t51 -115t115 -51zM342 901q-115 0 -196 81t-80 196q0 116 80 196t196 80q115 0 196 -81q80 -81 80 -195t-80 -196q-80 -81 -196 -81z" />
    <glyph glyph-name="plusminus" unicode="&#xb1;" horiz-adv-x="1222" 
d="M182 164v57q0 15 12 27t27 12h780q13 0 25 -11t12 -28v-57q0 -16 -11 -28t-26 -11h-780q-15 -1 -27 11t-12 28zM545 547v239h-322q-14 0 -26 12t-13 27v58q0 14 12 26t27 13h322v303q0 14 11 25t28 12h57q15 0 27 -12t12 -25v-303h324q14 0 25 -12t11 -27v-58
q0 -16 -11 -27t-25 -12h-324v-239q0 -13 -11 -25t-28 -12h-57q-16 0 -28 11q-11 12 -11 26z" />
    <glyph glyph-name="twosuperior" unicode="&#xb2;" horiz-adv-x="628" 
d="M113 1032q-20 0 -21 19v28l260 273q66 72 66 112t-30 69q-30 30 -92 30t-122 -62q-12 -12 -24 0l-41 43q-12 12 -2 22l26 26q17 15 69 41t105 26q105 0 163 -51t58 -131t-100 -185l-166 -170h248q18 0 18 -20v-51q0 -18 -18 -19h-397z" />
    <glyph glyph-name="threesuperior" unicode="&#xb3;" horiz-adv-x="610" 
d="M530 1176q0 -64 -64 -114t-184 -50q-118 0 -196 84q-12 12 2 22l43 41q14 8 27 -2q80 -53 132 -53t89 26t37 66q0 41 -38 70t-112 28h-63q-20 0 -21 19v51q0 18 21 18h63q66 0 100 26t34 66t-34 66q-32 26 -88 25q-56 0 -104 -49q-12 -12 -27 0l-41 36q-16 12 0 25
q78 82 180 82t164 -47q62 -48 62 -110t-33 -101t-73 -55v-5q44 -16 84 -58q40 -43 40 -107z" />
    <glyph glyph-name="acute" unicode="&#xb4;" horiz-adv-x="618" 
d="M170 1149l-20 45q-12 27 12 39l307 172q7 8 27 7t26 -13l37 -74q16 -33 -12 -43l-330 -137q-37 -16 -47 4z" />
    <glyph glyph-name="mu" unicode="&#xb5;" horiz-adv-x="1034" 
d="M291 -575q0 -15 -12 -27t-27 -12h-64q-16 0 -27 12t-11 27v1355q0 14 11 26t27 13h66q16 0 28 -12t11 -27v-432q0 -115 48 -173t127 -58q79 1 139 29t87 59l27 28v547q0 14 12 26t27 13h63q15 0 27 -12t12 -27v-741q0 -15 -11 -27t-28 -12h-39q-27 0 -36 35l-15 53
q-108 -108 -266 -108q-106 -1 -176 40v-595z" />
    <glyph glyph-name="paragraph" unicode="&#xb6;" horiz-adv-x="1437" 
d="M477 578q-174 0 -300 124t-126 304q0 178 116 304t282 126l905 -2q14 0 26 -12t13 -27v-41q1 -16 -11 -28t-28 -11h-228v-1893q0 -16 -11 -27t-28 -11h-43q-16 0 -27 11t-11 27v1893h-320v-1893q0 -16 -11 -27t-28 -11h-41q-16 0 -27 11t-12 27v1156h-90z" />
    <glyph glyph-name="periodcentered" unicode="&#xb7;" horiz-adv-x="468" 
d="M234 418q-48 0 -82 35t-35 83q0 48 35 82q34 34 82 33q48 0 82 -34q34 -33 34 -81t-34 -83t-82 -35z" />
    <glyph glyph-name="cedilla" unicode="&#xb8;" horiz-adv-x="505" 
d="M117 0h110v-109q95 -12 155 -68t60 -144q0 -87 -62 -149t-154 -62t-154 71q-29 33 0 53l28 23q29 20 47 0q35 -37 80 -37t70 27t25 69t-31 73q-31 30 -62 39t-71 16t-41 42v156z" />
    <glyph glyph-name="onesuperior" unicode="&#xb9;" horiz-adv-x="389" 
d="M184 1032q-20 0 -20 19v430l-84 -23q-18 -4 -21 8l-10 35q-2 14 6 23l144 114h57q18 0 18 -18v-569q0 -18 -18 -19h-72z" />
    <glyph glyph-name="ordmasculine" unicode="&#xba;" horiz-adv-x="663" 
d="M332 905q68 1 104 59t37 166q0 108 -37 165q-36 59 -104 59t-105 -58t-37 -166t37 -166t105 -59zM332 807q-121 0 -188 85q-66 86 -66 238t66 237q67 85 188 85q122 0 188 -85t66 -238t-66 -237t-188 -85z" />
    <glyph glyph-name="guillemotright" unicode="&#xbb;" horiz-adv-x="849" 
d="M147 63q-27 1 -35 19t5 43l145 301l-151 285q-12 25 -5 44q8 19 35 19h29q23 0 37 -24l223 -304q16 -27 0 -49l-213 -317q-12 -16 -31 -17h-39zM475 774h29q23 0 37 -24l223 -304q16 -27 0 -49l-213 -317q-12 -16 -31 -17h-39q-27 1 -35 19t5 43l145 301l-152 285
q-12 25 -4 44t35 19z" />
    <glyph glyph-name="onequarter" unicode="&#xbc;" horiz-adv-x="1296" 
d="M979 211v242l-217 -242h217zM649 139v60l352 401q6 6 17 6h43q20 0 20 -18v-379h84q18 0 19 -16v-54q0 -16 -19 -16h-84v-105q0 -18 -20 -18h-66q-20 0 -20 18v103h-307q-19 0 -19 18zM213 827q-20 0 -20 19v430l-84 -23q-18 -4 -21 9l-10 34q-2 14 6 23l143 115h58
q18 0 18 -19v-569q0 -18 -18 -19h-72zM954 1434q23 0 34 -18t1 -38l-706 -1358q-10 -20 -35 -20h-29q-23 0 -34 18t-1 37l703 1358q12 20 35 21h32z" />
    <glyph glyph-name="onehalf" unicode="&#xbd;" horiz-adv-x="1282" 
d="M711 18v29l260 272q65 72 65 112t-29 70q-29 29 -91 29t-123 -61q-12 -12 -25 0l-41 43q-12 12 -2 22q11 10 27 26q16 15 68 41t106 26q106 1 164 -51t57 -132q0 -80 -100 -184l-166 -170h247q18 0 19 -20v-52q0 -18 -19 -18h-397q-20 0 -20 18zM213 827q-20 0 -20 19
v430l-84 -23q-18 -4 -21 9l-10 34q-2 14 6 23l143 115h58q18 0 18 -19v-569q0 -18 -18 -19h-72zM954 1434q23 0 34 -18t1 -38l-706 -1358q-10 -20 -35 -20h-29q-23 0 -34 18t-1 37l703 1358q12 20 35 21h32z" />
    <glyph glyph-name="threequarters" unicode="&#xbe;" horiz-adv-x="1388" 
d="M1071 211v242l-217 -242h217zM741 139v60l353 401q6 6 16 6h43q20 0 21 -18v-379h83q18 0 19 -16v-54q0 -16 -19 -16h-83v-105q0 -18 -21 -18h-66q-20 0 -20 18v103h-307q-19 0 -19 18zM1047 1434q23 0 33 -18t1 -38l-706 -1358q-10 -20 -35 -20h-29q-23 0 -34 18t-1 37
l703 1358q12 20 35 21h33zM288 807q-118 0 -196 84q-12 12 2 22l43 41q14 8 27 -2q80 -53 132 -53t89 26q37 27 37 67t-38 69t-112 29h-63q-20 0 -21 18v51q0 18 21 19h63q66 0 100 26t34 65t-33 65t-89 26t-104 -49q-12 -12 -26 0l-41 37q-16 12 0 24q78 82 180 82
q101 0 163 -47t62 -109t-33 -102q-33 -39 -73 -55v-4q45 -17 85 -59t40 -106t-65 -115q-66 -50 -184 -50z" />
    <glyph glyph-name="questiondown" unicode="&#xbf;" horiz-adv-x="499" 
d="M190 137v84q0 41 43 41h56q16 0 27 -11t12 -28v-86q0 -126 -109 -208q-45 -33 -90 -65q-109 -76 -109 -192q0 -76 54 -128t139 -52q86 0 148 27q17 6 35 18t36 23q19 11 32 26t28 29l14 16q27 27 53 2l39 -34q30 -24 -20 -80q-138 -152 -363 -153q-152 -1 -250 85
t-98 227q0 74 34 134t81 97q47 38 94 71q114 80 114 157zM263 606q-48 0 -82 34t-34 82t34 83t82 35t83 -35t35 -83t-35 -82t-83 -34z" />
    <glyph glyph-name="Agrave" unicode="&#xc0;" horiz-adv-x="1357" 
d="M817 1599l-330 138q-29 10 -12 43l37 73q6 11 26 13t27 -6l307 -172q25 -12 13 -39l-21 -45q-10 -21 -47 -5zM985 487l-299 672h-16l-299 -672h614zM47 0q-23 0 -34 16t-1 37l623 1379q12 23 35 22h20q23 0 35 -22l618 -1379q10 -21 -1 -37t-33 -16h-82q-27 0 -35 23
l-152 337h-727l-149 -337q-8 -23 -35 -23h-82z" />
    <glyph glyph-name="Aacute" unicode="&#xc1;" horiz-adv-x="1357" 
d="M494 1604l-21 45q-12 27 12 39l308 172q8 8 27 7t26 -14l37 -73q16 -33 -13 -43l-329 -138q-37 -15 -47 5zM985 487l-299 672h-16l-299 -672h614zM47 0q-23 0 -34 16t-1 37l623 1379q12 23 35 22h20q23 0 35 -22l618 -1379q10 -21 -1 -37t-33 -16h-82q-27 0 -35 23
l-152 337h-727l-149 -337q-8 -23 -35 -23h-82z" />
    <glyph glyph-name="Acircumflex" unicode="&#xc2;" horiz-adv-x="1357" 
d="M424 1587l-29 37q-14 20 13 39l245 192q11 9 27 9t27 -9l245 -192q27 -18 13 -39q-3 -4 -11 -16t-19 -26q-17 -23 -46 -3l-209 143l-209 -139q-31 -21 -47 4zM985 487l-299 672h-16l-299 -672h614zM47 0q-23 0 -34 16t-1 37l623 1379q12 23 35 22h20q23 0 35 -22
l618 -1379q10 -21 -1 -37t-33 -16h-82q-27 0 -35 23l-152 337h-727l-149 -337q-8 -23 -35 -23h-82z" />
    <glyph glyph-name="Atilde" unicode="&#xc3;" horiz-adv-x="1357" 
d="M793 1712q61 0 92 105q10 33 47 16l33 -16q20 -10 8 -54q-57 -166 -182 -166q-49 0 -94 39q-44 39 -76 77q-33 38 -57 38t-44 -18q-20 -17 -27 -35t-18 -49q-12 -41 -51 -21l-37 19q-23 12 -8 45q0 2 12 30q43 101 107 128q93 39 165 -24q41 -38 73 -76t57 -38zM985 487
l-299 672h-16l-299 -672h614zM47 0q-23 0 -34 16t-1 37l623 1379q12 23 35 22h20q23 0 35 -22l618 -1379q10 -21 -1 -37t-33 -16h-82q-27 0 -35 23l-152 337h-727l-149 -337q-8 -23 -35 -23h-82z" />
    <glyph glyph-name="Adieresis" unicode="&#xc4;" horiz-adv-x="1357" 
d="M559 1718q-1 -40 -29 -68t-68 -28t-69 29t-29 69t28 68q28 29 69 29t69 -29t29 -70zM893 1622q-41 0 -69 29t-28 69t28 68q28 29 69 29t70 -29t29 -70q0 -40 -30 -68q-28 -28 -69 -28zM985 487l-299 672h-16l-299 -672h614zM47 0q-23 0 -34 16t-1 37l623 1379
q12 23 35 22h20q23 0 35 -22l618 -1379q10 -21 -1 -37t-33 -16h-82q-27 0 -35 23l-152 337h-727l-149 -337q-8 -23 -35 -23h-82z" />
    <glyph glyph-name="Aring" unicode="&#xc5;" horiz-adv-x="1357" 
d="M678 1651q49 0 85 38t36 87t-36 85q-36 35 -85 35t-87 -36t-38 -84q0 -49 38 -87t87 -38zM677 1552q-93 0 -158 65t-64 159t65 158t157 65q93 0 159 -65q66 -64 66 -158t-66 -159t-159 -65zM985 487l-299 672h-16l-299 -672h614zM47 0q-23 0 -34 16t-1 37l623 1379
q12 23 35 22h20q23 0 35 -22l618 -1379q10 -21 -1 -37t-33 -16h-82q-27 0 -35 23l-152 337h-727l-149 -337q-8 -23 -35 -23h-82z" />
    <glyph glyph-name="AE" unicode="&#xc6;" horiz-adv-x="1837" 
d="M834 487v672l-412 -672h412zM12 0q-24 0 -30 16t6 37l821 1317q31 49 48 56t42 8h780q15 0 27 -12t12 -27v-60q0 -16 -11 -27t-28 -12h-700v-499h600q15 1 27 -11t12 -28v-60q0 -16 -11 -27t-28 -12h-600v-522h700q15 0 27 -11t12 -28v-59q0 -15 -11 -27t-28 -12h-807
q-16 0 -27 11t-11 28v321h-486l-213 -337q-18 -23 -39 -23h-84z" />
    <glyph glyph-name="Ccedilla" unicode="&#xc7;" horiz-adv-x="1452" 
d="M106 730q0 292 216 508t524 216q272 0 495 -190q31 -31 2 -58l-55 -55q-23 -29 -53 2q-179 154 -405 154t-392 -174t-166 -415t166 -415t406 -174q153 0 278 75q45 28 113 79q27 20 49 6l62 -56q12 -10 11 -26t-14 -29q-205 -199 -497 -198v-89q96 -12 155 -68t59 -144
q0 -87 -62 -149t-154 -62t-154 71q-29 33 0 53l29 23q29 20 47 0q35 -37 80 -37q46 0 70 27t24 69t-31 73q-31 30 -61 39t-78 17q-35 6 -35 41v144q-269 39 -449 245q-180 205 -180 497z" />
    <glyph glyph-name="Egrave" unicode="&#xc8;" horiz-adv-x="1212" 
d="M807 1599l-330 138q-29 10 -12 43l37 73q6 11 25 13t28 -6l307 -172q25 -12 12 -39l-20 -45q-10 -21 -47 -5zM209 39v1356q0 16 11 27t28 12h807q16 0 27 -12t12 -27v-60q0 -16 -12 -27t-27 -12h-688v-499h587q16 1 28 -11t11 -28v-60q0 -16 -11 -27t-28 -12h-587v-522
h688q16 0 27 -11t12 -28v-59q0 -15 -12 -27t-27 -12h-807q-16 0 -28 11q-11 12 -11 28z" />
    <glyph glyph-name="Eacute" unicode="&#xc9;" horiz-adv-x="1212" 
d="M485 1604l-20 45q-12 27 12 39l307 172q8 8 28 7t26 -14l36 -73q16 -33 -12 -43l-330 -138q-37 -15 -47 5zM209 39v1356q0 16 11 27t28 12h807q16 0 27 -12t12 -27v-60q0 -16 -12 -27t-27 -12h-688v-499h587q16 1 28 -11t11 -28v-60q0 -16 -11 -27t-28 -12h-587v-522h688
q16 0 27 -11t12 -28v-59q0 -15 -12 -27t-27 -12h-807q-16 0 -28 11q-11 12 -11 28z" />
    <glyph glyph-name="Ecircumflex" unicode="&#xca;" horiz-adv-x="1212" 
d="M393 1587l-28 37q-14 20 12 39l246 192q10 9 26 9t27 -9l246 -192q27 -18 12 -39q-4 -4 -11 -16q-11 -19 -26 -32t-39 3l-209 143l-209 -139q-31 -21 -47 4zM209 39v1356q0 16 11 27t28 12h807q16 0 27 -12t12 -27v-60q0 -16 -12 -27t-27 -12h-688v-499h587q16 1 28 -11
t11 -28v-60q0 -16 -11 -27t-28 -12h-587v-522h688q16 0 27 -11t12 -28v-59q0 -15 -12 -27t-27 -12h-807q-16 0 -28 11q-11 12 -11 28z" />
    <glyph glyph-name="Edieresis" unicode="&#xcb;" horiz-adv-x="1212" 
d="M434 1622q-40 0 -68 29t-28 69t28 68q28 29 68 29t70 -29q28 -29 28 -70q0 -40 -28 -68t-70 -28zM965 1718q0 -40 -29 -68t-69 -28q-41 0 -69 29t-28 69t28 68q28 29 68 29t70 -29q29 -29 29 -70zM209 39v1356q0 16 11 27t28 12h807q16 0 27 -12t12 -27v-60
q0 -16 -12 -27t-27 -12h-688v-499h587q16 1 28 -11t11 -28v-60q0 -16 -11 -27t-28 -12h-587v-522h688q16 0 27 -11t12 -28v-59q0 -15 -12 -27t-27 -12h-807q-16 0 -28 11q-11 12 -11 28z" />
    <glyph glyph-name="Igrave" unicode="&#xcc;" horiz-adv-x="577" 
d="M426 1599l-330 138q-29 10 -12 43l37 73q6 11 25 13t28 -6l307 -172q25 -12 13 -39l-21 -45q-10 -21 -47 -5zM209 39v1356q0 14 12 26t27 13h82q14 0 26 -12t13 -27v-1356q-1 -15 -13 -27t-26 -12h-82q-14 0 -27 12q-12 13 -12 27z" />
    <glyph glyph-name="Iacute" unicode="&#xcd;" horiz-adv-x="577" 
d="M104 1604l-20 45q-12 27 12 39l307 172q7 8 27 7t27 -14l37 -73q16 -33 -13 -43l-329 -138q-38 -15 -48 5zM209 39v1356q0 14 12 26t27 13h82q14 0 26 -12t13 -27v-1356q-1 -15 -13 -27t-26 -12h-82q-14 0 -27 12q-12 13 -12 27z" />
    <glyph glyph-name="Icircumflex" unicode="&#xce;" horiz-adv-x="577" 
d="M33 1587l-29 37q-14 20 12 39l246 192q10 9 26 9t27 -9l246 -192q27 -18 12 -39q-4 -4 -11 -16t-18 -26q-17 -23 -46 -3l-209 143l-209 -139q-31 -21 -47 4zM209 39v1356q0 14 12 26t27 13h82q14 0 26 -12t13 -27v-1356q-1 -15 -13 -27t-26 -12h-82q-14 0 -27 12
q-12 13 -12 27z" />
    <glyph glyph-name="Idieresis" unicode="&#xcf;" horiz-adv-x="577" 
d="M74 1622q-41 0 -69 29t-28 69t28 68q28 29 69 29q42 0 70 -29t28 -70q0 -40 -28 -68t-70 -28zM604 1718q0 -40 -28 -68t-69 -28q-40 0 -69 29q-28 29 -28 69t27 68q28 29 69 29q42 0 70 -29t28 -70zM209 39v1356q0 14 12 26t27 13h82q14 0 26 -12t13 -27v-1356
q-1 -15 -13 -27t-26 -12h-82q-14 0 -27 12q-12 13 -12 27z" />
    <glyph glyph-name="Eth" unicode="&#xd0;" horiz-adv-x="1538" 
d="M373 141h307q252 0 416 163t164 415t-164 414t-416 161h-307v-538h432q15 0 27 -12t12 -27v-17q0 -16 -11 -26t-28 -10h-432v-523zM217 39v625h-59q-14 0 -26 11q-11 11 -11 27v15q0 16 11 27t26 12h59v639q0 16 11 27t26 12h459q297 0 508 -210t211 -506t-211 -507
t-508 -211h-459q-14 0 -26 11q-11 12 -11 28z" />
    <glyph glyph-name="Ntilde" unicode="&#xd1;" horiz-adv-x="1585" 
d="M930 1712q61 0 92 105q10 33 47 16l33 -16q20 -10 8 -54q-57 -166 -182 -166q-49 0 -93 39t-77 77t-57 38t-44 -18q-20 -17 -27 -35t-18 -49q-12 -41 -51 -21l-37 19q-23 12 -8 45q0 2 12 30q42 100 107 128q31 14 77 14t88 -38t74 -76t56 -38zM209 39v1378q0 13 11 25
t28 12h51l924 -1151h4v1092q0 16 11 27t28 12h71q15 0 27 -12t12 -27v-1379q0 -14 -11 -25t-28 -11h-37l-940 1173h-2v-1114q0 -15 -11 -27t-28 -12h-71q-14 0 -27 12q-12 13 -12 27z" />
    <glyph glyph-name="Ograve" unicode="&#xd2;" horiz-adv-x="1681" 
d="M997 1599l-329 138q-29 10 -13 43l37 73q6 11 26 13t27 -6l308 -172q25 -12 12 -39l-21 -45q-10 -21 -47 -5zM248 715q0 -244 174 -418t418 -174t418 174t176 418q0 244 -176 420t-418 176q-244 0 -418 -176t-174 -420zM104 715q0 307 214 523t522 216t522 -216
q215 -216 215 -523t-215 -521t-522 -214t-522 214q-214 214 -214 521z" />
    <glyph glyph-name="Oacute" unicode="&#xd3;" horiz-adv-x="1681" 
d="M676 1604l-21 45q-12 27 13 39l307 172q8 8 27 7t26 -14l37 -73q16 -33 -12 -43l-330 -138q-37 -15 -47 5zM248 715q0 -244 174 -418t418 -174t418 174t176 418q0 244 -176 420t-418 176q-244 0 -418 -176t-174 -420zM104 715q0 307 214 523t522 216t522 -216
q215 -216 215 -523t-215 -521t-522 -214t-522 214q-214 214 -214 521z" />
    <glyph glyph-name="Ocircumflex" unicode="&#xd4;" horiz-adv-x="1681" 
d="M584 1587l-29 37q-14 20 12 39l246 192q11 9 27 9t26 -9l246 -192q27 -18 12 -39q-4 -4 -11 -16q-23 -40 -43 -38q-9 1 -21 9l-209 143l-209 -139q-31 -21 -47 4zM248 715q0 -244 174 -418t418 -174t418 174t176 418q0 244 -176 420t-418 176q-244 0 -418 -176t-174 -420
zM104 715q0 307 214 523t522 216t522 -216q215 -216 215 -523t-215 -521t-522 -214t-522 214q-214 214 -214 521z" />
    <glyph glyph-name="Otilde" unicode="&#xd5;" horiz-adv-x="1681" 
d="M952 1712q61 0 92 105q10 33 48 16l32 -16q20 -10 9 -54q-57 -166 -183 -166q-49 0 -93 39t-77 77q-32 38 -56 38t-44 -18q-20 -17 -28 -35t-17 -49q-12 -41 -51 -21l-37 19q-23 12 -8 45q0 2 12 30q42 101 106 128q31 14 77 14t88 -38t74 -76t56 -38zM248 715
q0 -244 174 -418t418 -174t418 174t176 418q0 244 -176 420t-418 176q-244 0 -418 -176t-174 -420zM104 715q0 307 214 523t522 216t522 -216q215 -216 215 -523t-215 -521t-522 -214t-522 214q-214 214 -214 521z" />
    <glyph glyph-name="Odieresis" unicode="&#xd6;" horiz-adv-x="1681" 
d="M723 1718q-1 -40 -29 -68t-68 -28t-69 29t-29 69t28 68q28 29 69 29t69 -29t29 -70zM1057 1622q-41 0 -69 29t-28 69t28 68q28 29 69 29t69 -29t29 -70q-1 -40 -29 -68t-69 -28zM248 715q0 -244 174 -418t418 -174t418 174t176 418q0 244 -176 420t-418 176
q-244 0 -418 -176t-174 -420zM104 715q0 307 214 523t522 216t522 -216q215 -216 215 -523t-215 -521t-522 -214t-522 214q-214 214 -214 521z" />
    <glyph glyph-name="multiply" unicode="&#xd7;" horiz-adv-x="985" 
d="M211 389l-41 41q-27 27 0 53l227 228l-227 227q-27 29 0 55l39 41q29 27 55 0l228 -227l229 229q25 25 53 -2l41 -41q10 -10 11 -26t-9 -27l-229 -229l229 -228q25 -29 -2 -55l-41 -39q-29 -29 -53 -2l-229 229l-228 -227q-26 -27 -53 0z" />
    <glyph glyph-name="Oslash" unicode="&#xd8;" horiz-adv-x="1681" 
d="M852 123q232 0 406 174q174 175 176 407q0 232 -144 396l-833 -836q163 -141 395 -141zM248 728q0 -232 145 -400l836 837q-169 145 -401 145t-406 -175t-174 -407zM826 1454q294 0 505 -186l129 129q27 27 53 0l11 -11q27 -27 0 -53l-129 -129q182 -212 182 -504
t-215 -506t-509 -214t-501 180l-125 -125q-26 -26 -66 16q-22 23 3 47l125 125q-185 211 -185 505t214 510t508 216z" />
    <glyph glyph-name="Ugrave" unicode="&#xd9;" horiz-adv-x="1466" 
d="M866 1599l-329 138q-29 10 -13 43l37 73q5 11 25 13t28 -6l308 -172q25 -12 12 -39l-21 -45q-10 -21 -47 -5zM190 528v867q0 14 12 26t27 13h78q15 0 27 -12t12 -27v-854q0 -180 104 -298t282 -118q177 0 283 117q105 117 105 295v858q0 16 12 27t27 12h78q15 0 27 -12
t12 -27v-867q0 -236 -153 -392t-391 -156t-390 156t-152 392z" />
    <glyph glyph-name="Uacute" unicode="&#xda;" horiz-adv-x="1466" 
d="M545 1604l-21 45q-12 27 13 39l307 172q8 8 27 7t26 -14l37 -73q16 -33 -12 -43l-330 -138q-37 -15 -47 5zM190 528v867q0 14 12 26t27 13h78q15 0 27 -12t12 -27v-854q0 -180 104 -298t282 -118q177 0 283 117q105 117 105 295v858q0 16 12 27t27 12h78q15 0 27 -12
t12 -27v-867q0 -236 -153 -392t-391 -156t-390 156t-152 392z" />
    <glyph glyph-name="Ucircumflex" unicode="&#xdb;" horiz-adv-x="1466" 
d="M467 1587l-29 37q-14 20 13 39l245 192q10 9 26 9t28 -9l245 -192q27 -18 13 -39q-4 -4 -12 -16t-18 -26q-17 -23 -46 -3l-209 143l-209 -139q-31 -21 -47 4zM190 528v867q0 14 12 26t27 13h78q15 0 27 -12t12 -27v-854q0 -180 104 -298t282 -118q177 0 283 117
q105 117 105 295v858q0 16 12 27t27 12h78q15 0 27 -12t12 -27v-867q0 -236 -153 -392t-391 -156t-390 156t-152 392z" />
    <glyph glyph-name="Udieresis" unicode="&#xdc;" horiz-adv-x="1466" 
d="M515 1622q-40 0 -69 29q-28 29 -28 69t27 68q28 29 69 29t70 -29q28 -29 28 -70q0 -40 -28 -68t-69 -28zM946 1622q-40 0 -68 29t-28 69t28 68q28 29 68 29t70 -29q28 -29 28 -70q0 -40 -28 -68t-70 -28zM190 528v867q0 14 12 26t27 13h78q15 0 27 -12t12 -27v-854
q0 -180 104 -298t282 -118q177 0 283 117q105 117 105 295v858q0 16 12 27t27 12h78q15 0 27 -12t12 -27v-867q0 -236 -153 -392t-391 -156t-390 156t-152 392z" />
    <glyph glyph-name="Yacute" unicode="&#xdd;" horiz-adv-x="1157" 
d="M395 1604l-20 45q-12 27 12 39l307 172q8 8 28 7t26 -14l36 -73q16 -33 -12 -43l-330 -138q-37 -15 -47 5zM498 39v651l-494 684q-12 20 -2 40t35 20h96q18 0 33 -19l414 -571l413 571q14 18 33 19h96q25 0 35 -20t-2 -40l-500 -682v-653q0 -15 -12 -27t-27 -12h-79
q-16 0 -28 11q-11 12 -11 28z" />
    <glyph glyph-name="Thorn" unicode="&#xde;" horiz-adv-x="1222" 
d="M365 414h325q127 0 219 91t92 218t-92 212t-219 85h-325v-606zM209 39v1354q0 16 11 28t28 13h78q14 0 26 -12t13 -27v-219h335q188 2 324 -132t135 -323q0 -187 -134 -323t-323 -136h-337v-223q-1 -15 -13 -27t-26 -12h-78q-16 0 -28 11q-11 12 -11 28z" />
    <glyph glyph-name="germandbls" unicode="&#xdf;" horiz-adv-x="1107" 
d="M147 39v803q0 304 110 458t321 154q145 0 244 -77q100 -77 100 -217t-92 -266t-91 -163q0 -37 47 -81q46 -44 102 -90t103 -124t47 -164q0 -145 -97 -219q-97 -73 -229 -73t-208 38q-39 18 -31 48l16 61q10 43 43 25q84 -48 170 -48t136 48t51 109q0 61 -32 111t-77 91
t-91 81q-111 96 -110 164t99 219t98 212q0 88 -61 138t-142 50q-283 0 -282 -487v-801q0 -15 -12 -27t-27 -12h-66q-14 0 -26 12t-13 27z" />
    <glyph glyph-name="agrave" unicode="&#xe0;" horiz-adv-x="858" 
d="M592 1145l-330 137q-29 10 -12 43l37 74q6 12 25 13t28 -7l307 -172q25 -12 12 -39l-20 -45q-10 -20 -47 -4zM428 412q-102 0 -156 -43t-55 -113q0 -70 39 -112q40 -42 108 -42t130 36t92 79v162q-56 33 -158 33zM86 248q0 120 87 196t241 76q91 0 151 -20l23 -6
q2 123 -24 172t-109 49q-129 0 -246 -45q-29 -12 -39 20l-16 51q-10 31 27 48t124 34q87 16 156 17q152 0 206 -79t54 -267v-455q0 -15 -12 -27t-27 -12h-39q-25 0 -35 31l-16 55q-106 -106 -254 -106q-108 0 -180 74t-72 194z" />
    <glyph glyph-name="aacute" unicode="&#xe1;" horiz-adv-x="858" 
d="M254 1149l-21 45q-12 27 13 39l307 172q7 8 27 7t26 -13l37 -74q16 -33 -12 -43l-330 -137q-37 -16 -47 4zM428 412q-102 0 -156 -43t-55 -113q0 -70 39 -112q40 -42 108 -42t130 36t92 79v162q-56 33 -158 33zM86 248q0 120 87 196t241 76q91 0 151 -20l23 -6
q2 123 -24 172t-109 49q-129 0 -246 -45q-29 -12 -39 20l-16 51q-10 31 27 48t124 34q87 16 156 17q152 0 206 -79t54 -267v-455q0 -15 -12 -27t-27 -12h-39q-25 0 -35 31l-16 55q-106 -106 -254 -106q-108 0 -180 74t-72 194z" />
    <glyph glyph-name="acircumflex" unicode="&#xe2;" horiz-adv-x="858" 
d="M422 1413q16 0 27 -8l245 -193q27 -18 13 -38q-3 -4 -11 -16q-24 -40 -44 -39q-9 1 -21 9l-209 144l-209 -139q-31 -21 -47 4l-29 37q-14 20 13 38l245 193q11 8 27 8zM428 412q-102 0 -156 -43t-55 -113q0 -70 39 -112q40 -42 108 -42t130 36t92 79v162q-56 33 -158 33z
M86 248q0 120 87 196t241 76q91 0 151 -20l23 -6q2 123 -24 172t-109 49q-129 0 -246 -45q-29 -12 -39 20l-16 51q-10 31 27 48t124 34q87 16 156 17q152 0 206 -79t54 -267v-455q0 -15 -12 -27t-27 -12h-39q-25 0 -35 31l-16 55q-106 -106 -254 -106q-108 0 -180 74
t-72 194z" />
    <glyph glyph-name="atilde" unicode="&#xe3;" horiz-adv-x="858" 
d="M318 1413q68 0 162 -114q32 -38 57 -37q61 0 92 104q10 33 47 16l33 -16q20 -10 8 -53q-57 -166 -182 -166q-49 0 -94 39q-44 39 -76 77q-54 62 -101 19q-20 -18 -27 -36t-18 -48q-12 -40 -51 -20l-37 18q-23 12 -8 45q0 2 12 31q43 101 107 128q30 13 76 13zM428 412
q-102 0 -156 -43t-55 -113q0 -70 39 -112q40 -42 108 -42t130 36t92 79v162q-56 33 -158 33zM86 248q0 120 87 196t241 76q91 0 151 -20l23 -6q2 123 -24 172t-109 49q-129 0 -246 -45q-29 -12 -39 20l-16 51q-10 31 27 48t124 34q87 16 156 17q152 0 206 -79t54 -267v-455
q0 -15 -12 -27t-27 -12h-39q-25 0 -35 31l-16 55q-106 -106 -254 -106q-108 0 -180 74t-72 194z" />
    <glyph glyph-name="adieresis" unicode="&#xe4;" horiz-adv-x="858" 
d="M250 1198q-41 0 -69 28q-27 28 -27 68t27 70q28 29 69 29q42 0 70 -29t28 -70q0 -40 -28 -68t-70 -28zM646 1198q-40 0 -68 28t-29 68q0 40 28 70q29 29 69 29t69 -29t29 -70q0 -40 -30 -68q-28 -28 -68 -28zM428 412q-102 0 -156 -43t-55 -113q0 -70 39 -112
q40 -42 108 -42t130 36t92 79v162q-56 33 -158 33zM86 248q0 120 87 196t241 76q91 0 151 -20l23 -6q2 123 -24 172t-109 49q-129 0 -246 -45q-29 -12 -39 20l-16 51q-10 31 27 48t124 34q87 16 156 17q152 0 206 -79t54 -267v-455q0 -15 -12 -27t-27 -12h-39q-25 0 -35 31
l-16 55q-106 -106 -254 -106q-108 0 -180 74t-72 194z" />
    <glyph glyph-name="aring" unicode="&#xe5;" horiz-adv-x="858" 
d="M424 1106q49 0 85 38t36 87t-36 85t-85 36t-87 -36t-38 -85t38 -87t87 -38zM423 1008q-93 0 -158 64t-64 159q0 94 64 159q65 64 158 64t159 -64t66 -159q0 -94 -66 -159q-66 -64 -159 -64zM428 412q-102 0 -156 -43t-55 -113q0 -70 39 -112q40 -42 108 -42t130 36t92 79
v162q-56 33 -158 33zM86 248q0 120 87 196t241 76q91 0 151 -20l23 -6q2 123 -24 172t-109 49q-129 0 -246 -45q-29 -12 -39 20l-16 51q-10 31 27 48t124 34q87 16 156 17q152 0 206 -79t54 -267v-455q0 -15 -12 -27t-27 -12h-39q-25 0 -35 31l-16 55q-106 -106 -254 -106
q-108 0 -180 74t-72 194z" />
    <glyph glyph-name="ae" unicode="&#xe6;" horiz-adv-x="1413" 
d="M217 250q0 -74 48 -111q47 -37 113 -37t120 31t84 74v182q-60 19 -156 19t-152 -42t-57 -116zM725 492h471q-4 94 -71 157t-151 63t-150 -38q-67 -39 -99 -99v-83zM721 250q81 -137 271 -137q96 0 190 57q26 14 32 16t25 -12l35 -47q12 -17 12 -27t-20 -26
q-126 -94 -314 -94t-297 145q-45 -59 -126 -102t-187 -43t-180 74t-74 196q0 120 81 194t205 74t181 -10l23 -2q2 123 -20 168t-95 45q-113 0 -260 -49q-35 -10 -43 28l-10 52q-6 31 32 41q131 49 297 49t213 -113q117 113 274 113t263 -104t106 -271q0 -90 -41 -90h-573
v-125z" />
    <glyph glyph-name="ccedilla" unicode="&#xe7;" horiz-adv-x="907" 
d="M86 417q0 169 126 296t301 127t288 -144q25 -33 -8 -57l-39 -33q-26 -26 -49 -2q-8 8 -11 10q-76 86 -190 86t-192 -84q-79 -84 -79 -206t78 -209q78 -86 193 -86q56 0 82 11t40 16q14 4 29 18q17 14 23 19t22 21l21 21q29 29 61 4l23 -16q35 -25 14 -57
q-96 -156 -282 -170v-91q96 -12 155 -68q60 -56 60 -144q0 -87 -62 -149t-155 -62q-92 0 -154 71q-29 33 0 53l29 23q29 20 47 0q35 -37 80 -37t69 27t25 69q0 42 -31 73q-32 30 -62 39t-77 17q-35 6 -35 41v144q-145 27 -243 143q-97 117 -97 286z" />
    <glyph glyph-name="egrave" unicode="&#xe8;" horiz-adv-x="935" 
d="M623 1145l-330 137q-29 10 -12 43l36 74q5 12 25 13t29 -7l307 -172q25 -12 12 -39l-20 -45q-10 -20 -47 -4zM482 715q-97 0 -170 -65t-83 -161h488q-4 90 -71 158t-164 68zM488 -20q-182 0 -292 124t-110 305t111 306t281 125t276 -106q104 -106 104 -269q0 -27 -4 -55
q-4 -35 -37 -35h-590q6 -103 87 -185q82 -82 186 -82t205 62q27 14 33 16t24 -12q6 -8 17 -23t21 -27t9 -24q0 -10 -21 -26q-119 -94 -300 -94z" />
    <glyph glyph-name="eacute" unicode="&#xe9;" horiz-adv-x="935" 
d="M295 1149l-21 45q-12 27 13 39l307 172q8 8 28 7t25 -13l37 -74q16 -33 -12 -43l-330 -137q-37 -16 -47 4zM482 715q-97 0 -170 -65t-83 -161h488q-4 90 -71 158t-164 68zM488 -20q-182 0 -292 124t-110 305t111 306t281 125t276 -106q104 -106 104 -269q0 -27 -4 -55
q-4 -35 -37 -35h-590q6 -103 87 -185q82 -82 186 -82t205 62q27 14 33 16t24 -12q6 -8 17 -23t21 -27t9 -24q0 -10 -21 -26q-119 -94 -300 -94z" />
    <glyph glyph-name="ecircumflex" unicode="&#xea;" horiz-adv-x="935" 
d="M492 1413q16 0 26 -8l246 -193q27 -18 12 -38q-4 -4 -11 -16q-23 -41 -43 -39q-9 1 -22 9l-208 144l-209 -139q-31 -21 -47 4l-29 37q-14 20 12 38l246 193q11 8 27 8zM482 715q-97 0 -170 -65t-83 -161h488q-4 90 -71 158t-164 68zM488 -20q-182 0 -292 124t-110 305
t111 306t281 125t276 -106q104 -106 104 -269q0 -27 -4 -55q-4 -35 -37 -35h-590q6 -103 87 -185q82 -82 186 -82t205 62q27 14 33 16t24 -12q6 -8 17 -23t21 -27t9 -24q0 -10 -21 -26q-119 -94 -300 -94z" />
    <glyph glyph-name="edieresis" unicode="&#xeb;" horiz-adv-x="935" 
d="M287 1198q-41 0 -69 28t-28 68t28 70q28 29 69 29t69 -29t29 -70q-1 -40 -29 -68t-69 -28zM683 1198q-40 0 -69 28q-28 28 -28 68t27 70q28 29 69 29t70 -29q28 -29 28 -70q0 -40 -28 -68t-69 -28zM482 715q-97 0 -170 -65t-83 -161h488q-4 90 -71 158t-164 68zM488 -20
q-182 0 -292 124t-110 305t111 306t281 125t276 -106q104 -106 104 -269q0 -27 -4 -55q-4 -35 -37 -35h-590q6 -103 87 -185q82 -82 186 -82t205 62q27 14 33 16t24 -12q6 -8 17 -23t21 -27t9 -24q0 -10 -21 -26q-119 -94 -300 -94z" />
    <glyph glyph-name="igrave" unicode="&#xec;" horiz-adv-x="432" 
d="M354 1145l-329 137q-29 10 -13 43l37 74q5 12 25 13t28 -7l308 -172q25 -12 12 -39l-21 -45q-10 -20 -47 -4zM145 39v741q-1 14 11 26t28 13h64q14 0 26 -12t13 -27v-741q-1 -15 -13 -27t-26 -12h-64q-16 0 -28 12t-11 27z" />
    <glyph glyph-name="iacute" unicode="&#xed;" horiz-adv-x="432" 
d="M33 1149l-21 45q-12 27 13 39l307 172q8 8 27 7t26 -13l37 -74q16 -33 -12 -43l-330 -137q-37 -16 -47 4zM145 39v741q-1 14 11 26t28 13h64q14 0 26 -12t13 -27v-741q-1 -15 -13 -27t-26 -12h-64q-16 0 -28 12t-11 27z" />
    <glyph glyph-name="icircumflex" unicode="&#xee;" horiz-adv-x="432" 
d="M219 1413q16 0 27 -8l246 -193q27 -18 12 -38q-4 -4 -11 -16q-23 -41 -43 -39q-9 1 -22 9l-209 144l-209 -139q-31 -21 -47 4l-29 37q-14 20 13 38l246 193q10 8 26 8zM145 39v741q-1 14 11 26t28 13h64q14 0 26 -12t13 -27v-741q-1 -15 -13 -27t-26 -12h-64
q-16 0 -28 12t-11 27z" />
    <glyph glyph-name="idieresis" unicode="&#xef;" horiz-adv-x="432" 
d="M117 1294q0 -40 -29 -68t-69 -28q-41 0 -69 28t-28 68t28 70q28 29 68 29t70 -29q29 -29 29 -70zM414 1198q-41 0 -69 28t-28 68t28 70q28 29 69 29q42 0 70 -29t28 -70q0 -40 -28 -68t-70 -28zM145 39v741q-1 14 11 26t28 13h64q14 0 26 -12t13 -27v-741q-1 -15 -13 -27
t-26 -12h-64q-16 0 -28 12t-11 27z" />
    <glyph glyph-name="eth" unicode="&#xf0;" horiz-adv-x="1114" 
d="M229 440q0 -133 89 -229t204 -96t189 51t106 128q79 185 45 333q-14 14 -42 37q-28 24 -112 60t-169 36q-129 0 -220 -93q-90 -94 -90 -227zM84 450q0 198 130 320t310 123q78 0 156 -23t117 -47l39 -22q-49 184 -263 352l-198 -115q-13 -8 -29 -3t-22 18l-9 14
q-20 33 13 51l164 94q-117 74 -203 109q-35 14 -17 49l27 55q10 25 41 15q150 -57 283 -152l143 82q35 20 53 -14l8 -15q18 -29 -14 -51l-111 -63q311 -272 312 -664q0 -260 -120 -422t-357 -161q-197 0 -325 136t-128 334z" />
    <glyph glyph-name="ntilde" unicode="&#xf1;" horiz-adv-x="1013" 
d="M627 1147q-49 0 -93 39t-77 77q-33 37 -57 37t-44 -18t-27 -36t-18 -48q-12 -40 -51 -20l-37 18q-23 12 -8 45q0 2 16 39t54 85q39 48 116 48q78 0 171 -114q32 -38 57 -37q61 0 92 104q10 33 47 16l33 -16q20 -10 8 -53q-57 -166 -182 -166zM145 39v741q-1 14 11 26
t28 13h39q27 0 33 -24l18 -64q40 40 126 75q86 34 161 34q317 0 318 -369v-432q1 -15 -11 -27t-28 -12h-66q-16 0 -28 12q-11 12 -11 27v432q0 115 -48 173t-126 58q-79 0 -145 -30t-97 -58l-32 -28v-547q-1 -15 -13 -27t-26 -12h-64q-16 0 -28 12t-11 27z" />
    <glyph glyph-name="ograve" unicode="&#xf2;" 
d="M631 1145l-330 137q-29 10 -12 43l37 74q6 12 25 13t28 -7l307 -172q25 -12 12 -39l-20 -45q-10 -20 -47 -4zM494 113q114 0 190 87t76 210q0 122 -77 208t-189 86t-190 -85q-77 -86 -77 -209t77 -210t190 -87zM494 840q170 0 288 -127t119 -303q0 -176 -119 -304
q-118 -128 -288 -126q-170 0 -289 127t-119 303t119 303t289 127z" />
    <glyph glyph-name="oacute" unicode="&#xf3;" 
d="M309 1149l-20 45q-12 27 12 39l307 172q8 8 28 7t26 -13l36 -74q16 -33 -12 -43l-330 -137q-37 -16 -47 4zM494 113q114 0 190 87t76 210q0 122 -77 208t-189 86t-190 -85q-77 -86 -77 -209t77 -210t190 -87zM494 840q170 0 288 -127t119 -303q0 -176 -119 -304
q-118 -128 -288 -126q-170 0 -289 127t-119 303t119 303t289 127z" />
    <glyph glyph-name="ocircumflex" unicode="&#xf4;" 
d="M494 1413q16 0 26 -8l246 -193q27 -18 12 -38q-4 -4 -11 -16q-23 -41 -43 -39q-9 1 -22 9l-208 144l-209 -139q-31 -21 -47 4l-29 37q-14 20 12 38l246 193q11 8 27 8zM494 113q114 0 190 87t76 210q0 122 -77 208t-189 86t-190 -85q-77 -86 -77 -209t77 -210t190 -87z
M494 840q170 0 288 -127t119 -303q0 -176 -119 -304q-118 -128 -288 -126q-170 0 -289 127t-119 303t119 303t289 127z" />
    <glyph glyph-name="otilde" unicode="&#xf5;" 
d="M390 1413q46 0 88 -38t74 -76t56 -37q61 0 92 104q10 33 48 16l32 -16q20 -10 8 -53q-57 -166 -182 -166q-49 0 -93 39t-77 77q-32 37 -56 37t-44 -18t-28 -36t-18 -52q-11 -36 -50 -16l-37 18q-23 12 -8 45q0 2 16 41t54 85t125 46zM494 113q114 0 190 87t76 210
q0 122 -77 208t-189 86t-190 -85q-77 -86 -77 -209t77 -210t190 -87zM494 840q170 0 288 -127t119 -303q0 -176 -119 -304q-118 -128 -288 -126q-170 0 -289 127t-119 303t119 303t289 127z" />
    <glyph glyph-name="odieresis" unicode="&#xf6;" 
d="M391 1294q-1 -40 -29 -68t-68 -28t-69 28t-29 68t28 70q28 29 69 29t69 -29t29 -70zM688 1198q-40 0 -68 28t-28 68t28 70q28 29 68 29t70 -29q28 -29 28 -70q0 -40 -28 -68t-70 -28zM494 113q114 0 190 87t76 210q0 122 -77 208t-189 86t-190 -85q-77 -86 -77 -209
t77 -210t190 -87zM494 840q170 0 288 -127t119 -303q0 -176 -119 -304q-118 -128 -288 -126q-170 0 -289 127t-119 303t119 303t289 127z" />
    <glyph glyph-name="divide" unicode="&#xf7;" horiz-adv-x="1101" 
d="M428 351q0 48 35 82t83 34t82 -34t34 -82t-34 -83t-82 -35t-83 35t-35 83zM162 643q-14 0 -27 12q-12 12 -12 27v57q0 15 12 27t27 12h780q14 0 26 -11t11 -28v-57q0 -16 -11 -28t-26 -11h-780zM662 1084q0 -48 -34 -82t-82 -35q-48 1 -83 35t-35 82t35 82t83 34t82 -34
t34 -82z" />
    <glyph glyph-name="oslash" unicode="&#xf8;" horiz-adv-x="983" 
d="M502 113q102 0 180 88q76 88 76 213q0 86 -41 155l-389 -395q72 -61 174 -61zM229 426q0 -108 41 -180l389 395q-70 63 -174 63t-180 -84q-76 -86 -76 -194zM88 426q0 162 118 288t278 126t272 -103l43 43q29 29 55 0q40 -40 10 -63l-47 -47q82 -115 82 -256
q0 -178 -118 -306q-119 -128 -279 -128t-271 98l-28 -29q-30 -32 -64 10q-29 27 -2 54l33 32q-82 119 -82 281z" />
    <glyph glyph-name="ugrave" unicode="&#xf9;" horiz-adv-x="993" 
d="M645 1145l-330 137q-29 10 -12 43l37 74q6 12 26 13t27 -7l307 -172q25 -12 13 -39l-21 -45q-10 -20 -47 -4zM135 350v430q0 14 12 26t27 13h66q14 0 26 -12t13 -27v-432q0 -115 48 -173t127 -58q79 1 139 29t87 59l27 28v547q0 14 11 26t27 13h64q15 0 27 -12t12 -27
v-741q0 -15 -12 -27t-27 -12h-39q-27 0 -37 35l-14 53q-108 -108 -266 -108q-318 -1 -318 370z" />
    <glyph glyph-name="uacute" unicode="&#xfa;" horiz-adv-x="993" 
d="M322 1149l-21 45q-12 27 12 39l308 172q8 8 27 7t26 -13l37 -74q16 -33 -13 -43l-329 -137q-37 -16 -47 4zM135 350v430q0 14 12 26t27 13h66q14 0 26 -12t13 -27v-432q0 -115 48 -173t127 -58q79 1 139 29t87 59l27 28v547q0 14 11 26t27 13h64q15 0 27 -12t12 -27v-741
q0 -15 -12 -27t-27 -12h-39q-27 0 -37 35l-14 53q-108 -108 -266 -108q-318 -1 -318 370z" />
    <glyph glyph-name="ucircumflex" unicode="&#xfb;" horiz-adv-x="993" 
d="M504 1413q16 0 26 -8l246 -193q27 -18 12 -38q-4 -4 -11 -16q-23 -41 -43 -39q-9 1 -21 9l-209 144l-209 -139q-31 -21 -47 4l-29 37q-14 20 12 38l246 193q11 8 27 8zM135 350v430q0 14 12 26t27 13h66q14 0 26 -12t13 -27v-432q0 -115 48 -173t127 -58q79 1 139 29
t87 59l27 28v547q0 14 11 26t27 13h64q15 0 27 -12t12 -27v-741q0 -15 -12 -27t-27 -12h-39q-27 0 -37 35l-14 53q-108 -108 -266 -108q-318 -1 -318 370z" />
    <glyph glyph-name="udieresis" unicode="&#xfc;" horiz-adv-x="993" 
d="M299 1198q-41 0 -69 28t-28 68t28 70q28 29 69 29t70 -29t29 -70q0 -40 -30 -68q-28 -28 -69 -28zM793 1294q0 -40 -29 -68t-69 -28q-41 0 -69 28t-28 68t28 70q28 29 68 29t70 -29q29 -29 29 -70zM135 350v430q0 14 12 26t27 13h66q14 0 26 -12t13 -27v-432
q0 -115 48 -173t127 -58q79 1 139 29t87 59l27 28v547q0 14 11 26t27 13h64q15 0 27 -12t12 -27v-741q0 -15 -12 -27t-27 -12h-39q-27 0 -37 35l-14 53q-108 -108 -266 -108q-318 -1 -318 370z" />
    <glyph glyph-name="yacute" unicode="&#xfd;" horiz-adv-x="954" 
d="M303 1149l-20 45q-12 27 12 39l307 172q8 8 28 7t25 -13l37 -74q16 -33 -12 -43l-330 -137q-37 -16 -47 4zM59 819h91q23 0 34 -22l303 -627h2l287 627q10 23 35 22h78q23 0 32 -13t-1 -34l-629 -1362q-12 -25 -35 -24h-76q-23 0 -33 14t0 37l263 565l-381 772
q-10 20 -1 32t31 13z" />
    <glyph glyph-name="thorn" unicode="&#xfe;" 
d="M758 412q0 127 -67 213t-191 86q-60 0 -112 -26t-75 -50l-22 -25v-422q87 -72 201 -72t190 85q76 84 76 211zM289 -575q0 -15 -11 -27t-28 -12h-64q-14 0 -26 12t-13 27v1970q1 14 13 26t26 13h64q16 0 28 -12t11 -27v-633q29 29 94 54q65 24 131 24q172 0 280 -125
t108 -306t-114 -305q-113 -124 -280 -124q-58 0 -114 16t-81 33l-24 18v-622z" />
    <glyph glyph-name="ydieresis" unicode="&#xff;" horiz-adv-x="954" 
d="M387 1294q-1 -40 -29 -68t-68 -28t-69 28t-29 68t28 70q28 29 69 29t69 -29t29 -70zM684 1198q-41 0 -69 28q-27 28 -27 68t27 70q28 29 69 29t70 -29q28 -29 28 -70q0 -40 -28 -68t-70 -28zM59 819h91q23 0 34 -22l303 -627h2l287 627q10 23 35 22h78q23 0 32 -13
t-1 -34l-629 -1362q-12 -25 -35 -24h-76q-23 0 -33 14t0 37l263 565l-381 772q-10 20 -1 32t31 13z" />
    <glyph glyph-name="Amacron" unicode="&#x100;" horiz-adv-x="1357" 
d="M979 1718q0 -35 -39 -37h-524q-16 1 -28 11t-11 26v43q0 39 39 39h524q39 0 39 -39v-43zM985 487l-299 672h-16l-299 -672h614zM47 0q-23 0 -34 16t-1 37l623 1379q12 23 35 22h20q23 0 35 -22l618 -1379q10 -21 -1 -37t-33 -16h-82q-27 0 -35 23l-152 337h-727
l-149 -337q-8 -23 -35 -23h-82z" />
    <glyph glyph-name="amacron" unicode="&#x101;" horiz-adv-x="858" 
d="M158 1194q-39 0 -39 37v43q0 39 39 39h524q39 0 39 -39v-43q0 -17 -11 -27t-28 -10h-524zM428 412q-102 0 -156 -43t-55 -113q0 -70 39 -112q40 -42 108 -42t130 36t92 79v162q-56 33 -158 33zM86 248q0 120 87 196t241 76q91 0 151 -20l23 -6q2 123 -24 172t-109 49
q-129 0 -246 -45q-29 -12 -39 20l-16 51q-10 31 27 48t124 34q87 16 156 17q152 0 206 -79t54 -267v-455q0 -15 -12 -27t-27 -12h-39q-25 0 -35 31l-16 55q-106 -106 -254 -106q-108 0 -180 74t-72 194z" />
    <glyph glyph-name="Abreve" unicode="&#x102;" horiz-adv-x="1357" 
d="M677 1579q-105 0 -183 67t-93 166q-8 41 29 41h43q27 0 39 -34q16 -59 61 -95t103 -36t101 38t59 82q16 46 43 45h47q37 0 28 -41q-16 -100 -94 -166t-183 -67zM985 487l-299 672h-16l-299 -672h614zM47 0q-23 0 -34 16t-1 37l623 1379q12 23 35 22h20q23 0 35 -22
l618 -1379q10 -21 -1 -37t-33 -16h-82q-27 0 -35 23l-152 337h-727l-149 -337q-8 -23 -35 -23h-82z" />
    <glyph glyph-name="abreve" unicode="&#x103;" horiz-adv-x="858" 
d="M441 1087q-105 0 -183 67t-92 167q-8 41 29 41h43q27 0 38 -35q16 -59 62 -95t102 -36q57 0 102 38q44 38 59 83t42 45h47q37 0 29 -41q-17 -100 -95 -167t-183 -67zM428 412q-102 0 -156 -43t-55 -113q0 -70 39 -112q40 -42 108 -42t130 36t92 79v162q-56 33 -158 33z
M86 248q0 120 87 196t241 76q91 0 151 -20l23 -6q2 123 -24 172t-109 49q-129 0 -246 -45q-29 -12 -39 20l-16 51q-10 31 27 48t124 34q87 16 156 17q152 0 206 -79t54 -267v-455q0 -15 -12 -27t-27 -12h-39q-25 0 -35 31l-16 55q-106 -106 -254 -106q-108 0 -180 74
t-72 194z" />
    <glyph glyph-name="Aogonek" unicode="&#x104;" horiz-adv-x="1357" 
d="M371 487h614l-299 672h-16zM47 0q-23 0 -34 16t-1 37l623 1379q12 23 35 22h20q23 0 35 -22l618 -1379q10 -21 -1 -37t-33 -16h-27q-96 -90 -96 -203q0 -49 35 -83q69 -67 194 -1q13 6 25 -2t12 -26v-52q0 -18 -29 -34q-61 -31 -148 -31t-150 53q-62 53 -62 156
q0 137 131 239l-154 344h-727l-149 -337q-8 -23 -35 -23h-82z" />
    <glyph glyph-name="aogonek" unicode="&#x105;" horiz-adv-x="860" 
d="M428 412q-102 0 -156 -43t-55 -113q0 -70 39 -112q40 -42 108 -42t130 36t92 79v162q-56 33 -158 33zM86 248q0 120 87 196t241 76q91 0 151 -20l23 -6q2 121 -26 174t-116 53t-235 -49q-31 -10 -43 28l-14 41q-8 31 22 45q106 53 289 54q134 0 202 -71q54 -58 54 -253
v-477q0 -31 -31 -39q-98 -86 -98 -203q0 -49 35 -83q69 -67 194 -1q13 6 25 -2t12 -26v-52q0 -18 -29 -34q-61 -31 -148 -31t-150 53q-62 53 -62 139t36 148q36 61 70 88l35 27l-18 63q-106 -106 -254 -106q-108 0 -180 74t-72 194z" />
    <glyph glyph-name="Cacute" unicode="&#x106;" horiz-adv-x="1447" 
d="M678 1604l-21 45q-12 27 13 39l307 172q7 8 27 7t26 -14l37 -73q16 -33 -12 -43l-330 -138q-37 -15 -47 5zM104 715q0 307 216 523t524 216q272 0 495 -190q29 -31 2 -58l-55 -55q-23 -29 -53 2q-179 154 -405 154t-392 -174t-166 -415t166 -415t406 -174q153 0 278 75
q45 28 113 79q27 20 49 6l61 -56q11 -10 11 -26t-13 -29q-205 -198 -505 -198t-516 214t-216 521z" />
    <glyph glyph-name="cacute" unicode="&#x107;" horiz-adv-x="903" 
d="M322 1149l-21 45q-12 27 12 39l308 172q8 8 27 7t26 -13l37 -74q16 -33 -13 -43l-329 -137q-37 -16 -47 4zM504 -20q-172 0 -296 123t-124 303t126 307t301 127t288 -144q25 -33 -8 -57l-39 -33q-26 -26 -60 8q-76 86 -190 86t-192 -84q-79 -84 -79 -206t78 -209
q78 -86 193 -86q56 0 82 11t40 16q14 4 29 18q17 14 23 19t22 21l21 21q29 29 61 4l23 -16q35 -25 14 -57q-49 -78 -131 -125t-182 -47z" />
    <glyph glyph-name="Ccircumflex" unicode="&#x108;" horiz-adv-x="1447" 
d="M586 1587l-29 37q-14 20 12 39l246 192q11 9 27 9t26 -9l246 -192q27 -18 12 -39q-4 -4 -11 -16t-18 -26q-17 -23 -46 -3l-209 143l-209 -139q-31 -21 -47 4zM104 715q0 307 216 523t524 216q272 0 495 -190q29 -31 2 -58l-55 -55q-23 -29 -53 2q-179 154 -405 154
t-392 -174t-166 -415t166 -415t406 -174q153 0 278 75q45 28 113 79q27 20 49 6l61 -56q11 -10 11 -26t-13 -29q-205 -198 -505 -198t-516 214t-216 521z" />
    <glyph glyph-name="ccircumflex" unicode="&#x109;" horiz-adv-x="903" 
d="M502 1413q16 0 26 -8l246 -193q27 -18 12 -38q-4 -4 -11 -16q-23 -41 -43 -39q-9 1 -21 9l-209 144l-209 -139q-31 -21 -47 4l-29 37q-14 20 12 38l246 193q11 8 27 8zM504 -20q-172 0 -296 123t-124 303t126 307t301 127t288 -144q25 -33 -8 -57l-39 -33q-26 -26 -60 8
q-76 86 -190 86t-192 -84q-79 -84 -79 -206t78 -209q78 -86 193 -86q56 0 82 11t40 16q14 4 29 18q17 14 23 19t22 21l21 21q29 29 61 4l23 -16q35 -25 14 -57q-49 -78 -131 -125t-182 -47z" />
    <glyph glyph-name="Cdotaccent" unicode="&#x10a;" horiz-adv-x="1447" 
d="M843 1630q-48 0 -83 35t-35 83t35 82t83 34t82 -34q33 -34 33 -82t-34 -83t-81 -35zM104 715q0 307 216 523t524 216q272 0 495 -190q29 -31 2 -58l-55 -55q-23 -29 -53 2q-179 154 -405 154t-392 -174t-166 -415t166 -415t406 -174q153 0 278 75q45 28 113 79
q27 20 49 6l61 -56q11 -10 11 -26t-13 -29q-205 -198 -505 -198t-516 214t-216 521z" />
    <glyph glyph-name="cdotaccent" unicode="&#x10b;" horiz-adv-x="903" 
d="M503 1159q-48 0 -83 35t-35 83t35 82t83 34t82 -34q33 -34 33 -82t-34 -83t-81 -35zM504 -20q-172 0 -296 123t-124 303t126 307t301 127t288 -144q25 -33 -8 -57l-39 -33q-26 -26 -60 8q-76 86 -190 86t-192 -84q-79 -84 -79 -206t78 -209q78 -86 193 -86q56 0 82 11
t40 16q14 4 29 18q17 14 23 19t22 21l21 21q29 29 61 4l23 -16q35 -25 14 -57q-49 -78 -131 -125t-182 -47z" />
    <glyph glyph-name="Ccaron" unicode="&#x10c;" horiz-adv-x="1447" 
d="M842 1573q-16 0 -27 8l-246 193q-27 18 -12 38l29 37q16 25 47 4l209 -139l209 144q31 20 47 -5l28 -41q4 -6 4 -12t-3 -14t-40 -33l-219 -172q-10 -8 -26 -8zM104 715q0 307 216 523t524 216q272 0 495 -190q29 -31 2 -58l-55 -55q-23 -29 -53 2q-179 154 -405 154
t-392 -174t-166 -415t166 -415t406 -174q153 0 278 75q45 28 113 79q27 20 49 6l61 -56q11 -10 11 -26t-13 -29q-205 -198 -505 -198t-516 214t-216 521z" />
    <glyph glyph-name="ccaron" unicode="&#x10d;" horiz-adv-x="903" 
d="M502 1110q-16 0 -27 8l-246 193q-27 18 -12 39l29 36q16 25 47 5l209 -140l209 144q31 20 47 -4l28 -41q16 -24 -17 -44q-13 -8 -21 -16l-220 -172q-10 -8 -26 -8zM504 -20q-172 0 -296 123t-124 303t126 307t301 127t288 -144q25 -33 -8 -57l-39 -33q-26 -26 -60 8
q-76 86 -190 86t-192 -84q-79 -84 -79 -206t78 -209q78 -86 193 -86q56 0 82 11t40 16q14 4 29 18q17 14 23 19t22 21l21 21q29 29 61 4l23 -16q35 -25 14 -57q-49 -78 -131 -125t-182 -47z" />
    <glyph glyph-name="Dcaron" unicode="&#x10e;" horiz-adv-x="1529" 
d="M698 1573q-16 0 -26 8l-246 193q-27 18 -12 38l28 37q16 25 47 4l209 -139l209 144q31 20 47 -5l29 -41q4 -6 4 -12t-3 -14q-3 -9 -21 -20q-17 -11 -19 -13l-219 -172q-11 -8 -27 -8zM365 141h307q252 0 416 163t163 415q0 252 -164 414t-415 161h-307v-1153zM209 39
v1356q0 16 11 27t26 12h459q297 0 507 -210t211 -506q0 -296 -211 -507t-507 -211h-459q-14 0 -26 11q-11 12 -11 28z" />
    <glyph glyph-name="dcaron" unicode="&#x10f;" horiz-adv-x="1048" 
d="M1150 1223q-32 1 -67 35t-35 82t35 82t82 34q135 0 135 -184q0 -115 -54 -217t-118 -162q-29 -24 -49 -4l-28 29q-20 20 12 49q127 115 127 258q-8 -2 -40 -2zM490 702q-120 0 -191 -82q-70 -82 -70 -208q0 -127 68 -215t163 -88t155 48q57 41 81 87v409q-86 49 -206 49z
M453 -20q-151 0 -259 127t-108 308t106 303t287 122q59 0 115 -14t80 -27l24 -13v609q0 14 12 26t27 13h64q14 0 26 -12t13 -27v-1356q0 -15 -12 -27t-27 -12h-43q-27 0 -35 33l-12 55q-108 -108 -258 -108z" />
    <glyph glyph-name="Dcroat" unicode="&#x110;" horiz-adv-x="1538" 
d="M373 141h307q252 0 416 163t164 415t-164 414t-416 161h-307v-538h432q15 0 27 -12t12 -27v-17q0 -16 -11 -26t-28 -10h-432v-523zM217 39v625h-59q-14 0 -26 11q-11 11 -11 27v15q0 16 11 27t26 12h59v639q0 16 11 27t26 12h459q297 0 508 -210t211 -506t-211 -507
t-508 -211h-459q-14 0 -26 11q-11 12 -11 28z" />
    <glyph glyph-name="dcroat" unicode="&#x111;" 
d="M490 702q-120 0 -191 -82q-70 -82 -70 -208q0 -127 68 -215t163 -88t155 48q57 41 81 87v409q-86 49 -206 49zM453 -20q-151 0 -259 127t-108 308t106 303t287 122q59 0 115 -14t80 -27l24 -13v312h-317q-39 0 -39 37v16q0 15 11 27t28 12h317v205q0 14 12 26t27 13h64
q14 0 26 -12t13 -27v-205h67q13 0 25 -11t12 -28v-14q0 -15 -11 -27t-26 -12h-67v-1059q0 -15 -12 -27t-27 -12h-43q-27 0 -35 33l-12 55q-108 -108 -258 -108z" />
    <glyph glyph-name="Emacron" unicode="&#x112;" horiz-adv-x="1212" 
d="M952 1718q0 -35 -39 -37h-524q-15 1 -27 11t-12 26v43q0 39 39 39h524q39 0 39 -39v-43zM209 39v1356q0 16 11 27t28 12h807q16 0 27 -12t12 -27v-60q0 -16 -12 -27t-27 -12h-688v-499h587q16 1 28 -11t11 -28v-60q0 -16 -11 -27t-28 -12h-587v-522h688q16 0 27 -11
t12 -28v-59q0 -15 -12 -27t-27 -12h-807q-16 0 -28 11q-11 12 -11 28z" />
    <glyph glyph-name="emacron" unicode="&#x113;" horiz-adv-x="935" 
d="M221 1194q-37 0 -39 37v43q0 39 39 39h524q39 0 39 -39v-43q0 -17 -11 -27t-28 -10h-524zM482 715q-97 0 -170 -65t-83 -161h488q-4 90 -71 158t-164 68zM488 -20q-182 0 -292 124t-110 305t111 306t281 125t276 -106q104 -106 104 -269q0 -27 -4 -55q-4 -35 -37 -35
h-590q6 -103 87 -185q82 -82 186 -82t205 62q27 14 33 16t24 -12q6 -8 17 -23t21 -27t9 -24q0 -10 -21 -26q-119 -94 -300 -94z" />
    <glyph glyph-name="Ebreve" unicode="&#x114;" horiz-adv-x="1212" 
d="M650 1579q-105 0 -183 67t-92 166q-8 41 28 41h43q27 0 39 -34q15 -59 61 -95t103 -36t102 37q44 37 59 83t42 45h47q37 0 29 -41q-16 -100 -94 -166t-184 -67zM209 39v1356q0 16 11 27t28 12h807q16 0 27 -12t12 -27v-60q0 -16 -12 -27t-27 -12h-688v-499h587
q16 1 28 -11t11 -28v-60q0 -16 -11 -27t-28 -12h-587v-522h688q16 0 27 -11t12 -28v-59q0 -15 -12 -27t-27 -12h-807q-16 0 -28 11q-11 12 -11 28z" />
    <glyph glyph-name="ebreve" unicode="&#x115;" horiz-adv-x="935" 
d="M484 1087q-105 0 -183 67t-92 167q-8 41 29 41h43q27 0 38 -35q15 -59 61 -95t103 -36t102 38q44 38 59 83t42 45h47q37 0 29 -41q-16 -100 -94 -167t-184 -67zM482 715q-97 0 -170 -65t-83 -161h488q-4 90 -71 158t-164 68zM488 -20q-182 0 -292 124t-110 305t111 306
t281 125t276 -106q104 -106 104 -269q0 -27 -4 -55q-4 -35 -37 -35h-590q6 -103 87 -185q82 -82 186 -82t205 62q27 14 33 16t24 -12q6 -8 17 -23t21 -27t9 -24q0 -10 -21 -26q-119 -94 -300 -94z" />
    <glyph glyph-name="Edotaccent" unicode="&#x116;" horiz-adv-x="1212" 
d="M656 1630q-48 0 -83 35t-35 83t35 82t83 34t82 -34t34 -82t-34 -83t-82 -35zM209 39v1356q0 16 11 27t28 12h807q16 0 27 -12t12 -27v-60q0 -16 -12 -27t-27 -12h-688v-499h587q16 1 28 -11t11 -28v-60q0 -16 -11 -27t-28 -12h-587v-522h688q16 0 27 -11t12 -28v-59
q0 -15 -12 -27t-27 -12h-807q-16 0 -28 11q-11 12 -11 28z" />
    <glyph glyph-name="edotaccent" unicode="&#x117;" horiz-adv-x="935" 
d="M493 1393q47 0 81 -34t34 -82t-34 -83t-81 -35q-48 0 -83 35t-35 83t35 82t83 34zM482 715q-97 0 -170 -65t-83 -161h488q-4 90 -71 158t-164 68zM488 -20q-182 0 -292 124t-110 305t111 306t281 125t276 -106q104 -106 104 -269q0 -27 -4 -55q-4 -35 -37 -35h-590
q6 -103 87 -185q82 -82 186 -82t205 62q27 14 33 16t24 -12q6 -8 17 -23t21 -27t9 -24q0 -10 -21 -26q-119 -94 -300 -94z" />
    <glyph glyph-name="Eogonek" unicode="&#x118;" horiz-adv-x="1212" 
d="M209 39v1356q0 16 11 27t28 12h807q16 0 27 -12t12 -27v-60q0 -16 -12 -27t-27 -12h-688v-499h587q16 1 28 -11t11 -28v-60q0 -16 -11 -27t-28 -12h-587v-522h688q16 0 27 -11t12 -28v-51q0 -20 -31 -47q-98 -86 -98 -203q1 -49 35 -83q68 -67 194 -1q12 6 24 -2t13 -26
v-52q0 -18 -29 -34q-61 -31 -148 -31t-150 53q-62 53 -62 169t110 210h-704q-16 0 -28 11q-11 12 -11 28z" />
    <glyph glyph-name="eogonek" unicode="&#x119;" horiz-adv-x="940" 
d="M484 715q-97 0 -170 -65t-83 -161h488q-4 90 -71 158t-164 68zM342 -216q0 108 92 200q-158 18 -252 138t-94 294t111 299t281 125t276 -106q104 -106 104 -269q0 -27 -4 -55q-4 -35 -37 -35h-590q6 -103 87 -185q82 -82 186 -82t205 62q27 14 33 16t24 -12l35 -47
q12 -17 12 -27t-20 -26q-94 -76 -246 -92q-80 -84 -80 -185q0 -49 35 -83q69 -67 194 -1q12 6 24 -2t13 -26v-52q0 -18 -29 -34q-61 -31 -148 -31t-150 53q-62 55 -62 163z" />
    <glyph glyph-name="Ecaron" unicode="&#x11a;" horiz-adv-x="1212" 
d="M649 1573q-16 0 -26 8l-246 193q-27 18 -12 38l28 37q16 25 47 4l209 -139l209 144q31 20 47 -5l29 -41q4 -6 4 -12q0 -17 -19 -30t-24 -17l-219 -172q-11 -8 -27 -8zM209 39v1356q0 16 11 27t28 12h807q16 0 27 -12t12 -27v-60q0 -16 -12 -27t-27 -12h-688v-499h587
q16 1 28 -11t11 -28v-60q0 -16 -11 -27t-28 -12h-587v-522h688q16 0 27 -11t12 -28v-59q0 -15 -12 -27t-27 -12h-807q-16 0 -28 11q-11 12 -11 28z" />
    <glyph glyph-name="ecaron" unicode="&#x11b;" horiz-adv-x="935" 
d="M772 1338q0 -6 -2 -12q-5 -11 -19 -20q-15 -9 -22 -16l-219 -172q-10 -8 -26 -8t-27 8l-246 193q-27 18 -12 39l28 36q16 25 47 5l209 -140l209 144q31 20 47 -4l29 -41q4 -6 4 -12zM482 715q-97 0 -170 -65t-83 -161h488q-4 90 -71 158t-164 68zM488 -20
q-182 0 -292 124t-110 305t111 306t281 125t276 -106q104 -106 104 -269q0 -27 -4 -55q-4 -35 -37 -35h-590q6 -103 87 -185q82 -82 186 -82t205 62q27 14 33 16t24 -12q6 -8 17 -23t21 -27t9 -24q0 -10 -21 -26q-119 -94 -300 -94z" />
    <glyph glyph-name="Gcircumflex" unicode="&#x11c;" horiz-adv-x="1499" 
d="M586 1587l-29 37q-14 20 12 39l246 192q11 9 27 9t26 -9l246 -192q27 -18 12 -39q-4 -4 -11 -16t-18 -26q-17 -23 -46 -3l-209 143l-209 -139q-31 -21 -47 4zM975 504q-39 0 -39 37v75q0 39 39 39h354q13 0 25 -11t12 -28v-469q0 -20 -16 -32q-23 -14 -66 -37t-176 -61
t-264 -37q-308 0 -524 214t-216 521t216 523t524 216q272 0 495 -190q29 -31 2 -58l-57 -57q-23 -25 -53 2q-82 72 -185 116t-204 44q-240 0 -405 -173t-165 -414t165 -417t405 -176q100 0 192 22t133 44l43 20v287h-235z" />
    <glyph glyph-name="gcircumflex" unicode="&#x11d;" horiz-adv-x="940" 
d="M510 1413q16 0 27 -8l245 -193q27 -18 13 -38q-3 -4 -11 -16q-24 -40 -44 -39q-9 1 -21 9l-209 144l-209 -139q-31 -21 -47 4l-29 37q-14 20 13 38l245 193q11 8 27 8zM240 -342q0 -64 70 -112t176 -48t190 54t84 141q0 23 -7 49t-45 54q-38 30 -104 30h-227
q-16 -4 -39 -13q-22 -9 -60 -51q-38 -40 -38 -104zM482 254q93 0 150 63q56 63 56 165t-56 166t-150 64t-153 -64q-61 -65 -61 -165q0 -101 60 -165t154 -64zM63 32q0 77 34 135t69 83l35 24q-66 84 -66 220t95 240q95 105 251 106h346q39 0 39 -39v-35q0 -31 -22 -35
l-111 -22q9 -7 25 -23t42 -76t25 -131q0 -145 -95 -247t-249 -101q-57 0 -106 12t-68 25l-20 14q-35 -14 -63 -50t-28 -75t30 -69t83 -29h295q135 0 221 -67q86 -66 86 -196t-121 -231q-122 -100 -309 -100t-287 85t-100 201t119 187v6q-55 14 -103 62t-47 126z" />
    <glyph glyph-name="Gbreve" unicode="&#x11e;" horiz-adv-x="1499" 
d="M843 1579q-105 0 -184 67q-78 67 -92 166q-8 41 29 41h43q27 0 39 -34q16 -59 61 -95t103 -36t101 38t59 82q16 46 42 45h48q37 0 28 -41q-16 -100 -94 -166t-183 -67zM975 504q-39 0 -39 37v75q0 39 39 39h354q13 0 25 -11t12 -28v-469q0 -20 -16 -32q-23 -14 -66 -37
t-176 -61t-264 -37q-308 0 -524 214t-216 521t216 523t524 216q272 0 495 -190q29 -31 2 -58l-57 -57q-23 -25 -53 2q-82 72 -185 116t-204 44q-240 0 -405 -173t-165 -414t165 -417t405 -176q100 0 192 22t133 44l43 20v287h-235z" />
    <glyph glyph-name="gbreve" unicode="&#x11f;" horiz-adv-x="940" 
d="M511 1087q-105 0 -183 67t-92 167q-8 41 28 41h43q27 0 39 -35q16 -59 62 -95t102 -36q57 0 101 38q43 38 59 83t43 45h47q37 0 28 -41q-16 -100 -94 -167t-183 -67zM240 -342q0 -64 70 -112t176 -48t190 54t84 141q0 23 -7 49t-45 54q-38 30 -104 30h-227
q-16 -4 -39 -13q-22 -9 -60 -51q-38 -40 -38 -104zM482 254q93 0 150 63q56 63 56 165t-56 166t-150 64t-153 -64q-61 -65 -61 -165q0 -101 60 -165t154 -64zM63 32q0 77 34 135t69 83l35 24q-66 84 -66 220t95 240q95 105 251 106h346q39 0 39 -39v-35q0 -31 -22 -35
l-111 -22q9 -7 25 -23t42 -76t25 -131q0 -145 -95 -247t-249 -101q-57 0 -106 12t-68 25l-20 14q-35 -14 -63 -50t-28 -75t30 -69t83 -29h295q135 0 221 -67q86 -66 86 -196t-121 -231q-122 -100 -309 -100t-287 85t-100 201t119 187v6q-55 14 -103 62t-47 126z" />
    <glyph glyph-name="Gdotaccent" unicode="&#x120;" horiz-adv-x="1499" 
d="M843 1630q-48 0 -83 35t-35 83t35 82t83 34t82 -34q33 -34 33 -82t-34 -83t-81 -35zM975 504q-39 0 -39 37v75q0 39 39 39h354q13 0 25 -11t12 -28v-469q0 -20 -16 -32q-23 -14 -66 -37t-176 -61t-264 -37q-308 0 -524 214t-216 521t216 523t524 216q272 0 495 -190
q29 -31 2 -58l-57 -57q-23 -25 -53 2q-82 72 -185 116t-204 44q-240 0 -405 -173t-165 -414t165 -417t405 -176q100 0 192 22t133 44l43 20v287h-235z" />
    <glyph glyph-name="gdotaccent" unicode="&#x121;" horiz-adv-x="940" 
d="M509 1159q-48 0 -83 35t-35 83t35 82t83 34t82 -34t34 -82t-34 -83t-82 -35zM240 -342q0 -64 70 -112t176 -48t190 54t84 141q0 23 -7 49t-45 54q-38 30 -104 30h-227q-16 -4 -39 -13q-22 -9 -60 -51q-38 -40 -38 -104zM482 254q93 0 150 63q56 63 56 165t-56 166
t-150 64t-153 -64q-61 -65 -61 -165q0 -101 60 -165t154 -64zM63 32q0 77 34 135t69 83l35 24q-66 84 -66 220t95 240q95 105 251 106h346q39 0 39 -39v-35q0 -31 -22 -35l-111 -22q9 -7 25 -23t42 -76t25 -131q0 -145 -95 -247t-249 -101q-57 0 -106 12t-68 25l-20 14
q-35 -14 -63 -50t-28 -75t30 -69t83 -29h295q135 0 221 -67q86 -66 86 -196t-121 -231q-122 -100 -309 -100t-287 85t-100 201t119 187v6q-55 14 -103 62t-47 126z" />
    <glyph glyph-name="Gcommaaccent" unicode="&#x122;" horiz-adv-x="1499" 
d="M838 -188q135 0 135 -185q0 -115 -54 -217t-118 -162q-29 -25 -49 -4l-29 29q-20 20 12 49q127 115 127 258q-8 -2 -24 -2q-47 0 -82 35t-35 83t35 82t82 34zM975 504q-39 0 -39 37v75q0 39 39 39h354q13 0 25 -11t12 -28v-469q0 -20 -16 -32q-23 -14 -66 -37t-176 -61
t-264 -37q-308 0 -524 214t-216 521t216 523t524 216q272 0 495 -190q29 -31 2 -58l-57 -57q-23 -25 -53 2q-82 72 -185 116t-204 44q-240 0 -405 -173t-165 -414t165 -417t405 -176q100 0 192 22t133 44l43 20v287h-235z" />
    <glyph glyph-name="gcommaaccent" unicode="&#x123;" horiz-adv-x="940" 
d="M240 -342q0 -64 70 -112t176 -48t190 54t84 141q0 23 -7 49t-45 54q-38 30 -104 30h-227q-16 -4 -39 -13q-22 -9 -60 -51q-38 -40 -38 -104zM482 254q93 0 150 63q56 63 56 165t-56 166t-150 64t-153 -64q-61 -65 -61 -165q0 -101 60 -165t154 -64zM63 32q0 77 34 135
t69 83l35 24q-66 84 -66 220t95 240q95 105 251 106h346q39 0 39 -39v-35q0 -31 -22 -35l-111 -22q9 -7 25 -23t42 -76t25 -131q0 -145 -95 -247t-249 -101q-57 0 -106 12t-68 25l-20 14q-35 -14 -63 -50t-28 -75t30 -69t83 -29h295q135 0 221 -67q86 -66 86 -196t-121 -231
q-122 -100 -309 -100t-287 85t-100 201t119 187v6q-55 14 -103 62t-47 126zM528 1085q-135 0 -135 185q0 115 54 217t118 162q29 25 49 4l29 -29q20 -20 -12 -49q-127 -115 -127 -258q8 2 24 2q47 0 82 -35t35 -83t-35 -82t-82 -34z" />
    <glyph glyph-name="Hcircumflex" unicode="&#x124;" horiz-adv-x="1564" 
d="M530 1587l-28 37q-14 20 12 39l246 192q10 9 26 9t27 -9l246 -192q27 -18 12 -39q-4 -4 -11 -16q-23 -40 -43 -38q-9 1 -22 9l-209 143l-208 -139q-32 -21 -48 4zM209 39v1356q0 14 12 26t27 13h80q16 0 27 -12t12 -27v-598h831v598q0 16 11 27t28 12h80q14 0 26 -12
t13 -27v-1356q0 -15 -12 -27t-27 -12h-80q-16 0 -28 11q-11 11 -11 28v620h-831v-620q1 -15 -11 -27t-28 -12h-80q-14 0 -27 12q-12 13 -12 27z" />
    <glyph glyph-name="hcircumflex" unicode="&#x125;" horiz-adv-x="1015" 
d="M-39 1581l-29 37q-14 20 13 39l245 192q10 9 26 9t28 -9l245 -192q27 -18 13 -39q-4 -4 -12 -16t-18 -26q-17 -23 -46 -3l-209 143l-209 -139q-31 -21 -47 4zM147 39v1356q1 14 13 26t26 13h64q16 0 28 -12t11 -27v-664q42 42 122 76q79 33 152 33q154 0 236 -96t82 -273
v-432q-1 -15 -13 -27t-26 -12h-66q-14 0 -26 12t-13 27v432q0 115 -48 173t-127 58q-78 0 -144 -28t-99 -58l-30 -28v-549q0 -15 -11 -27t-28 -12h-64q-14 0 -26 12t-13 27z" />
    <glyph glyph-name="Hbar" unicode="&#x126;" horiz-adv-x="1564" 
d="M367 797h831v301h-831v-301zM209 39v1059h-45q-14 0 -26 11q-11 11 -11 28v14q0 15 11 27t26 12h45v205q0 14 12 26t27 13h80q16 0 27 -12t12 -27v-205h831v205q0 16 11 27t28 12h80q14 0 26 -12t13 -27v-205h43q16 0 27 -11t12 -28v-16q0 -17 -12 -27t-27 -10h-43v-1059
q0 -15 -12 -27t-27 -12h-80q-16 0 -28 11q-11 11 -11 28v620h-831v-620q1 -15 -11 -27t-28 -12h-80q-14 0 -27 12q-12 13 -12 27z" />
    <glyph glyph-name="hbar" unicode="&#x127;" horiz-adv-x="1015" 
d="M147 39v1059h-67q-14 0 -26 11q-11 11 -11 28v14q0 15 11 27t26 12h67v205q1 14 13 26t26 13h64q16 0 28 -12t11 -27v-205h317q16 0 28 -11t11 -28v-16q0 -17 -11 -27t-28 -10h-317v-367q42 42 122 76q79 33 152 33q317 0 318 -375v-426q-1 -15 -13 -27t-26 -12h-66
q-14 0 -26 12t-13 27v432q0 115 -48 173t-127 58q-78 0 -144 -28t-99 -58l-30 -28v-549q0 -15 -11 -27t-28 -12h-64q-14 0 -26 12t-13 27z" />
    <glyph glyph-name="Itilde" unicode="&#x128;" horiz-adv-x="577" 
d="M401 1712q61 0 93 105q10 33 47 16l32 -16q20 -10 9 -54q-57 -166 -183 -166q-49 0 -93 39t-77 77t-57 38t-43 -18q-19 -17 -27 -35t-18 -49q-12 -41 -51 -21l-37 19q-23 12 -8 45q0 2 12 30q42 101 106 128q31 14 77 14t88 -38t74 -76t56 -38zM209 39v1356q0 14 12 26
t27 13h82q14 0 26 -12t13 -27v-1356q-1 -15 -13 -27t-26 -12h-82q-14 0 -27 12q-12 13 -12 27z" />
    <glyph glyph-name="itilde" unicode="&#x129;" horiz-adv-x="432" 
d="M330 1147q-49 0 -93 39t-77 77q-33 37 -57 37t-44 -18t-27 -36t-18 -48q-12 -40 -51 -20l-37 18q-23 12 -8 45q0 2 16 39t54 85q39 48 116 48q78 0 171 -114q32 -38 57 -37q61 0 92 104q10 33 47 16l33 -16q20 -10 8 -53q-57 -166 -182 -166zM145 39v741q-1 14 11 26
t28 13h64q14 0 26 -12t13 -27v-741q-1 -15 -13 -27t-26 -12h-64q-16 0 -28 12t-11 27z" />
    <glyph glyph-name="Imacron" unicode="&#x12a;" horiz-adv-x="577" 
d="M592 1718q0 -35 -39 -37h-524q-15 1 -27 11t-12 26v43q0 39 39 39h524q39 0 39 -39v-43zM209 39v1356q0 14 12 26t27 13h82q14 0 26 -12t13 -27v-1356q-1 -15 -13 -27t-26 -12h-82q-14 0 -27 12q-12 13 -12 27z" />
    <glyph glyph-name="imacron" unicode="&#x12b;" horiz-adv-x="432" 
d="M-41 1194q-39 0 -39 37v43q0 39 39 39h524q39 0 39 -39v-43q0 -17 -11 -27t-28 -10h-524zM145 39v741q-1 14 11 26t28 13h64q14 0 26 -12t13 -27v-741q-1 -15 -13 -27t-26 -12h-64q-16 0 -28 12t-11 27z" />
    <glyph glyph-name="Ibreve" unicode="&#x12c;" horiz-adv-x="577" 
d="M290 1579q-105 0 -184 67q-78 67 -92 166q-8 41 29 41h43q27 0 39 -34q16 -59 61 -95q44 -36 102 -36t102 38t60 82q16 46 42 45h47q37 0 28 -41q-16 -100 -94 -166t-183 -67zM209 39v1356q0 14 12 26t27 13h82q14 0 26 -12t13 -27v-1356q-1 -15 -13 -27t-26 -12h-82
q-14 0 -27 12q-12 13 -12 27z" />
    <glyph glyph-name="ibreve" unicode="&#x12d;" horiz-adv-x="432" 
d="M220 1087q-105 0 -183 67t-92 167q-8 41 28 41h43q27 0 39 -35q15 -59 61 -95t103 -36t102 38q44 38 59 83t42 45h47q37 0 29 -41q-16 -100 -94 -167t-184 -67zM145 39v741q-1 14 11 26t28 13h64q14 0 26 -12t13 -27v-741q-1 -15 -13 -27t-26 -12h-64q-16 0 -28 12
t-11 27z" />
    <glyph glyph-name="Iogonek" unicode="&#x12e;" horiz-adv-x="577" 
d="M209 39v1356q0 14 12 26t27 13h82q14 0 26 -12t13 -27v-1356q-1 -15 -13 -27t-26 -12h-6q-96 -90 -97 -203q0 -49 35 -83q68 -66 195 -1q12 6 24 -2t13 -26v-52q0 -18 -29 -34q-61 -31 -148 -31t-150 53t-63 145q-1 147 121 240q-16 13 -16 33z" />
    <glyph glyph-name="iogonek" unicode="&#x12f;" horiz-adv-x="434" 
d="M147 39v741q1 14 13 26t26 13h64q16 0 28 -12t11 -27v-741q0 -15 -11 -27t-28 -12q-96 -90 -96 -203q0 -49 34 -83q68 -67 195 -1q13 6 25 -2t12 -26v-52q0 -18 -29 -34q-61 -31 -148 -31t-150 53q-62 53 -62 156q0 141 127 235q-11 11 -11 27zM216 1198q-40 0 -69 28
t-29 68t28 70q28 29 69 29t70 -29t29 -70q0 -40 -30 -68q-28 -28 -68 -28z" />
    <glyph glyph-name="Idotaccent" unicode="&#x130;" horiz-adv-x="577" 
d="M290 1630q-48 0 -83 35t-35 83t35 82t83 34t82 -34t34 -82t-34 -83t-82 -35zM209 39v1356q0 14 12 26t27 13h82q14 0 26 -12t13 -27v-1356q-1 -15 -13 -27t-26 -12h-82q-14 0 -27 12q-12 13 -12 27z" />
    <glyph glyph-name="dotlessi" unicode="&#x131;" horiz-adv-x="432" 
d="M145 39v741q-1 14 11 26t28 13h64q14 0 26 -12t13 -27v-741q-1 -15 -13 -27t-26 -12h-64q-16 0 -28 12t-11 27z" />
    <glyph glyph-name="IJ" unicode="&#x132;" horiz-adv-x="1431" 
d="M1126 1395q0 16 12 27t27 12h80q15 0 27 -12t12 -27v-967q0 -209 -114 -329t-300 -120t-309 152q-16 27 4 51l43 49q35 33 70 -6q96 -109 198 -109t177 79q74 78 73 229v971zM209 39v1356q0 14 12 26t27 13h82q14 0 26 -12t13 -27v-1356q-1 -15 -13 -27t-26 -12h-82
q-14 0 -27 12q-12 13 -12 27z" />
    <glyph glyph-name="ij" unicode="&#x133;" horiz-adv-x="919" 
d="M631 -287v1067q0 16 11 28t28 11h63q15 0 27 -11t12 -28v-1067q0 -170 -87 -259t-225 -89t-227 84q-25 20 -8 47l33 53q18 31 53 2q78 -59 152 -59t121 54t47 167zM700 1198q-40 0 -68 28t-28 68t28 70q28 29 68 29t70 -29q29 -29 29 -70q0 -40 -29 -68t-70 -28zM145 39
v741q-1 14 11 26t28 13h64q14 0 26 -12t13 -27v-741q-1 -15 -13 -27t-26 -12h-64q-16 0 -28 12t-11 27zM213 1198q-41 0 -69 28t-28 68t28 70q28 29 69 29t70 -29t29 -70q0 -40 -30 -68q-28 -28 -69 -28z" />
    <glyph glyph-name="Jcircumflex" unicode="&#x134;" horiz-adv-x="829" 
d="M346 1587l-29 37q-14 20 13 39l245 192q11 9 27 9t27 -9l245 -192q27 -18 13 -39q-4 -4 -11 -16q-11 -19 -26 -32t-39 3l-209 143l-209 -139q-31 -21 -47 4zM524 1395q0 16 12 27t27 12h80q15 0 27 -12t12 -27v-967q0 -209 -114 -329t-300 -120t-309 152q-16 27 4 51
l43 49q35 33 70 -6q96 -109 198 -109t177 79q74 78 73 229v971z" />
    <glyph glyph-name="jcircumflex" unicode="&#x135;" horiz-adv-x="436" 
d="M216 1413q16 0 28 -8l245 -193q27 -18 13 -38q-4 -4 -12 -16q-24 -40 -43 -39q-9 1 -21 9l-209 144l-209 -139q-31 -21 -47 4l-29 37q-14 20 13 38l245 193q10 8 26 8zM147 -287v1067q-1 16 11 28t28 11h64q16 0 28 -11t11 -28v-1067q0 -170 -87 -259q-88 -89 -226 -89
t-226 84q-25 20 -8 47l33 53q18 31 53 2q78 -59 152 -59t120 54q47 54 47 167z" />
    <glyph glyph-name="Kcommaaccent" unicode="&#x136;" horiz-adv-x="1265" 
d="M639 -188q135 0 135 -185q0 -115 -54 -217t-118 -162q-29 -25 -49 -4l-29 29q-20 20 13 49q127 115 127 258q-8 -2 -25 -2q-47 0 -82 35t-35 83t35 82t82 34zM209 49v1335q0 20 14 34t35 16h59q21 0 35 -14t15 -36v-579l639 608q16 20 38 21h101q29 0 38 -25t-14 -47
l-647 -604l678 -695q14 -11 5 -37t-40 -26h-104q-27 0 -37 14l-657 686v-651q-1 -21 -15 -35t-35 -14h-59q-20 0 -35 14q-14 15 -14 35z" />
    <glyph glyph-name="kcommaaccent" unicode="&#x137;" horiz-adv-x="915" 
d="M463 -188q135 0 135 -185q0 -115 -54 -217t-118 -162q-29 -25 -49 -4l-29 29q-20 20 12 49q127 115 127 258q-8 -2 -24 -2q-47 0 -82 35t-35 83t35 82t82 34zM145 39v1356q-1 14 11 26t28 13h64q14 0 26 -12t13 -27v-887l348 287q29 25 49 24h111q25 0 27 -20t-9 -31
l-389 -311l453 -406q14 -11 9 -31t-30 -20h-113q-18 0 -41 16l-415 396v-373q-1 -15 -13 -27t-26 -12h-64q-16 0 -28 12t-11 27z" />
    <glyph glyph-name="kgreenlandic" unicode="&#x138;" horiz-adv-x="919" 
d="M145 39v741q-1 14 11 26t28 13h64q14 0 26 -12t13 -27v-334l364 349q29 25 49 24h107q25 0 28 -20t-10 -31l-401 -362l453 -355q14 -11 9 -31t-30 -20h-113q-18 0 -41 16l-415 334v-311q-1 -15 -13 -27t-26 -12h-64q-16 0 -28 12t-11 27z" />
    <glyph glyph-name="Lacute" unicode="&#x139;" horiz-adv-x="1005" 
d="M104 1604l-20 45q-12 27 12 39l307 172q7 8 27 7t27 -14l37 -73q16 -33 -13 -43l-329 -138q-38 -15 -48 5zM209 39v1356q0 16 11 27t28 12h80q16 0 27 -12t12 -27v-1258h589q16 0 28 -11t11 -28v-59q0 -15 -11 -27t-28 -12h-708q-16 0 -28 11q-11 12 -11 28z" />
    <glyph glyph-name="lacute" unicode="&#x13a;" horiz-adv-x="436" 
d="M37 1593l-21 45q-12 27 13 39l307 172q8 7 28 7t25 -13l37 -74q16 -33 -12 -43l-330 -137q-37 -16 -47 4zM147 39v1356q1 14 13 26t26 13h64q16 0 28 -12t11 -27v-1356q0 -15 -11 -27t-28 -12h-64q-14 0 -26 12t-13 27z" />
    <glyph glyph-name="Lcommaaccent" unicode="&#x13b;" horiz-adv-x="1007" 
d="M602 -188q135 0 135 -185q0 -115 -54 -217t-118 -162q-29 -25 -49 -4l-29 29q-20 20 13 49q127 115 127 258q-8 -2 -25 -2q-47 0 -82 35t-35 83t35 82t82 34zM209 39v1356q0 16 11 27t28 12h80q16 0 27 -12t12 -27v-1258h589q16 0 28 -11t11 -28v-59q0 -15 -11 -27
t-28 -12h-708q-16 0 -28 11q-11 12 -11 28z" />
    <glyph glyph-name="lcommaaccent" unicode="&#x13c;" horiz-adv-x="434" 
d="M211 -188q135 0 135 -185q0 -115 -54 -217t-118 -162q-29 -25 -49 -4l-29 29q-20 20 13 49q127 115 127 258q-8 -2 -25 -2q-47 0 -82 35t-35 83t35 82t82 34zM143 39v1356q1 14 13 26t26 13h64q16 0 27 -12t12 -27v-1356q1 -15 -11 -27t-28 -12h-64q-14 0 -26 12t-13 27z
" />
    <glyph glyph-name="Lcaron" unicode="&#x13d;" horiz-adv-x="1005" 
d="M807 1454q135 0 135 -184q0 -115 -54 -217t-118 -162q-29 -25 -49 -4l-29 28q-20 20 13 50q127 115 126 258q-8 -2 -24 -2q-47 1 -82 35t-35 82t35 82t82 34zM209 39v1356q0 16 11 27t28 12h80q16 0 27 -12t12 -27v-1258h589q16 0 28 -11t11 -28v-59q0 -15 -11 -27
t-28 -12h-708q-16 0 -28 11q-11 12 -11 28z" />
    <glyph glyph-name="lcaron" unicode="&#x13e;" horiz-adv-x="497" 
d="M599 1223q-32 1 -67 35q-34 34 -34 82t34 82q35 34 82 34q135 0 136 -184q0 -115 -54 -217t-118 -162q-30 -24 -50 -4l-28 29q-20 20 12 49q127 115 127 258q-8 -2 -40 -2zM147 39v1356q1 14 13 26t26 13h64q16 0 28 -12t11 -27v-1356q0 -15 -11 -27t-28 -12h-64
q-14 0 -26 12t-13 27z" />
    <glyph glyph-name="Ldot" unicode="&#x13f;" horiz-adv-x="1175" 
d="M992 598q-48 0 -83 35t-35 83t35 82t83 34t82 -34t34 -82t-34 -83t-82 -35zM209 39v1356q0 16 11 27t28 12h80q16 0 27 -12t12 -27v-1258h589q16 0 28 -11t11 -28v-59q0 -15 -11 -27t-28 -12h-708q-16 0 -28 11q-11 12 -11 28z" />
    <glyph glyph-name="ldot" unicode="&#x140;" horiz-adv-x="667" 
d="M666 738q0 -48 -34 -82t-82 -35q-48 1 -83 35t-35 82t35 82t83 34t82 -34t34 -82zM147 39v1356q1 14 13 26t26 13h64q16 0 28 -12t11 -27v-1356q0 -15 -11 -27t-28 -12h-64q-14 0 -26 12t-13 27z" />
    <glyph glyph-name="Lslash" unicode="&#x141;" horiz-adv-x="1017" 
d="M221 39v598l-43 -25q-33 -20 -51 15l-8 16q-16 33 14 49l88 49v654q0 16 11 27t28 12h80q16 0 28 -12t11 -27v-561l227 131q35 20 53 -15l7 -12q18 -33 -15 -53l-272 -156v-592h590q16 0 27 -11t12 -28v-59q0 -15 -12 -27t-27 -12h-709q-16 0 -28 11q-11 12 -11 28z" />
    <glyph glyph-name="lslash" unicode="&#x142;" horiz-adv-x="487" 
d="M180 39v620l-104 -59q-31 -21 -61 30q-17 30 16 50l149 84v631q0 14 12 26t27 13h64q16 0 27 -12t12 -27v-549l182 106q36 20 59 -26q18 -33 -14 -54l-227 -131v-702q0 -15 -12 -27t-27 -12h-64q-15 0 -27 12t-12 27z" />
    <glyph glyph-name="Nacute" unicode="&#x143;" horiz-adv-x="1585" 
d="M633 1604l-21 45q-12 27 13 39l307 172q8 8 27 7t26 -14l37 -73q16 -33 -12 -43l-330 -138q-37 -15 -47 5zM209 39v1378q0 13 11 25t28 12h51l924 -1151h4v1092q0 16 11 27t28 12h71q15 0 27 -12t12 -27v-1379q0 -14 -11 -25t-28 -11h-37l-940 1173h-2v-1114
q0 -15 -11 -27t-28 -12h-71q-14 0 -27 12q-12 13 -12 27z" />
    <glyph glyph-name="nacute" unicode="&#x144;" horiz-adv-x="1013" 
d="M346 1149l-20 45q-12 27 12 39l307 172q7 8 27 7t26 -13l37 -74q16 -33 -12 -43l-330 -137q-37 -16 -47 4zM145 39v741q-1 14 11 26t28 13h39q27 0 33 -24l18 -64q40 40 126 75q86 34 161 34q317 0 318 -369v-432q1 -15 -11 -27t-28 -12h-66q-16 0 -28 12q-11 12 -11 27
v432q0 115 -48 173t-126 58q-79 0 -145 -30t-97 -58l-32 -28v-547q-1 -15 -13 -27t-26 -12h-64q-16 0 -28 12t-11 27z" />
    <glyph glyph-name="Ncommaaccent" unicode="&#x145;" horiz-adv-x="1585" 
d="M795 -188q135 0 135 -185q0 -115 -54 -217t-118 -162q-29 -25 -49 -4l-29 29q-20 20 12 49q127 115 127 258q-8 -2 -24 -2q-47 0 -82 35t-35 83t35 82t82 34zM209 39v1378q0 13 11 25t28 12h51l924 -1151h4v1092q0 16 11 27t28 12h71q15 0 27 -12t12 -27v-1379
q0 -14 -11 -25t-28 -11h-37l-940 1173h-2v-1114q0 -15 -11 -27t-28 -12h-71q-14 0 -27 12q-12 13 -12 27z" />
    <glyph glyph-name="ncommaaccent" unicode="&#x146;" horiz-adv-x="1017" 
d="M498 -188q135 0 135 -185q0 -115 -54 -217t-118 -162q-29 -25 -49 -4l-29 29q-20 20 12 49q127 115 127 258q-8 -2 -24 -2q-47 0 -82 35t-35 83t35 82t82 34zM147 39v741q1 14 13 26t26 13h39q27 0 33 -24l18 -64q40 40 126 75q86 34 161 34q317 0 318 -369v-432
q-1 -15 -13 -27t-26 -12h-66q-14 0 -26 12t-13 27v432q0 115 -48 173t-126 58q-79 0 -145 -30t-99 -58l-30 -28v-547q0 -15 -11 -27t-28 -12h-64q-14 0 -26 12t-13 27z" />
    <glyph glyph-name="Ncaron" unicode="&#x147;" horiz-adv-x="1585" 
d="M803 1573q-16 0 -27 8l-246 193q-27 18 -12 38l29 37q16 25 47 4l209 -139l209 144q31 20 47 -5l28 -41q12 -18 0 -29t-24 -19t-14 -11l-220 -172q-10 -8 -26 -8zM209 39v1378q0 13 11 25t28 12h51l924 -1151h4v1092q0 16 11 27t28 12h71q15 0 27 -12t12 -27v-1379
q0 -14 -11 -25t-28 -11h-37l-940 1173h-2v-1114q0 -15 -11 -27t-28 -12h-71q-14 0 -27 12q-12 13 -12 27z" />
    <glyph glyph-name="ncaron" unicode="&#x148;" horiz-adv-x="1013" 
d="M786 1308q-17 -9 -26 -18l-219 -172q-10 -8 -27 -8t-27 8l-245 193q-27 18 -13 39l29 36q16 25 47 5l209 -140l209 144q31 20 47 -4l29 -41q4 -6 4 -19q0 -14 -17 -23zM145 39v741q-1 14 11 26t28 13h39q27 0 33 -24l18 -64q40 40 126 75q86 34 161 34q317 0 318 -369
v-432q1 -15 -11 -27t-28 -12h-66q-16 0 -28 12q-11 12 -11 27v432q0 115 -48 173t-126 58q-79 0 -145 -30t-97 -58l-32 -28v-547q-1 -15 -13 -27t-26 -12h-64q-16 0 -28 12t-11 27z" />
    <glyph glyph-name="napostrophe" unicode="&#x149;" horiz-adv-x="1013" 
d="M-102 1454q135 0 135 -184q-1 -115 -55 -217t-117 -162q-29 -25 -49 -4l-29 28q-20 20 12 50q127 115 127 258q-8 -2 -24 -2q-47 1 -82 35t-35 82t35 82t82 34zM143 39v741q1 14 13 26t26 13h39q27 0 33 -24l18 -64q40 40 126 75q86 34 161 34q317 0 318 -369v-432
q-1 -15 -13 -27t-26 -12h-66q-14 0 -27 12q-12 12 -12 27v432q0 115 -48 173t-126 58q-79 0 -145 -30t-99 -58l-30 -28v-547q1 -15 -11 -27t-28 -12h-64q-14 0 -26 12t-13 27z" />
    <glyph glyph-name="Eng" unicode="&#x14a;" horiz-adv-x="1585" 
d="M209 39v1378q0 13 11 25t28 12h51l924 -1151h4v1092q0 16 11 27t28 12h71q15 0 27 -12t12 -27v-1682q0 -170 -87 -259t-225 -89t-226 84q-25 20 -9 47l33 53q18 31 53 2q78 -59 152 -59t118 54t44 167v350l-869 1090h-2v-1114q0 -15 -11 -27t-28 -12h-71q-14 0 -27 12
q-12 13 -12 27z" />
    <glyph glyph-name="eng" unicode="&#x14b;" horiz-adv-x="1015" 
d="M145 39v741q-1 14 11 26t28 13h39q27 0 33 -24l18 -64q40 40 126 75q86 34 161 34q317 0 318 -369v-758q0 -170 -87 -259q-88 -89 -226 -89t-226 84q-25 20 -8 47l33 53q18 31 53 2q78 -59 152 -59t119 54q46 54 46 167v758q0 115 -48 173t-126 58q-79 0 -145 -30
t-97 -58l-32 -28v-547q-1 -15 -13 -27t-26 -12h-64q-16 0 -28 12t-11 27z" />
    <glyph glyph-name="Omacron" unicode="&#x14c;" horiz-adv-x="1681" 
d="M1143 1718q0 -35 -39 -37h-524q-16 1 -28 11t-11 26v43q0 39 39 39h524q39 0 39 -39v-43zM248 715q0 -244 174 -418t418 -174t418 174t176 418q0 244 -176 420t-418 176q-244 0 -418 -176t-174 -420zM104 715q0 307 214 523t522 216t522 -216q215 -216 215 -523
t-215 -521t-522 -214t-522 214q-214 214 -214 521z" />
    <glyph glyph-name="omacron" unicode="&#x14d;" 
d="M233 1194q-16 0 -27 10t-11 27v43q0 39 38 39h525q39 0 39 -39v-43q1 -17 -11 -27t-28 -10h-525zM494 113q114 0 190 87t76 210q0 122 -77 208t-189 86t-190 -85q-77 -86 -77 -209t77 -210t190 -87zM494 840q170 0 288 -127t119 -303q0 -176 -119 -304
q-118 -128 -288 -126q-170 0 -289 127t-119 303t119 303t289 127z" />
    <glyph glyph-name="Obreve" unicode="&#x14e;" horiz-adv-x="1681" 
d="M841 1579q-105 0 -184 67q-78 67 -92 166q-8 41 29 41h43q27 0 39 -34q16 -59 61 -95t103 -36t101 38t59 82q16 46 42 45h48q37 0 28 -41q-16 -100 -94 -166t-183 -67zM248 715q0 -244 174 -418t418 -174t418 174t176 418q0 244 -176 420t-418 176q-244 0 -418 -176
t-174 -420zM104 715q0 307 214 523t522 216t522 -216q215 -216 215 -523t-215 -521t-522 -214t-522 214q-214 214 -214 521z" />
    <glyph glyph-name="obreve" unicode="&#x14f;" 
d="M493 1087q-105 0 -184 67q-78 67 -92 167q-8 41 29 41h43q27 0 39 -35q16 -59 61 -95t103 -36t101 38q44 38 59 83t42 45h47q37 0 29 -41q-16 -100 -94 -167t-183 -67zM494 113q114 0 190 87t76 210q0 122 -77 208t-189 86t-190 -85q-77 -86 -77 -209t77 -210t190 -87z
M494 840q170 0 288 -127t119 -303q0 -176 -119 -304q-118 -128 -288 -126q-170 0 -289 127t-119 303t119 303t289 127z" />
    <glyph glyph-name="Ohungarumlaut" unicode="&#x150;" horiz-adv-x="1681" 
d="M698 1575q-16 0 -29 12t-10 27l103 289q12 39 39 39h80q29 0 39 -16t-2 -36l-160 -284q-16 -31 -37 -31h-23zM1038 1575q-16 0 -29 12t-10 27l103 289q12 39 39 39h80q29 0 39 -16t-3 -36l-159 -284q-16 -31 -37 -31h-23zM248 715q0 -244 174 -418t418 -174t418 174
t176 418q0 244 -176 420t-418 176q-244 0 -418 -176t-174 -420zM104 715q0 307 214 523t522 216t522 -216q215 -216 215 -523t-215 -521t-522 -214t-522 214q-214 214 -214 521z" />
    <glyph glyph-name="ohungarumlaut" unicode="&#x151;" 
d="M340 1067q-16 0 -30 12q-13 12 -9 27l102 289q12 39 39 39h80q29 0 39 -16t-2 -36l-160 -284q-14 -31 -37 -31h-22zM680 1067q-16 0 -30 12q-13 12 -9 27l102 289q12 39 39 39h80q29 0 39 -16t-2 -36l-160 -284q-14 -31 -37 -31h-22zM494 113q114 0 190 87t76 210
q0 122 -77 208t-189 86t-190 -85q-77 -86 -77 -209t77 -210t190 -87zM494 840q170 0 288 -127t119 -303q0 -176 -119 -304q-118 -128 -288 -126q-170 0 -289 127t-119 303t119 303t289 127z" />
    <glyph glyph-name="OE" unicode="&#x152;" horiz-adv-x="1980" 
d="M248 715q0 -244 174 -418t418 -174q74 0 137 14v1155q-72 16 -137 17q-244 0 -418 -175t-174 -419zM104 715q0 307 214 523t522 216q92 0 151 -16l25 -4h807q16 0 27 -12t12 -27v-60q0 -16 -12 -27t-27 -12h-688v-499h587q14 1 26 -11t13 -28v-60q0 -16 -11 -27t-28 -12
h-587v-522h688q16 0 27 -11t12 -28v-59q0 -15 -12 -27t-27 -12h-807q-84 -20 -176 -20q-307 0 -522 214q-214 214 -214 521z" />
    <glyph glyph-name="oe" unicode="&#x153;" horiz-adv-x="1595" 
d="M489 705q-113 0 -189 -85t-75 -208q0 -123 77 -211q78 -88 188 -88t187 88t77 211t-76 208t-189 85zM893 487h485q-4 94 -70 158q-67 63 -165 63t-169 -62q-71 -63 -81 -159zM489 -20q-169 0 -287 128t-118 304t118 302t287 126q205 0 328 -176q117 176 330 176
q158 0 264 -104t107 -271q0 -27 -5 -55q-4 -35 -36 -35h-586q14 -105 93 -185t180 -80t200 60q27 14 33 16t24 -12q7 -8 27 -35t20 -38t-20 -27q-119 -94 -301 -94q-211 0 -330 176q-123 -176 -328 -176z" />
    <glyph glyph-name="Racute" unicode="&#x154;" horiz-adv-x="1353" 
d="M463 1604l-21 45q-12 27 13 39l307 172q8 8 28 7t25 -14l37 -73q16 -33 -12 -43l-330 -138q-37 -15 -47 5zM371 696h397q119 0 207 87t88 208t-88 207t-207 86h-397v-588zM209 39v1356q0 16 11 27t28 12h530q184 0 316 -127t131 -310q0 -139 -83 -251t-220 -166l280 -521
q12 -19 1 -39t-36 -20h-104q-23 0 -33 18l-272 543h-391v-522q1 -15 -11 -27t-28 -12h-80q-16 0 -28 11q-11 12 -11 28z" />
    <glyph glyph-name="racute" unicode="&#x155;" horiz-adv-x="684" 
d="M197 1149l-21 45q-12 27 12 39l308 172q8 8 27 7t26 -13l37 -74q16 -33 -13 -43l-329 -137q-37 -16 -47 4zM145 39v741q-1 14 11 26t28 13h39q29 0 35 -28l16 -60q4 4 19 23t73 51q58 33 154 35q167 0 144 -68l-25 -70q-12 -34 -49 -18q-38 16 -94 16t-111 -28t-78 -58
l-20 -28v-547q-1 -15 -13 -27t-26 -12h-64q-16 0 -28 12t-11 27z" />
    <glyph glyph-name="Rcommaaccent" unicode="&#x156;" horiz-adv-x="1351" 
d="M645 -188q135 0 135 -185q0 -115 -54 -217t-118 -162q-29 -25 -49 -4l-29 29q-20 20 13 49q127 115 127 258q-8 -2 -25 -2q-47 0 -82 35t-35 83t35 82t82 34zM371 696h397q119 0 207 87t88 208t-88 207t-207 86h-397v-588zM209 39v1356q0 16 11 27t28 12h530
q184 0 316 -127t131 -310q0 -139 -83 -251t-220 -166l280 -521q12 -19 1 -39t-36 -20h-104q-23 0 -33 18l-272 543h-391v-522q1 -15 -11 -27t-28 -12h-80q-16 0 -28 11q-11 12 -11 28z" />
    <glyph glyph-name="rcommaaccent" unicode="&#x157;" horiz-adv-x="684" 
d="M217 -188q135 0 135 -185q0 -115 -54 -217t-118 -162q-29 -25 -49 -4l-29 29q-20 20 13 49q127 115 127 258q-8 -2 -25 -2q-47 0 -82 35t-35 83t35 82t82 34zM145 39v741q-1 14 11 26t28 13h39q29 0 35 -28l16 -60q4 4 19 23t73 51q58 33 154 35q167 0 144 -68l-25 -70
q-12 -34 -49 -18q-38 16 -94 16t-111 -28t-78 -58l-20 -28v-547q-1 -15 -13 -27t-26 -12h-64q-16 0 -28 12t-11 27z" />
    <glyph glyph-name="Rcaron" unicode="&#x158;" horiz-adv-x="1353" 
d="M627 1573q-16 0 -27 8l-246 193q-27 18 -12 38l29 37q16 25 47 4l209 -139l209 144q31 20 47 -5l28 -41q4 -6 4 -12t-3 -14t-40 -33l-219 -172q-10 -8 -26 -8zM371 696h397q119 0 207 87t88 208t-88 207t-207 86h-397v-588zM209 39v1356q0 16 11 27t28 12h530
q184 0 316 -127t131 -310q0 -139 -83 -251t-220 -166l280 -521q12 -19 1 -39t-36 -20h-104q-23 0 -33 18l-272 543h-391v-522q1 -15 -11 -27t-28 -12h-80q-16 0 -28 11q-11 12 -11 28z" />
    <glyph glyph-name="rcaron" unicode="&#x159;" horiz-adv-x="684" 
d="M622 1308q-17 -9 -26 -18l-219 -172q-11 -8 -27 -8t-26 8l-246 193q-27 18 -12 39l28 36q16 25 47 5l209 -140l209 144q31 20 47 -4l29 -41q4 -6 4 -19q0 -14 -17 -23zM145 39v741q-1 14 11 26t28 13h39q29 0 35 -28l16 -60q4 4 19 23t73 51q58 33 154 35q167 0 144 -68
l-25 -70q-12 -34 -49 -18q-38 16 -94 16t-111 -28t-78 -58l-20 -28v-547q-1 -15 -13 -27t-26 -12h-64q-16 0 -28 12t-11 27z" />
    <glyph glyph-name="Sacute" unicode="&#x15a;" horiz-adv-x="1091" 
d="M395 1604l-20 45q-12 27 12 39l307 172q8 8 28 7t26 -14l36 -73q16 -33 -12 -43l-330 -138q-37 -15 -47 5zM840 345q0 97 -85 170t-274 151q-188 82 -274 171t-86 253q0 118 95 233q48 57 137 94t191 37t190 -27q87 -27 130 -51l43 -26q37 -16 13 -70q-19 -28 -25 -39
q-29 -43 -72 -18q-166 94 -268 94q-145 0 -214 -72q-69 -71 -69 -161t69 -157t208 -124q235 -97 345 -193t110 -258t-130 -267t-313 -105q-109 0 -214 40t-147 68q-42 30 -75 59t-8 68q18 18 30 39q37 49 72 18q182 -156 346 -155q121 -1 198 65t77 163z" />
    <glyph glyph-name="sacute" unicode="&#x15b;" horiz-adv-x="729" 
d="M209 1149l-21 45q-12 27 13 39l307 172q8 8 28 7t25 -13l37 -74q16 -33 -12 -43l-330 -137q-37 -16 -47 4zM373 100q61 0 97 28t36 74t-39 78t-124 74t-129 70q-44 29 -83 83t-39 126q0 71 66 139t198 68t224 -64q35 -23 12 -63l-17 -33q-23 -39 -59 -18q-88 49 -156 49
t-97 -25q-27 -26 -27 -58t24 -59t48 -39q22 -12 116 -59t143 -85q88 -69 88 -168t-80 -169q-80 -69 -215 -69t-254 92q-20 16 -13 32t19 37q11 20 13 25q18 29 55 6q88 -72 193 -72z" />
    <glyph glyph-name="Scircumflex" unicode="&#x15c;" horiz-adv-x="1091" 
d="M303 1587l-29 37q-14 20 13 39l245 192q10 9 26 9t28 -9l245 -192q27 -18 13 -39q-4 -4 -11 -16q-11 -19 -26 -32t-39 3l-209 143l-209 -139q-31 -21 -47 4zM840 345q0 97 -85 170t-274 151q-188 82 -274 171t-86 253q0 118 95 233q48 57 137 94t191 37t190 -27
q87 -27 130 -51l43 -26q37 -16 13 -70q-19 -28 -25 -39q-29 -43 -72 -18q-166 94 -268 94q-145 0 -214 -72q-69 -71 -69 -161t69 -157t208 -124q235 -97 345 -193t110 -258t-130 -267t-313 -105q-109 0 -214 40t-147 68q-42 30 -75 59t-8 68q18 18 30 39q37 49 72 18
q182 -156 346 -155q121 -1 198 65t77 163z" />
    <glyph glyph-name="scircumflex" unicode="&#x15d;" horiz-adv-x="729" 
d="M376 1413q16 0 27 -8l246 -193q27 -18 13 -38q-4 -4 -12 -16q-24 -40 -43 -39q-9 1 -21 9l-209 144l-209 -139q-31 -21 -47 4l-29 37q-14 20 12 38l246 193q10 8 26 8zM373 100q61 0 97 28t36 74t-39 78t-124 74t-129 70q-44 29 -83 83t-39 126q0 71 66 139t198 68
t224 -64q35 -23 12 -63l-17 -33q-23 -39 -59 -18q-88 49 -156 49t-97 -25q-27 -26 -27 -58t24 -59t48 -39q22 -12 116 -59t143 -85q88 -69 88 -168t-80 -169q-80 -69 -215 -69t-254 92q-20 16 -13 32t19 37q11 20 13 25q18 29 55 6q88 -72 193 -72z" />
    <glyph glyph-name="Scedilla" unicode="&#x15e;" horiz-adv-x="1093" 
d="M842 345q0 97 -85 170t-274 151q-188 82 -274 171t-86 253q0 118 95 233q48 57 137 94t191 37t190 -27q87 -27 130 -51l43 -26q37 -16 13 -70l-25 -39q-29 -43 -72 -18q-166 94 -268 94q-145 0 -214 -72q-69 -71 -69 -161t69 -157t208 -124q235 -97 345 -193t110 -254
t-119 -261t-291 -113v-91q96 -12 156 -68t59 -144q0 -87 -62 -149q-63 -62 -155 -62t-154 71q-29 33 0 53l29 23q29 20 47 0q35 -37 80 -37t70 27q24 27 24 69t-31 73q-31 30 -61 39t-78 17q-35 6 -35 41v142q-90 10 -194 56t-160 103q-37 31 -12 70l31 39q37 49 71 18
q182 -156 346 -155q121 -1 198 65t77 163z" />
    <glyph glyph-name="scedilla" unicode="&#x15f;" horiz-adv-x="733" 
d="M375 100q61 0 97 28t36 74t-39 78t-124 74t-129 70q-44 29 -83 83t-39 126q0 71 66 139t198 68t224 -64q35 -23 12 -63l-16 -33q-23 -39 -60 -18q-88 49 -156 49t-97 -25q-27 -26 -27 -58t24 -59t48 -39q22 -12 116 -59t143 -85q88 -69 88 -165q-1 -96 -71 -164t-180 -75
v-91q96 -12 155 -68t59 -144q0 -87 -62 -149t-154 -62t-154 71q-29 33 0 53l29 23q29 20 47 0q35 -37 80 -37q46 0 70 27t24 69t-31 73q-31 30 -61 39t-78 17q-35 6 -35 41v144q-104 16 -186 84q-19 16 -13 32t18 37q11 20 13 25q18 29 55 6q88 -72 193 -72z" />
    <glyph glyph-name="Scaron" unicode="&#x160;" horiz-adv-x="1091" 
d="M559 1573q-16 0 -27 8l-245 193q-27 18 -13 38l29 37q16 25 47 4l209 -139l209 144q31 20 47 -5l29 -41q4 -6 4 -12q0 -17 -19 -30t-24 -17l-219 -172q-11 -8 -27 -8zM840 345q0 97 -85 170t-274 151q-188 82 -274 171t-86 253q0 118 95 233q48 57 137 94t191 37t190 -27
q87 -27 130 -51l43 -26q37 -16 13 -70q-19 -28 -25 -39q-29 -43 -72 -18q-166 94 -268 94q-145 0 -214 -72q-69 -71 -69 -161t69 -157t208 -124q235 -97 345 -193t110 -258t-130 -267t-313 -105q-109 0 -214 40t-147 68q-42 30 -75 59t-8 68q18 18 30 39q37 49 72 18
q182 -156 346 -155q121 -1 198 65t77 163z" />
    <glyph glyph-name="scaron" unicode="&#x161;" horiz-adv-x="729" 
d="M655 1308q-17 -9 -26 -18l-219 -172q-10 -8 -27 -8t-27 8l-245 193q-27 18 -13 39l29 36q16 25 47 5l209 -140l209 144q31 20 47 -4l29 -41q4 -6 4 -19q0 -14 -17 -23zM373 100q61 0 97 28t36 74t-39 78t-124 74t-129 70q-44 29 -83 83t-39 126q0 71 66 139t198 68
t224 -64q35 -23 12 -63l-17 -33q-23 -39 -59 -18q-88 49 -156 49t-97 -25q-27 -26 -27 -58t24 -59t48 -39q22 -12 116 -59t143 -85q88 -69 88 -168t-80 -169q-80 -69 -215 -69t-254 92q-20 16 -13 32t19 37q11 20 13 25q18 29 55 6q88 -72 193 -72z" />
    <glyph glyph-name="Tcommaaccent" unicode="&#x162;" horiz-adv-x="978" 
d="M483 -188q135 0 135 -185q0 -115 -54 -217t-118 -162q-29 -25 -49 -4l-28 29q-20 20 12 49q127 115 127 258q-8 -2 -25 -2q-47 0 -82 35t-35 83t35 82t82 34zM412 39v1257h-357q-16 0 -27 12t-12 27v60q0 16 12 27t27 12h869q16 0 27 -12t12 -27v-60q1 -16 -11 -27
t-28 -12h-357v-1257q0 -15 -11 -27t-28 -12h-77q-16 0 -28 12q-11 13 -11 27z" />
    <glyph glyph-name="tcommaaccent" unicode="&#x163;" horiz-adv-x="702" 
d="M377 -188q135 0 135 -185q0 -115 -54 -217t-118 -162q-29 -25 -49 -4l-29 29q-20 20 12 49q127 115 127 258q-8 -2 -24 -2q-47 0 -82 35t-35 83t35 82t82 34zM199 205v491h-105q-16 0 -27 12t-12 27v45q0 39 39 39h105v228q0 14 11 26t28 12l65 5q13 0 25 -12t12 -27
v-232h238q39 0 38 -39v-45q0 -16 -11 -27t-27 -12h-238v-479q0 -59 15 -79t67 -19q52 0 135 45q31 16 49 -12l31 -52q17 -31 -15 -51t-102 -45t-133 -24q-113 0 -151 57t-37 168z" />
    <glyph glyph-name="Tcaron" unicode="&#x164;" horiz-adv-x="978" 
d="M487 1573q-16 0 -26 8l-246 193q-27 18 -12 38l28 37q16 25 48 4l208 -139l209 144q31 20 47 -5l29 -41q4 -6 4 -12t-3 -14t-21 -20q-17 -11 -19 -13l-219 -172q-11 -8 -27 -8zM412 39v1257h-357q-16 0 -27 12t-12 27v60q0 16 12 27t27 12h869q16 0 27 -12t12 -27v-60
q1 -16 -11 -27t-28 -12h-357v-1257q0 -15 -11 -27t-28 -12h-77q-16 0 -28 12q-11 13 -11 27z" />
    <glyph glyph-name="tcaron" unicode="&#x165;" horiz-adv-x="700" 
d="M848 1223q-47 1 -82 35t-35 82t35 82t82 34q135 0 135 -184q0 -115 -54 -217t-118 -162q-29 -24 -49 -4l-29 29q-20 20 12 49q127 115 127 258q-8 -2 -24 -2zM199 205v491h-105q-16 0 -27 12t-12 27v45q0 39 39 39h105v228q0 14 11 26t28 12l65 5q13 0 25 -12t12 -27
v-232h238q39 0 38 -39v-45q0 -16 -11 -27t-27 -12h-238v-479q0 -59 15 -79t67 -19q52 0 135 45q31 16 49 -12l31 -52q17 -31 -15 -51t-102 -45t-133 -24q-113 0 -151 57t-37 168z" />
    <glyph glyph-name="Tbar" unicode="&#x166;" horiz-adv-x="978" 
d="M412 39v565h-213q-14 0 -26 11q-11 11 -11 28v14q0 15 11 27t26 12h213v600h-357q-16 0 -27 12t-12 27v60q0 16 12 27t27 12h869q16 0 27 -12t12 -27v-60q1 -16 -11 -27t-28 -12h-357v-600h213q16 0 28 -11t11 -28v-16q0 -17 -11 -27t-28 -10h-213v-565q0 -15 -11 -27
t-28 -12h-77q-16 0 -28 12q-11 13 -11 27z" />
    <glyph glyph-name="tbar" unicode="&#x167;" horiz-adv-x="700" 
d="M571 391q0 -35 -39 -37h-192v-137q0 -59 15 -79t67 -19q52 0 135 45q31 16 49 -12l31 -52q17 -31 -15 -51t-102 -45t-133 -24q-113 0 -151 57t-37 168v149h-84q-13 0 -25 12t-12 27v15q0 16 11 27t26 11h84v250h-105q-16 0 -27 12t-12 27v45q0 39 39 39h105v228
q0 14 11 26t28 12l65 5q13 0 25 -12t12 -27v-232h238q39 0 38 -39v-45q0 -16 -11 -27t-27 -12h-238v-250h192q16 0 28 -11t11 -27v-17z" />
    <glyph glyph-name="Utilde" unicode="&#x168;" horiz-adv-x="1466" 
d="M854 1712q61 0 92 105q10 33 47 16l33 -16q20 -10 8 -54q-57 -166 -182 -166q-49 0 -93 39t-77 77q-32 38 -56 38t-44 -18q-20 -17 -28 -35t-18 -54q-12 -36 -51 -16l-36 19q-23 12 -9 45q0 2 12 30q45 102 107 128q31 14 77 14t88 -38t74 -76t56 -38zM190 528v867
q0 14 12 26t27 13h78q15 0 27 -12t12 -27v-854q0 -180 104 -298t282 -118q177 0 283 117q105 117 105 295v858q0 16 12 27t27 12h78q15 0 27 -12t12 -27v-867q0 -236 -153 -392t-391 -156t-390 156t-152 392z" />
    <glyph glyph-name="utilde" unicode="&#x169;" horiz-adv-x="993" 
d="M396 1413q46 0 88 -38t74 -76t56 -37q61 0 93 104q10 33 47 16l32 -16q20 -10 9 -53q-57 -166 -183 -166q-49 0 -93 39t-77 77q-32 37 -56 37t-44 -18t-28 -36t-18 -52q-11 -36 -50 -16l-37 18q-23 12 -8 45q0 2 12 31q42 101 106 128q31 13 77 13zM135 350v430
q0 14 12 26t27 13h66q14 0 26 -12t13 -27v-432q0 -115 48 -173t127 -58q79 1 139 29t87 59l27 28v547q0 14 11 26t27 13h64q15 0 27 -12t12 -27v-741q0 -15 -12 -27t-27 -12h-39q-27 0 -37 35l-14 53q-108 -108 -266 -108q-318 -1 -318 370z" />
    <glyph glyph-name="Umacron" unicode="&#x16a;" horiz-adv-x="1466" 
d="M1032 1718q0 -35 -39 -37h-524q-15 1 -27 11t-12 26v43q0 39 39 39h524q39 0 39 -39v-43zM190 528v867q0 14 12 26t27 13h78q15 0 27 -12t12 -27v-854q0 -180 104 -298t282 -118q177 0 283 117q105 117 105 295v858q0 16 12 27t27 12h78q15 0 27 -12t12 -27v-867
q0 -236 -153 -392t-391 -156t-390 156t-152 392z" />
    <glyph glyph-name="umacron" unicode="&#x16b;" horiz-adv-x="993" 
d="M231 1194q-16 0 -27 10t-11 27v43q0 39 38 39h525q39 0 39 -39v-43q1 -17 -11 -27t-28 -10h-525zM135 350v430q0 14 12 26t27 13h66q14 0 26 -12t13 -27v-432q0 -115 48 -173t127 -58q79 1 139 29t87 59l27 28v547q0 14 11 26t27 13h64q15 0 27 -12t12 -27v-741
q0 -15 -12 -27t-27 -12h-39q-27 0 -37 35l-14 53q-108 -108 -266 -108q-318 -1 -318 370z" />
    <glyph glyph-name="Ubreve" unicode="&#x16c;" horiz-adv-x="1466" 
d="M728 1579q-105 0 -183 67t-92 166q-8 41 28 41h43q27 0 39 -34q15 -59 61 -95t103 -36t101 38t60 82q16 46 42 45h47q37 0 29 -41q-16 -100 -94 -166t-184 -67zM190 528v867q0 14 12 26t27 13h78q15 0 27 -12t12 -27v-854q0 -180 104 -298t282 -118q177 0 283 117
q105 117 105 295v858q0 16 12 27t27 12h78q15 0 27 -12t12 -27v-867q0 -236 -153 -392t-391 -156t-390 156t-152 392z" />
    <glyph glyph-name="ubreve" unicode="&#x16d;" horiz-adv-x="993" 
d="M501 1087q-105 0 -184 67q-78 67 -92 167q-8 41 29 41h43q27 0 39 -35q16 -59 61 -95t103 -36t101 38t59 83t42 45h48q37 0 28 -41q-16 -100 -94 -167t-183 -67zM135 350v430q0 14 12 26t27 13h66q14 0 26 -12t13 -27v-432q0 -115 48 -173t127 -58q79 1 139 29t87 59
l27 28v547q0 14 11 26t27 13h64q15 0 27 -12t12 -27v-741q0 -15 -12 -27t-27 -12h-39q-27 0 -37 35l-14 53q-108 -108 -266 -108q-318 -1 -318 370z" />
    <glyph glyph-name="Uring" unicode="&#x16e;" horiz-adv-x="1466" 
d="M729 1651q49 0 85 38t36 87t-36 85q-36 35 -85 35t-87 -36t-38 -84q0 -49 38 -87t87 -38zM728 1552q-93 0 -158 65t-64 159q0 94 64 158t158 65q93 0 159 -65q65 -64 65 -158t-66 -159t-158 -65zM190 528v867q0 14 12 26t27 13h78q15 0 27 -12t12 -27v-854
q0 -180 104 -298t282 -118q177 0 283 117q105 117 105 295v858q0 16 12 27t27 12h78q15 0 27 -12t12 -27v-867q0 -236 -153 -392t-391 -156t-390 156t-152 392z" />
    <glyph glyph-name="uring" unicode="&#x16f;" horiz-adv-x="993" 
d="M500 1106q49 0 85 38t36 87t-36 85t-85 36t-87 -36t-38 -85t38 -87t87 -38zM723 1231q1 -95 -65 -159t-159 -64t-158 64t-65 159q0 94 65 159q65 64 158 64t159 -64t65 -159zM135 350v430q0 14 12 26t27 13h66q14 0 26 -12t13 -27v-432q0 -115 48 -173t127 -58
q79 1 139 29t87 59l27 28v547q0 14 11 26t27 13h64q15 0 27 -12t12 -27v-741q0 -15 -12 -27t-27 -12h-39q-27 0 -37 35l-14 53q-108 -108 -266 -108q-318 -1 -318 370z" />
    <glyph glyph-name="Uhungarumlaut" unicode="&#x170;" horiz-adv-x="1466" 
d="M571 1575q-16 0 -29 12t-10 27l103 289q12 39 39 39h80q29 0 39 -16t-2 -36l-160 -284q-16 -31 -37 -31h-23zM911 1575q-16 0 -29 12t-10 27l103 289q12 39 39 39h80q29 0 39 -16t-3 -36l-159 -284q-16 -31 -37 -31h-23zM190 528v867q0 14 12 26t27 13h78q15 0 27 -12
t12 -27v-854q0 -180 104 -298t282 -118q177 0 283 117q105 117 105 295v858q0 16 12 27t27 12h78q15 0 27 -12t12 -27v-867q0 -236 -153 -392t-391 -156t-390 156t-152 392z" />
    <glyph glyph-name="uhungarumlaut" unicode="&#x171;" horiz-adv-x="993" 
d="M328 1067q-16 0 -30 12q-13 12 -9 27l102 289q12 39 39 39h80q29 0 39 -16t-2 -36l-160 -284q-14 -31 -37 -31h-22zM668 1067q-16 0 -30 12q-13 12 -9 27l102 289q12 39 39 39h80q29 0 39 -16t-2 -36l-160 -284q-14 -31 -37 -31h-22zM135 350v430q0 14 12 26t27 13h66
q14 0 26 -12t13 -27v-432q0 -115 48 -173t127 -58q79 1 139 29t87 59l27 28v547q0 14 11 26t27 13h64q15 0 27 -12t12 -27v-741q0 -15 -12 -27t-27 -12h-39q-27 0 -37 35l-14 53q-108 -108 -266 -108q-318 -1 -318 370z" />
    <glyph glyph-name="Uogonek" unicode="&#x172;" horiz-adv-x="1474" 
d="M195 528v867q0 14 11 26t27 13h78q15 0 27 -12t12 -27v-854q0 -180 104 -298t282 -118q177 0 283 117q105 117 105 295v858q0 16 12 27t27 12h78q15 0 27 -12t12 -27v-867q0 -222 -137 -376t-359 -170q-80 -84 -79 -185q1 -49 35 -83q68 -67 194 -1q12 6 24 -2t13 -26
v-52q0 -18 -29 -34q-61 -31 -148 -31t-150 53q-62 53 -62 162t92 201q-213 20 -346 172t-133 372z" />
    <glyph glyph-name="uogonek" unicode="&#x173;" horiz-adv-x="993" 
d="M135 350v430q0 14 12 26t27 13h66q14 0 26 -12t13 -27v-432q0 -115 48 -173t127 -58q79 1 139 29t87 59l27 28v547q0 14 11 26t27 13h64q15 0 27 -12t12 -27v-741q0 -31 -31 -39q-98 -86 -98 -203q0 -49 35 -83q69 -67 194 -1q12 6 24 -2t13 -26v-52q0 -18 -29 -34
q-61 -31 -148 -31t-150 53q-62 53 -62 139t36 148q36 61 70 88l35 27l-18 65q-108 -108 -266 -108q-318 -1 -318 370z" />
    <glyph glyph-name="Wcircumflex" unicode="&#x174;" horiz-adv-x="1847" 
d="M666 1587l-29 37q-14 20 12 39l246 192q11 9 27 9t26 -9l246 -192q27 -18 12 -39q-4 -4 -11 -16q-23 -40 -43 -38q-9 1 -22 9l-208 143l-209 -139q-31 -21 -47 4zM199 1434q29 0 37 -29l284 -1061h8l342 1088q8 23 35 22h37q27 0 35 -22l348 -1088h8l279 1061q8 29 37 29
h86q23 0 33 -14t4 -36l-388 -1376q-8 -29 -36 -28h-33q-25 0 -35 22l-354 1108h-11l-348 -1108q-10 -23 -35 -22h-32q-29 -1 -37 28l-387 1376q-6 20 4 34t33 16h86z" />
    <glyph glyph-name="wcircumflex" unicode="&#x175;" horiz-adv-x="1236" 
d="M616 1413q16 0 27 -8l246 -193q27 -18 12 -38q-4 -4 -11 -16q-23 -41 -43 -39q-9 1 -22 9l-209 144l-208 -139q-32 -21 -48 4l-28 37q-14 20 12 38l246 193q10 8 26 8zM98 819h64q29 0 37 -22l149 -541h2l232 563q8 20 34 21h11q27 0 35 -21l229 -565h2l147 543
q8 23 35 22h64q45 0 30 -47l-223 -772q-6 -20 -35 -20h-10q-27 0 -35 20l-250 614l-241 -614q-8 -20 -35 -20h-10q-29 0 -35 20l-227 772q-14 47 30 47z" />
    <glyph glyph-name="Ycircumflex" unicode="&#x176;" horiz-adv-x="1157" 
d="M324 1587l-29 37q-14 20 12 39l246 192q11 9 27 9t26 -9l246 -192q27 -18 12 -39q-4 -4 -11 -16q-23 -40 -43 -38q-9 1 -22 9l-208 143l-209 -139q-31 -21 -47 4zM498 39v651l-494 684q-12 20 -2 40t35 20h96q18 0 33 -19l414 -571l413 571q14 18 33 19h96q25 0 35 -20
t-2 -40l-500 -682v-653q0 -15 -12 -27t-27 -12h-79q-16 0 -28 11q-11 12 -11 28z" />
    <glyph glyph-name="ycircumflex" unicode="&#x177;" horiz-adv-x="954" 
d="M489 1413q16 0 27 -8l246 -193q27 -18 12 -38q-4 -4 -11 -16q-23 -41 -43 -39q-9 1 -22 9l-209 144l-208 -139q-32 -21 -48 4l-28 37q-14 20 12 38l246 193q10 8 26 8zM59 819h91q23 0 34 -22l303 -627h2l287 627q10 23 35 22h78q23 0 32 -13t-1 -34l-629 -1362
q-12 -25 -35 -24h-76q-23 0 -33 14t0 37l263 565l-381 772q-10 20 -1 32t31 13z" />
    <glyph glyph-name="Ydieresis" unicode="&#x178;" horiz-adv-x="1157" 
d="M461 1718q0 -40 -29 -68t-69 -28q-41 0 -69 29t-28 69t28 68q28 29 68 29t70 -29q29 -29 29 -70zM795 1622q-41 0 -69 29t-28 69t28 68q28 29 69 29t69 -29t29 -70q-1 -40 -29 -68t-69 -28zM498 39v651l-494 684q-12 20 -2 40t35 20h96q18 0 33 -19l414 -571l413 571
q14 18 33 19h96q25 0 35 -20t-2 -40l-500 -682v-653q0 -15 -12 -27t-27 -12h-79q-16 0 -28 11q-11 12 -11 28z" />
    <glyph glyph-name="Zacute" unicode="&#x179;" horiz-adv-x="1093" 
d="M420 1604l-21 45q-12 27 13 39l307 172q8 8 27 7t26 -14l37 -73q16 -33 -12 -43l-330 -138q-37 -15 -47 5zM61 39v37l744 1208v6h-645q-16 0 -28 12t-11 27v66q0 14 11 26t28 13h829q15 0 27 -12t12 -27v-27l-756 -1223v-2h676q16 0 28 -11t11 -28v-65q0 -15 -11 -27
t-28 -12h-848q-14 0 -26 12t-13 27z" />
    <glyph glyph-name="zacute" unicode="&#x17a;" horiz-adv-x="747" 
d="M195 1149l-21 45q-12 27 12 39l308 172q8 8 27 7t26 -13l37 -74q16 -33 -13 -43l-329 -137q-37 -16 -47 4zM94 780q0 39 37 39h514q23 0 35 -17t0 -38l-391 -629v-6h315q39 0 39 -39v-51q0 -15 -11 -27t-28 -12h-491q-14 0 -27 12q-12 13 -12 27v20l401 625v6h-344
q-14 0 -26 11q-11 11 -11 28v51z" />
    <glyph glyph-name="Zdotaccent" unicode="&#x17b;" horiz-adv-x="1093" 
d="M585 1630q-48 0 -83 35t-35 83t35 82t83 34t82 -34q33 -34 33 -82t-34 -83t-81 -35zM61 39v37l744 1208v6h-645q-16 0 -28 12t-11 27v66q0 14 11 26t28 13h829q15 0 27 -12t12 -27v-27l-756 -1223v-2h676q16 0 28 -11t11 -28v-65q0 -15 -11 -27t-28 -12h-848
q-14 0 -26 12t-13 27z" />
    <glyph glyph-name="zdotaccent" unicode="&#x17c;" horiz-adv-x="747" 
d="M390 1159q-48 0 -83 35t-35 83t35 82t83 34t82 -34t34 -82t-34 -83t-82 -35zM94 780q0 39 37 39h514q23 0 35 -17t0 -38l-391 -629v-6h315q39 0 39 -39v-51q0 -15 -11 -27t-28 -12h-491q-14 0 -27 12q-12 13 -12 27v20l401 625v6h-344q-14 0 -26 11q-11 11 -11 28v51z
" />
    <glyph glyph-name="Zcaron" unicode="&#x17d;" horiz-adv-x="1093" 
d="M584 1573q-16 0 -27 8l-246 193q-27 18 -12 38l29 37q16 25 47 4l209 -139l209 144q31 20 47 -5l28 -41q4 -6 4 -12t-3 -14t-40 -33l-219 -172q-10 -8 -26 -8zM61 39v37l744 1208v6h-645q-16 0 -28 12t-11 27v66q0 14 11 26t28 13h829q15 0 27 -12t12 -27v-27l-756 -1223
v-2h676q16 0 28 -11t11 -28v-65q0 -15 -11 -27t-28 -12h-848q-14 0 -26 12t-13 27z" />
    <glyph glyph-name="zcaron" unicode="&#x17e;" horiz-adv-x="747" 
d="M661 1308q-17 -9 -26 -18l-219 -172q-10 -8 -27 -8t-27 8l-245 193q-27 18 -13 39l29 36q16 25 47 5l209 -140l209 144q31 20 47 -4l29 -41q4 -6 4 -19q0 -14 -17 -23zM94 780q0 39 37 39h514q23 0 35 -17t0 -38l-391 -629v-6h315q39 0 39 -39v-51q0 -15 -11 -27t-28 -12
h-491q-14 0 -27 12q-12 13 -12 27v20l401 625v6h-344q-14 0 -26 11q-11 11 -11 28v51z" />
    <glyph glyph-name="florin" unicode="&#x192;" horiz-adv-x="661" 
d="M211 -287v983h-125q-16 0 -28 12t-11 27v45q0 39 39 39h125v287q0 170 87 259t225 89t227 -84q25 -20 8 -47l-33 -53q-18 -31 -53 -2q-78 59 -152 59t-121 -54t-47 -167v-287h238q39 0 39 -39v-45q1 -16 -11 -27t-28 -12h-238v-983q0 -170 -87 -259t-225 -89t-226 84
q-25 20 -9 47l33 53q18 31 53 2q78 -59 152 -59t121 54t47 167z" />
    <glyph glyph-name="Aringacute" unicode="&#x1fa;" horiz-adv-x="1357" 
d="M371 487h614l-299 672h-16zM678 1458q49 0 85 38t36 87t-36 85t-85 36t-87 -36t-38 -85t38 -87t87 -38zM47 0q-23 0 -34 16t-1 37l594 1317q-68 23 -110 81t-41 142q0 84 64 149q65 64 158 64t159 -64t66 -149q0 -84 -43 -141q-42 -57 -107 -80l591 -1319q10 -21 -1 -37
t-33 -16h-82q-27 0 -35 23l-152 337h-727l-149 -337q-8 -23 -35 -23h-82zM494 1849l-21 45q-12 27 12 39l308 172q8 7 27 7t26 -13l37 -74q16 -33 -13 -43l-329 -137q-37 -16 -47 4z" />
    <glyph glyph-name="aringacute" unicode="&#x1fb;" horiz-adv-x="858" 
d="M223 1362l-20 45q-12 27 12 39l307 172q8 8 28 7t25 -13l37 -74q16 -33 -12 -43l-330 -137q-37 -16 -47 4zM416 991q49 0 85 38t36 87t-36 85t-85 36t-87 -36t-38 -85t38 -87t87 -38zM639 1116q1 -94 -65 -158t-159 -65q-93 1 -158 65t-64 158q0 94 64 159q65 65 158 65
t159 -66q66 -64 65 -158zM428 412q-102 0 -156 -43t-55 -113q0 -70 39 -112q40 -42 108 -42t130 36t92 79v162q-56 33 -158 33zM86 248q0 120 87 196t241 76q91 0 151 -20l23 -6q2 123 -24 172t-109 49q-129 0 -246 -45q-29 -12 -39 20l-16 51q-10 31 27 48t124 34
q87 16 156 17q152 0 206 -79t54 -267v-455q0 -15 -12 -27t-27 -12h-39q-25 0 -35 31l-16 55q-106 -106 -254 -106q-108 0 -180 74t-72 194z" />
    <glyph glyph-name="AEacute" unicode="&#x1fc;" horiz-adv-x="1837" 
d="M1075 1606l-20 45q-12 27 12 39l307 172q8 8 28 7t25 -14l37 -73q16 -33 -12 -43l-330 -137q-37 -16 -47 4zM834 487v672l-412 -672h412zM12 0q-24 0 -30 16t6 37l821 1317q31 49 48 56t42 8h780q15 0 27 -12t12 -27v-60q0 -16 -11 -27t-28 -12h-700v-499h600
q15 1 27 -11t12 -28v-60q0 -16 -11 -27t-28 -12h-600v-522h700q15 0 27 -11t12 -28v-59q0 -15 -11 -27t-28 -12h-807q-16 0 -27 11t-11 28v321h-486l-213 -337q-18 -23 -39 -23h-84z" />
    <glyph glyph-name="aeacute" unicode="&#x1fd;" horiz-adv-x="1413" 
d="M602 1149l-20 45q-12 27 12 39l307 172q7 8 27 7t26 -13l37 -74q16 -33 -12 -43l-330 -137q-37 -16 -47 4zM217 250q0 -74 48 -111q47 -37 113 -37t120 31t84 74v182q-60 19 -156 19t-152 -42t-57 -116zM725 492h471q-4 94 -71 157t-151 63t-150 -38q-67 -39 -99 -99v-83
zM721 250q81 -137 271 -137q96 0 190 57q26 14 32 16t25 -12l35 -47q12 -17 12 -27t-20 -26q-126 -94 -314 -94t-297 145q-45 -59 -126 -102t-187 -43t-180 74t-74 196q0 120 81 194t205 74t181 -10l23 -2q2 123 -20 168t-95 45q-113 0 -260 -49q-35 -10 -43 28l-10 52
q-6 31 32 41q131 49 297 49t213 -113q117 113 274 113t263 -104t106 -271q0 -90 -41 -90h-573v-125z" />
    <glyph glyph-name="Oslashacute" unicode="&#x1fe;" horiz-adv-x="1681" 
d="M676 1604l-21 45q-12 27 13 39l307 172q8 8 27 7t26 -14l37 -73q16 -33 -12 -43l-330 -138q-37 -15 -47 5zM852 123q232 0 406 174q174 175 176 407q0 232 -144 396l-833 -836q163 -141 395 -141zM248 728q0 -232 145 -400l836 837q-169 145 -401 145t-406 -175
t-174 -407zM826 1454q294 0 505 -186l129 129q27 27 53 0l11 -11q27 -27 0 -53l-129 -129q182 -212 182 -504t-215 -506t-509 -214t-501 180l-125 -125q-26 -26 -66 16q-22 23 3 47l125 125q-185 211 -185 505t214 510t508 216z" />
    <glyph glyph-name="oslashacute" unicode="&#x1ff;" horiz-adv-x="983" 
d="M307 1149l-20 45q-12 27 12 39l307 172q8 8 28 7t25 -13l37 -74q16 -33 -12 -43l-330 -137q-37 -16 -47 4zM502 113q102 0 180 88q76 88 76 213q0 86 -41 155l-389 -395q72 -61 174 -61zM229 426q0 -108 41 -180l389 395q-70 63 -174 63t-180 -84q-76 -86 -76 -194z
M88 426q0 162 118 288t278 126t272 -103l43 43q29 29 55 0q40 -40 10 -63l-47 -47q82 -115 82 -256q0 -178 -118 -306q-119 -128 -279 -128t-271 98l-28 -29q-30 -32 -64 10q-29 27 -2 54l33 32q-82 119 -82 281z" />
    <glyph glyph-name="Scommaaccent" unicode="&#x218;" horiz-adv-x="1091" 
d="M563 -188q135 0 135 -185q0 -115 -54 -217t-118 -162q-29 -25 -49 -4l-28 29q-20 20 12 49q127 115 127 258q-8 -2 -25 -2q-47 0 -82 35t-35 83t35 82t82 34zM840 345q0 97 -85 170t-274 151q-188 82 -274 171t-86 253q0 118 95 233q48 57 137 94t191 37t190 -27
q87 -27 130 -51l43 -26q37 -16 13 -70q-19 -28 -25 -39q-29 -43 -72 -18q-166 94 -268 94q-145 0 -214 -72q-69 -71 -69 -161t69 -157t208 -124q235 -97 345 -193t110 -258t-130 -267t-313 -105q-109 0 -214 40t-147 68q-42 30 -75 59t-8 68q18 18 30 39q37 49 72 18
q182 -156 346 -155q121 -1 198 65t77 163z" />
    <glyph glyph-name="scommaaccent" unicode="&#x219;" horiz-adv-x="729" 
d="M369 -188q135 0 135 -185q0 -115 -54 -217t-118 -162q-29 -25 -49 -4l-29 29q-20 20 12 49q127 115 127 258q-8 -2 -24 -2q-47 0 -82 35t-35 83t35 82t82 34zM373 100q61 0 97 28t36 74t-39 78t-124 74t-129 70q-44 29 -83 83t-39 126q0 71 66 139t198 68t224 -64
q35 -23 12 -63l-17 -33q-23 -39 -59 -18q-88 49 -156 49t-97 -25q-27 -26 -27 -58t24 -59t48 -39q22 -12 116 -59t143 -85q88 -69 88 -168t-80 -169q-80 -69 -215 -69t-254 92q-20 16 -13 32t19 37q11 20 13 25q18 29 55 6q88 -72 193 -72z" />
    <glyph glyph-name="uni021A" unicode="&#x21a;" horiz-adv-x="978" 
d="M485 -188q135 0 136 -185q-1 -115 -55 -217t-117 -162q-29 -25 -50 -4l-28 29q-20 20 12 49q127 115 127 258q-8 -2 -25 -2q-47 0 -82 35t-35 83t35 82t82 34zM412 39v1257h-357q-16 0 -27 12t-12 27v60q0 16 12 27t27 12h869q16 0 27 -12t12 -27v-60q1 -16 -11 -27
t-28 -12h-357v-1257q0 -15 -11 -27t-28 -12h-77q-16 0 -28 12q-11 13 -11 27z" />
    <glyph glyph-name="uni021B" unicode="&#x21b;" horiz-adv-x="702" 
d="M377 -188q135 0 135 -185q0 -115 -54 -217t-118 -162q-29 -25 -49 -4l-29 29q-20 20 12 49q127 115 127 258q-8 -2 -24 -2q-47 0 -82 35t-35 83t35 82t82 34zM199 205v491h-105q-16 0 -27 12t-12 27v45q0 39 39 39h105v228q0 14 11 26t28 12l65 5q13 0 25 -12t12 -27
v-232h238q39 0 38 -39v-45q0 -16 -11 -27t-27 -12h-238v-479q0 -59 15 -79t67 -19q52 0 135 45q31 16 49 -12l31 -52q17 -31 -15 -51t-102 -45t-133 -24q-113 0 -151 57t-37 168z" />
    <glyph glyph-name="dotlessj" unicode="&#x237;" horiz-adv-x="436" 
d="M147 -287v1067q-1 16 11 28t28 11h64q16 0 28 -11t11 -28v-1067q0 -170 -87 -259q-88 -89 -226 -89t-226 84q-25 20 -8 47l33 53q18 31 53 2q78 -59 152 -59t120 54q47 54 47 167z" />
    <glyph glyph-name="circumflex" unicode="&#x2c6;" horiz-adv-x="763" 
d="M378 1413q16 0 28 -8l245 -193q27 -18 13 -38q-4 -4 -12 -16q-24 -40 -43 -39q-9 1 -21 9l-209 144l-209 -139q-31 -21 -47 4l-29 37q-14 20 12 38l246 193q10 8 26 8z" />
    <glyph glyph-name="caron" unicode="&#x2c7;" horiz-adv-x="763" 
d="M664 1350q4 -6 4 -18t-17 -23q-17 -10 -26 -19l-219 -172q-10 -8 -27 -8t-27 8l-246 193q-27 18 -12 39l29 36q16 25 47 5l209 -140l209 144q31 20 47 -4z" />
    <glyph glyph-name="uni02C9" unicode="&#x2c9;" horiz-adv-x="847" 
d="M162 1194q-39 0 -39 37v43q0 39 39 39h524q39 0 39 -39v-43q0 -17 -11 -27t-28 -10h-524z" />
    <glyph glyph-name="breve" unicode="&#x2d8;" horiz-adv-x="708" 
d="M353 1087q-105 0 -183 67t-92 167q-8 41 28 41h44q27 0 38 -35q16 -59 62 -95t102 -36q57 0 102 38q44 38 59 83t42 45h47q37 0 29 -41q-17 -100 -95 -167t-183 -67z" />
    <glyph glyph-name="dotaccent" unicode="&#x2d9;" horiz-adv-x="448" 
d="M222 1159q-48 0 -83 35t-35 83t35 82t83 34t82 -34t34 -82t-34 -83t-82 -35z" />
    <glyph glyph-name="ring" unicode="&#x2da;" horiz-adv-x="593" 
d="M297 1106q49 0 85 38t36 87t-36 85t-85 36t-87 -36t-38 -85t38 -87t87 -38zM296 1008q-93 0 -158 64t-64 159q0 94 64 159q65 64 158 64t159 -64q65 -64 65 -159q0 -94 -65 -159q-66 -64 -159 -64z" />
    <glyph glyph-name="ogonek" unicode="&#x2db;" horiz-adv-x="565" 
d="M211 -198q0 -54 35 -88q69 -67 194 -1q12 6 24 -2t13 -26v-52q0 -18 -28 -34q-61 -31 -149 -31t-149 53q-63 53 -63 150t45 157t82 84l14 11h105q-45 -32 -84 -99q-39 -68 -39 -122z" />
    <glyph glyph-name="tilde" unicode="&#x2dc;" horiz-adv-x="778" 
d="M498 1147q-49 0 -94 39q-44 39 -76 77q-54 62 -101 19q-20 -18 -27 -36t-18 -48q-12 -40 -51 -20l-37 18q-23 12 -8 45q0 2 16 39t54 85q39 48 116 48q78 0 171 -114q32 -38 57 -37q61 0 92 104q10 33 47 16l33 -16q20 -10 8 -53q-57 -166 -182 -166z" />
    <glyph glyph-name="hungarumlaut" unicode="&#x2dd;" horiz-adv-x="802" 
d="M154 1067q-16 0 -30 12q-13 12 -9 27l102 289q12 39 39 39h80q29 0 39 -16t-2 -36l-160 -284q-16 -31 -37 -31h-22zM494 1067q-16 0 -30 12q-13 12 -9 27l102 289q12 39 39 39h80q29 0 39 -16t-2 -36l-160 -284q-16 -31 -37 -31h-22z" />
    <glyph glyph-name="uni0394" unicode="&#x394;" horiz-adv-x="1404" 
d="M252 145h899l-444 1029h-5zM98 0q-78 0 -37 80l611 1364q10 18 28 18h11q18 0 28 -18l609 -1368q35 -76 -37 -76h-1213z" />
    <glyph glyph-name="uni03A9" unicode="&#x3a9;" horiz-adv-x="1597" 
d="M100 31v84q0 12 10 21t21 9h227q-139 82 -219 238t-80 338q0 307 215 520q214 213 522 213t523 -213t215 -520q0 -182 -80 -338t-217 -238h227q12 0 22 -9t9 -21v-84q0 -11 -9 -21t-22 -10h-510q-29 0 -28 31v59q0 29 35 45q188 59 309 221t121 359q-1 242 -177 418
t-418 176t-416 -176q-175 -176 -175 -418q0 -197 121 -359t309 -221q33 -16 33 -45v-59q0 -31 -29 -31h-508q-11 0 -21 10t-10 21z" />
    <glyph glyph-name="uni03BC" unicode="&#x3bc;" horiz-adv-x="1034" 
d="M291 -575q0 -15 -12 -27t-27 -12h-64q-16 0 -27 12t-11 27v1355q0 14 11 26t27 13h66q16 0 28 -12t11 -27v-432q0 -115 48 -173t127 -58q79 1 139 29t87 59l27 28v547q0 14 12 26t27 13h63q15 0 27 -12t12 -27v-741q0 -15 -11 -27t-28 -12h-39q-27 0 -36 35l-15 53
q-108 -108 -266 -108q-106 -1 -176 40v-595z" />
    <glyph glyph-name="pi" unicode="&#x3c0;" horiz-adv-x="1292" 
d="M287 31v663h-219q-12 0 -22 9q-9 9 -9 22v63q0 12 9 22t22 9h1151q31 0 30 -28v-68q0 -29 -30 -29h-222v-663q0 -31 -30 -31h-80q-12 0 -22 9q-9 9 -9 22v663h-428v-663q0 -31 -33 -31h-78q-12 0 -21 10t-9 21z" />
    <glyph glyph-name="Wgrave" unicode="&#x1e80;" horiz-adv-x="1847" 
d="M1059 1599l-330 138q-29 10 -12 43l37 73q6 11 25 13t28 -6l307 -172q25 -12 12 -39l-20 -45q-10 -21 -47 -5zM199 1434q29 0 37 -29l284 -1061h8l342 1088q8 23 35 22h37q27 0 35 -22l348 -1088h8l279 1061q8 29 37 29h86q23 0 33 -14t4 -36l-388 -1376q-8 -29 -36 -28
h-33q-25 0 -35 22l-354 1108h-11l-348 -1108q-10 -23 -35 -22h-32q-29 -1 -37 28l-387 1376q-6 20 4 34t33 16h86z" />
    <glyph glyph-name="wgrave" unicode="&#x1e81;" horiz-adv-x="1236" 
d="M754 1145l-330 137q-29 10 -12 43l37 74q6 12 25 13t28 -7l307 -172q25 -12 12 -39l-20 -45q-10 -20 -47 -4zM98 819h64q29 0 37 -22l149 -541h2l232 563q8 20 34 21h11q27 0 35 -21l229 -565h2l147 543q8 23 35 22h64q45 0 30 -47l-223 -772q-6 -20 -35 -20h-10
q-27 0 -35 20l-250 614l-241 -614q-8 -20 -35 -20h-10q-29 0 -35 20l-227 772q-14 47 30 47z" />
    <glyph glyph-name="Wacute" unicode="&#x1e82;" horiz-adv-x="1847" 
d="M737 1604l-20 45q-12 27 12 39l307 172q8 8 28 7t26 -14l36 -73q16 -33 -12 -43l-330 -138q-37 -15 -47 5zM199 1434q29 0 37 -29l284 -1061h8l342 1088q8 23 35 22h37q27 0 35 -22l348 -1088h8l279 1061q8 29 37 29h86q23 0 33 -14t4 -36l-388 -1376q-8 -29 -36 -28h-33
q-25 0 -35 22l-354 1108h-11l-348 -1108q-10 -23 -35 -22h-32q-29 -1 -37 28l-387 1376q-6 20 4 34t33 16h86z" />
    <glyph glyph-name="wacute" unicode="&#x1e83;" horiz-adv-x="1236" 
d="M436 1149l-20 45q-12 27 12 39l307 172q7 8 27 7t26 -13l37 -74q16 -33 -12 -43l-330 -137q-37 -16 -47 4zM98 819h64q29 0 37 -22l149 -541h2l232 563q8 20 34 21h11q27 0 35 -21l229 -565h2l147 543q8 23 35 22h64q45 0 30 -47l-223 -772q-6 -20 -35 -20h-10
q-27 0 -35 20l-250 614l-241 -614q-8 -20 -35 -20h-10q-29 0 -35 20l-227 772q-14 47 30 47z" />
    <glyph glyph-name="Wdieresis" unicode="&#x1e84;" horiz-adv-x="1847" 
d="M705 1622q-41 0 -69 29t-28 69t28 68q28 29 69 29t69 -29t29 -70q-1 -40 -29 -68t-69 -28zM1235 1718q-1 -40 -29 -68t-68 -28t-69 29t-29 69t28 68q28 29 69 29t69 -29t29 -70zM199 1434q29 0 37 -29l284 -1061h8l342 1088q8 23 35 22h37q27 0 35 -22l348 -1088h8
l279 1061q8 29 37 29h86q23 0 33 -14t4 -36l-388 -1376q-8 -29 -36 -28h-33q-25 0 -35 22l-354 1108h-11l-348 -1108q-10 -23 -35 -22h-32q-29 -1 -37 28l-387 1376q-6 20 4 34t33 16h86z" />
    <glyph glyph-name="wdieresis" unicode="&#x1e85;" horiz-adv-x="1236" 
d="M418 1198q-41 0 -69 28q-27 28 -27 68t27 70q28 29 69 29q42 0 70 -29t28 -70q0 -40 -28 -68t-70 -28zM814 1198q-40 0 -69 28t-29 68t28 70q28 29 69 29t70 -29t29 -70q0 -40 -30 -68q-28 -28 -68 -28zM98 819h64q29 0 37 -22l149 -541h2l232 563q8 20 34 21h11
q27 0 35 -21l229 -565h2l147 543q8 23 35 22h64q45 0 30 -47l-223 -772q-6 -20 -35 -20h-10q-27 0 -35 20l-250 614l-241 -614q-8 -20 -35 -20h-10q-29 0 -35 20l-227 772q-14 47 30 47z" />
    <glyph glyph-name="Ygrave" unicode="&#x1ef2;" horiz-adv-x="1157" 
d="M717 1599l-330 138q-29 10 -12 43l37 73q6 11 25 13t28 -6l307 -172q25 -12 12 -39l-20 -45q-10 -21 -47 -5zM498 39v651l-494 684q-12 20 -2 40t35 20h96q18 0 33 -19l414 -571l413 571q14 18 33 19h96q25 0 35 -20t-2 -40l-500 -682v-653q0 -15 -12 -27t-27 -12h-79
q-16 0 -28 11q-11 12 -11 28z" />
    <glyph glyph-name="ygrave" unicode="&#x1ef3;" horiz-adv-x="954" 
d="M627 1145l-330 137q-29 10 -12 43l37 74q6 12 25 13t28 -7l307 -172q25 -12 12 -39l-20 -45q-10 -20 -47 -4zM59 819h91q23 0 34 -22l303 -627h2l287 627q10 23 35 22h78q23 0 32 -13t-1 -34l-629 -1362q-12 -25 -35 -24h-76q-23 0 -33 14t0 37l263 565l-381 772
q-10 20 -1 32t31 13z" />
    <glyph glyph-name="endash" unicode="&#x2013;" horiz-adv-x="1181" 
d="M213 457q-39 0 -39 37v22q0 39 39 39h756q39 0 39 -39v-22q0 -16 -12 -26t-27 -11h-756z" />
    <glyph glyph-name="emdash" unicode="&#x2014;" horiz-adv-x="1632" 
d="M213 457q-39 0 -39 37v22q0 39 39 39h1206q39 0 39 -39v-22q0 -16 -11 -26t-28 -11h-1206z" />
    <glyph glyph-name="quoteleft" unicode="&#x2018;" horiz-adv-x="417" 
d="M213 874q-135 0 -135 185q0 115 54 217t118 162q29 25 49 4l29 -29q20 -20 -13 -49q-127 -115 -127 -258q8 2 25 2q47 0 82 -35t35 -83t-35 -82t-82 -34z" />
    <glyph glyph-name="quoteright" unicode="&#x2019;" horiz-adv-x="413" 
d="M209 1223q-47 1 -82 35t-35 82t35 82t82 34q135 0 135 -184q0 -115 -54 -217t-118 -162q-29 -24 -49 -4l-29 29q-20 20 12 49q127 115 127 258q-8 -2 -24 -2z" />
    <glyph glyph-name="quotesinglbase" unicode="&#x201a;" horiz-adv-x="477" 
d="M113 97q0 48 34 82q35 34 82 34q135 0 136 -184q-1 -115 -55 -217t-117 -162q-29 -25 -50 -4l-28 28q-20 20 12 50q127 115 127 258q-8 -2 -40 -2t-67 34q-34 35 -34 83z" />
    <glyph glyph-name="quotedblleft" unicode="&#x201c;" horiz-adv-x="786" 
d="M213 879q-135 0 -135 184q0 115 54 217t118 162q29 25 49 4l29 -29q20 -20 -13 -49q-127 -115 -127 -258q8 2 25 2q47 0 82 -35t35 -83t-35 -82t-82 -33zM582 879q-135 0 -136 184q0 115 55 217q54 102 117 162q29 25 50 4l28 -29q20 -20 -12 -49q-127 -115 -127 -258
q8 2 25 2q47 0 82 -35q34 -35 34 -83t-34 -82q-35 -33 -82 -33z" />
    <glyph glyph-name="quotedblright" unicode="&#x201d;" horiz-adv-x="782" 
d="M209 1223q-47 1 -82 35t-35 82t35 82t82 34q135 0 135 -184q0 -115 -54 -217t-118 -162q-29 -24 -49 -4l-29 29q-20 20 12 49q127 115 127 258q-8 -2 -24 -2zM578 1223q-47 1 -82 35t-35 82t35 82t82 34q135 0 135 -184q-1 -115 -55 -217t-117 -162q-29 -24 -49 -4
l-29 29q-20 20 12 49q127 115 127 258q-8 -2 -24 -2z" />
    <glyph glyph-name="quotedblbase" unicode="&#x201e;" horiz-adv-x="845" 
d="M113 97q0 48 34 82q35 34 82 34q135 0 136 -184q-1 -115 -55 -217t-117 -162q-29 -25 -50 -4l-28 28q-20 20 12 50q127 115 127 258q-8 -2 -40 -2t-67 34q-34 35 -34 83zM583 -20q-32 0 -67 34t-35 83q0 48 35 82t82 34q135 0 135 -184q0 -115 -54 -217t-118 -162
q-29 -25 -49 -4l-29 28q-20 20 13 50q127 115 127 258q-8 -2 -40 -2z" />
    <glyph glyph-name="dagger" unicode="&#x2020;" horiz-adv-x="1265" 
d="M141 684q-14 0 -26 12t-13 27v57q0 14 12 26t27 13h400v576q0 14 12 26t27 13h102q14 0 26 -12t13 -27v-576h405q14 0 26 -11t11 -28v-57q0 -15 -11 -27t-26 -12h-409l-35 -1266q0 -12 -12 -22t-27 -10h-25q-14 0 -26 10t-12 22l-35 1266h-404z" />
    <glyph glyph-name="daggerdbl" unicode="&#x2021;" horiz-adv-x="1265" 
d="M164 39v57q0 14 12 26t27 13h356l-18 682v2h-400q-14 0 -26 12t-13 27v57q0 15 12 27t27 12h400v441q0 14 12 26t27 13h102q14 0 26 -12t13 -27v-441h405q14 0 26 -11t11 -28v-57q0 -16 -11 -28t-26 -11h-405l-19 -684h363q13 0 25 -11t12 -28v-57q0 -15 -11 -27t-26 -12
h-367l-16 -582q0 -12 -12 -22t-27 -10h-25q-14 0 -26 10t-12 22l-17 582h-360q-14 0 -27 12q-12 13 -12 27z" />
    <glyph glyph-name="bullet" unicode="&#x2022;" horiz-adv-x="724" 
d="M582 460q0 -90 -66 -152q-66 -64 -156 -64t-153 63t-63 153t62 156q64 66 154 66t156 -66t66 -156z" />
    <glyph glyph-name="ellipsis" unicode="&#x2026;" horiz-adv-x="1277" 
d="M123 97q0 48 35 82t83 34t82 -34q33 -34 33 -82t-34 -83q-34 -34 -81 -34q-48 0 -83 34t-35 83zM518 97q0 48 35 82t83 34t82 -34t34 -82t-34 -83q-34 -34 -82 -34t-83 34t-35 83zM922 97q0 48 34 82q35 34 83 34t82 -34t34 -82t-34 -83q-34 -34 -82 -34t-83 34
q-34 35 -34 83z" />
    <glyph glyph-name="perthousand" unicode="&#x2030;" horiz-adv-x="2019" 
d="M1182 252q0 66 -46 112t-112 46t-112 -46t-46 -112t46 -112t112 -46t112 46t46 112zM1658 410q-66 0 -111 -46q-46 -46 -46 -112t46 -112q45 -46 111 -46t112 46t46 112t-46 112t-112 46zM750 254q0 115 80 196q81 80 196 80t196 -80t81 -196q0 -115 -81 -196t-196 -81
t-196 81q-80 81 -80 196zM1384 254q0 115 81 196q81 80 196 80t196 -80t81 -196q0 -115 -82 -196q-80 -81 -195 -81t-196 81t-81 196zM376 1020q66 0 112 46t46 112t-46 111q-46 46 -112 46t-111 -46q-46 -45 -46 -111t46 -112q45 -46 111 -46zM1063 1434q23 0 34 -18t1 -38
l-707 -1358q-10 -20 -35 -20h-28q-23 0 -34 18t-1 37l702 1358q12 20 35 21h33zM379 903q-115 0 -196 81t-81 196q0 116 81 196t196 80t195 -81t81 -195q-1 -114 -81 -196q-80 -81 -195 -81z" />
    <glyph glyph-name="guilsinglleft" unicode="&#x2039;" horiz-adv-x="516" 
d="M373 774q27 0 35 -19t-5 -44l-151 -285l145 -301q12 -25 3 -43t-33 -19h-39q-19 1 -31 17l-213 317q-16 23 0 49l223 304q18 25 37 24h29z" />
    <glyph glyph-name="guilsinglright" unicode="&#x203a;" horiz-adv-x="516" 
d="M147 63q-25 1 -33 19t3 43l145 301l-151 285q-12 25 -5 44q8 19 35 19h29q20 0 37 -24l223 -304q16 -27 0 -49l-213 -317q-12 -16 -31 -17h-39z" />
    <glyph glyph-name="fraction" unicode="&#x2044;" horiz-adv-x="243" 
d="M-197 0h-28q-23 0 -34 17t-1 38l702 1358q12 20 35 21h33q23 0 34 -18t1 -38l-707 -1358q-10 -20 -35 -20z" />
    <glyph glyph-name="zerosuperior" unicode="&#x2070;" horiz-adv-x="712" 
d="M356 1110q68 0 105 58t37 166t-37 166t-105 58t-104 -58t-37 -166q1 -108 37 -166t104 -58zM356 1012q-122 0 -188 85t-66 237t67 238q67 85 187 85t188 -85q66 -85 66 -238q0 -154 -66 -238t-188 -84z" />
    <glyph glyph-name="foursuperior" unicode="&#x2074;" horiz-adv-x="739" 
d="M432 1243v242l-217 -242h217zM449 1032q-20 0 -21 19v102h-307q-18 0 -19 18v60l353 401q6 6 16 6h43q20 0 21 -18v-379h83q18 0 19 -16v-54q0 -16 -19 -16h-83v-104q0 -18 -21 -19h-65z" />
    <glyph glyph-name="fivesuperior" unicode="&#x2075;" horiz-adv-x="661" 
d="M304 1012q-116 0 -187 78q-16 18 -2 30l43 41q14 10 22 2q24 -25 67 -41q42 -16 87 -16t82 35t37 83t-35 79t-101 30h-157q-31 0 -31 33v254q0 18 18 18h320q18 0 18 -18v-55q0 -16 -18 -17h-240v-123h99q111 0 173 -54t62 -144t-69 -153q-72 -62 -188 -62z" />
    <glyph glyph-name="sixsuperior" unicode="&#x2076;" horiz-adv-x="663" 
d="M332 1108q57 0 93 35t36 82t-37 81t-86 34t-86 -24q-37 -22 -53 -46q2 -58 39 -110t94 -52zM326 1012q-102 0 -162 79q-62 79 -62 180q-1 188 138 292q103 79 192 106q16 6 25 -12l20 -47q10 -20 -18 -27q-59 -19 -137 -71t-101 -121q57 35 136 35t141 -54
q62 -53 63 -144q0 -91 -66 -154q-67 -62 -169 -62z" />
    <glyph glyph-name="sevensuperior" unicode="&#x2077;" horiz-adv-x="653" 
d="M162 1032q-18 0 -19 15v14l271 485h-293q-18 0 -19 19v55q0 18 19 18h411q18 0 19 -18v-23l-293 -546q-10 -18 -27 -19h-69z" />
    <glyph glyph-name="eightsuperior" unicode="&#x2078;" horiz-adv-x="657" 
d="M213 1186q0 -38 34 -62t82 -24t82 24q33 24 33 63q0 37 -30 67t-86 40q-53 -10 -84 -40t-31 -68zM430 1485q0 37 -30 61t-72 25q-42 0 -72 -25q-29 -25 -29 -61q1 -74 101 -92q102 18 102 92zM555 1172q-1 -64 -63 -112t-164 -48t-164 48t-62 112t41 111q41 46 76 60v5
q-37 16 -69 55t-31 101q0 62 59 109q60 46 150 46t150 -46q60 -45 60 -107t-31 -101q-32 -39 -71 -57v-5q43 -18 81 -62q38 -45 38 -109z" />
    <glyph glyph-name="ninesuperior" unicode="&#x2079;" horiz-adv-x="663" 
d="M326 1327q49 0 86 23t53 47q-2 59 -39 110t-94 51t-93 -34q-36 -35 -36 -82t37 -81t86 -34zM306 1241q-79 0 -141 53q-63 52 -63 144t67 154t169 62t162 -78q61 -78 61 -180q0 -234 -244 -362q-47 -25 -75 -34t-35 10l-21 47q-10 20 19 26q59 19 137 71t100 122
q-57 -35 -136 -35z" />
    <glyph glyph-name="zeroinferior" unicode="&#x2080;" horiz-adv-x="712" 
d="M356 219q-68 0 -104 -58q-36 -57 -37 -165q0 -108 37 -166q36 -58 104 -59q68 0 105 58t37 166t-37 166t-105 58zM356 -328q-122 0 -188 85t-66 238t67 237t187 85q120 0 188 -85q66 -86 66 -238t-66 -237t-188 -85z" />
    <glyph glyph-name="oneinferior" unicode="&#x2081;" horiz-adv-x="432" 
d="M311 299q18 0 19 -18v-570q0 -18 -19 -18h-71q-20 0 -21 18v430l-84 -22q-18 -4 -20 8l-11 35q-2 14 7 22l143 115h57z" />
    <glyph glyph-name="twoinferior" unicode="&#x2082;" horiz-adv-x="641" 
d="M520 -217q18 0 19 -21v-51q0 -18 -19 -18h-397q-20 0 -21 18v29l260 272q66 72 66 112t-30 70t-92 30t-122 -62q-12 -12 -24 0l-41 43q-12 12 -2 22l26 26q17 15 69 41t105 25q105 0 163 -51t58 -131t-100 -184l-166 -170h248z" />
    <glyph glyph-name="threeinferior" unicode="&#x2083;" horiz-adv-x="655" 
d="M205 25q0 18 20 18h64q65 0 99 26q34 25 34 65t-33 66t-89 26t-103 -50q-12 -12 -27 0l-41 37q-16 12 0 25q78 82 180 82q101 0 163 -48q62 -47 62 -109q0 -61 -32 -101q-33 -40 -74 -56v-4q45 -16 85 -58t40 -107t-65 -115q-66 -50 -184 -50t-195 84q-12 12 2 23l43 41
q14 8 26 -2q134 -89 221 -28q37 26 37 67t-38 69t-111 29h-64q-20 0 -20 18v52z" />
    <glyph glyph-name="fourinferior" unicode="&#x2084;" horiz-adv-x="739" 
d="M432 -96v241l-217 -241h217zM471 299h43q20 0 21 -18v-379h83q18 0 19 -17v-53q0 -16 -19 -16h-83v-105q0 -18 -21 -18h-65q-20 0 -21 18v103h-307q-18 0 -19 18v59l353 402q6 6 16 6z" />
    <glyph glyph-name="fiveinferior" unicode="&#x2085;" horiz-adv-x="661" 
d="M129 27v254q0 18 18 18h320q18 0 18 -18v-56q0 -16 -18 -16h-240v-123h99q111 0 173 -54t62 -144q1 -90 -69 -153t-187 -63t-188 78q-16 18 -2 31l43 41q14 10 22 2t24 -20t50 -24q35 -13 80 -13q45 1 82 35t37 82t-35 79t-101 31h-157q-31 0 -31 33z" />
    <glyph glyph-name="sixinferior" unicode="&#x2086;" horiz-adv-x="663" 
d="M332 -231q57 1 93 35t36 81t-37 81t-86 34t-86 -22t-53 -48q2 -59 39 -110t94 -51zM357 86q79 0 141 -53t63 -145q-1 -92 -67 -153q-66 -63 -168 -63t-162 79q-62 79 -62 181q0 188 138 291q105 80 192 107q16 6 25 -13l20 -47q10 -20 -18 -26q-59 -18 -137 -70
t-101 -123q57 35 136 35z" />
    <glyph glyph-name="seveninferior" unicode="&#x2087;" horiz-adv-x="653" 
d="M121 207q-18 0 -19 18v56q0 18 19 18h411q18 0 19 -18v-23l-293 -547q-10 -18 -27 -18h-69q-18 0 -19 14v14l271 486h-293z" />
    <glyph glyph-name="eightinferior" unicode="&#x2088;" horiz-adv-x="657" 
d="M213 -153q0 -39 34 -63t82 -24t82 25q33 25 33 63t-30 67q-31 30 -86 40q-53 -10 -84 -40t-31 -68zM227 145q0 -74 101 -92q102 18 102 92q0 37 -30 62t-72 25t-72 -26q-29 -24 -29 -61zM102 -168q0 64 41 112q41 46 76 60v4q-37 16 -69 55t-31 102q0 63 59 109
q60 46 150 45q90 0 150 -46t60 -107t-31 -100q-32 -39 -71 -58v-4q43 -18 81 -62t38 -109t-62 -113q-63 -48 -165 -48t-164 48t-62 112z" />
    <glyph glyph-name="nineinferior" unicode="&#x2089;" horiz-adv-x="663" 
d="M203 102q0 -46 37 -80t86 -34t86 22t53 47q-2 59 -39 111t-94 51q-57 0 -93 -35t-36 -82zM306 -98q-80 0 -142 53t-62 144t67 153t169 63q102 -1 162 -79q61 -78 61 -180q0 -239 -244 -361q-47 -25 -75 -34t-35 9l-21 47q-10 20 19 27q59 18 137 70t100 123
q-57 -35 -136 -35z" />
    <glyph glyph-name="Euro" unicode="&#x20ac;" horiz-adv-x="1497" 
d="M78 518q-14 0 -26 11q-11 11 -11 28v14q0 15 11 27t26 12h82q-6 50 -6 94t2 60h-78q-14 0 -26 11q-11 11 -11 28v14q0 15 11 27t26 12h88q49 258 253 428t475 170t495 -190q29 -31 2 -58l-50 -49q-33 -33 -67 2q-158 147 -372 147t-368 -127q-154 -128 -198 -323h575
q15 0 27 -11t12 -28v-16q0 -17 -11 -27t-28 -10h-589q-9 -73 6 -154h501q15 0 27 -11t12 -28v-16q0 -17 -11 -27t-28 -10h-477q60 -172 206 -280t333 -109q119 0 205 40t188 118q25 20 49 6l60 -60q12 -10 11 -26t-13 -29q-205 -199 -498 -198q-254 0 -451 150t-262 388
h-102z" />
    <glyph glyph-name="afii61289" unicode="&#x2113;" horiz-adv-x="1034" 
d="M825 1186q0 78 -31 122q-32 44 -89 44q-107 0 -181 -155t-135 -462l-29 -143q205 88 335 238t130 356zM217 303q0 61 14 148q-59 -18 -106 -27q-27 -2 -33 18l-8 45q-10 33 27 39q94 16 143 33q25 127 37 193q70 350 168 527t246 177q104 0 162 -73q59 -73 59 -221
t-87 -292t-212 -232q-125 -89 -287 -151q-23 -98 -23 -180q0 -225 179 -225q170 0 321 92q29 18 41 -6l21 -33q13 -23 -5 -39q-55 -50 -169 -84q-113 -33 -209 -32q-147 0 -213 91t-66 232z" />
    <glyph glyph-name="trademark" unicode="&#x2122;" horiz-adv-x="1476" 
d="M324 815q-16 0 -28 11q-11 11 -11 28v479h-144q-16 -1 -27 11t-12 28v23q0 14 12 26t27 13h391q16 0 28 -12t11 -27v-23q0 -39 -39 -39h-143v-479q0 -14 -12 -26t-27 -13h-26zM678 815q-20 0 -32 14q-11 14 -7 33l106 551q8 31 39 31h9q27 0 34 -23l166 -434l168 434
q8 23 35 23h8q31 0 39 -31l109 -553q2 -18 -10 -32t-29 -13h-25q-31 0 -39 35l-69 338l-148 -361q-8 -18 -33 -18h-12q-29 0 -35 20l-143 359l-72 -340q-8 -33 -39 -33h-20z" />
    <glyph glyph-name="Omega" unicode="&#x2126;" horiz-adv-x="1597" 
d="M100 31v84q0 12 10 21t21 9h227q-139 82 -219 238t-80 338q0 307 215 520q214 213 522 213t523 -213t215 -520q0 -182 -80 -338t-217 -238h227q12 0 22 -9t9 -21v-84q0 -11 -9 -21t-22 -10h-510q-29 0 -28 31v59q0 29 35 45q188 59 309 221t121 359q-1 242 -177 418
t-418 176t-416 -176q-175 -176 -175 -418q0 -197 121 -359t309 -221q33 -16 33 -45v-59q0 -31 -29 -31h-508q-11 0 -21 10t-10 21z" />
    <glyph glyph-name="estimated" unicode="&#x212e;" horiz-adv-x="1685" 
d="M295 760h1040v344q-86 118 -223 186t-298 68t-296 -66t-223 -184v-348zM801 -23q-301 0 -516 213q-215 212 -215 524t216 527t527 215t527 -215t219 -526q0 -49 -39 -49h-1225v-342q80 -117 221 -184t297 -66q236 0 438 176q23 23 47 2l25 -29q16 -20 -8 -45
q-213 -201 -514 -201z" />
    <glyph glyph-name="onethird" unicode="&#x2153;" horiz-adv-x="1275" 
d="M947 72q52 0 89 26t37 66q0 42 -38 70t-111 28h-64q-20 0 -20 19v51q0 18 20 18h64q66 0 100 26t33 66q0 40 -33 65q-32 25 -88 25t-105 -49q-12 -12 -26 0l-41 37q-16 12 0 25q78 82 180 82t164 -47q62 -48 61 -110t-33 -101t-73 -56v-4q45 -16 85 -58q40 -43 40 -107
t-65 -114t-183 -50t-197 83q-12 12 2 23l43 41q14 8 27 -2q80 -53 132 -53zM240 827q-20 0 -21 19v430l-84 -23q-18 -4 -20 9l-11 34q-2 14 7 23l143 115h57q18 0 19 -19v-569q0 -18 -19 -19h-71zM981 1434q23 0 34 -18t1 -38l-707 -1358q-10 -20 -35 -20h-28q-23 0 -34 18
t-1 37l702 1358q12 20 35 21h33z" />
    <glyph glyph-name="twothirds" unicode="&#x2154;" horiz-adv-x="1275" 
d="M947 72q52 0 89 26t37 66q0 42 -38 70t-111 28h-64q-20 0 -20 19v51q0 18 20 18h64q66 0 100 26t33 66q0 40 -33 65q-32 25 -88 25t-105 -49q-12 -12 -26 0l-41 37q-16 12 0 25q78 82 180 82t164 -47q62 -48 61 -110t-33 -101t-73 -56v-4q45 -16 85 -58q40 -43 40 -107
t-65 -114t-183 -50t-197 83q-12 12 2 23l43 41q14 8 27 -2q80 -53 132 -53zM981 1434q23 0 34 -18t1 -38l-707 -1358q-10 -20 -35 -20h-28q-23 0 -34 18t-1 37l702 1358q12 20 35 21h33zM20 827q-20 0 -20 19v28l260 273q66 72 66 112q0 39 -30 69t-92 30t-122 -62
q-12 -12 -25 0l-41 43q-12 13 -2 23l26 26t70 40q52 26 105 26q105 0 163 -51t58 -131t-100 -185l-166 -169h248q18 0 18 -21v-51q0 -18 -18 -19h-398z" />
    <glyph glyph-name="oneeighth" unicode="&#x215b;" horiz-adv-x="1275" 
d="M885 155q0 -38 34 -63q33 -24 81 -24t82 24t34 63q0 37 -31 67t-86 40q-53 -10 -83 -40t-31 -67zM899 453q0 -74 100 -93q102 18 103 93q0 37 -30 61t-73 25q-43 -1 -71 -25t-29 -61zM1227 140q-1 -64 -63 -112t-164 -48t-164 48t-62 112t41 111q41 46 76 60v4
q-37 15 -69 55t-31 89q0 76 59 122t149 46q91 0 151 -46t60 -122q0 -47 -32 -86t-70 -58v-4q43 -18 81 -62q38 -45 38 -109zM240 827q-20 0 -21 19v430l-84 -23q-18 -4 -20 9l-11 34q-2 14 7 23l143 115h57q18 0 19 -19v-569q0 -18 -19 -19h-71zM981 1434q23 0 34 -18t1 -38
l-707 -1358q-10 -20 -35 -20h-28q-23 0 -34 18t-1 37l702 1358q12 20 35 21h33z" />
    <glyph glyph-name="threeeighths" unicode="&#x215c;" horiz-adv-x="1394" 
d="M967 155q-1 -38 33 -63q34 -24 82 -24t82 24t34 63q0 37 -31 67t-86 40q-53 -10 -83 -40t-31 -67zM981 453q0 -74 100 -93q102 18 103 93q0 37 -30 61t-73 25q-43 -1 -71 -25t-29 -61zM1309 140q-1 -64 -63 -112t-164 -48t-164 48t-62 112t41 111q41 46 76 60v4
q-37 15 -69 55t-32 102t60 109q60 46 149 46q91 0 151 -46t60 -122q0 -47 -32 -86t-70 -58v-4q43 -18 81 -62q38 -45 38 -109zM1063 1434q23 0 34 -18t1 -38l-707 -1358q-10 -20 -35 -20h-28q-23 0 -34 18t-1 37l702 1358q12 20 35 21h33zM304 807q-118 0 -195 84
q-12 12 2 22l43 41q14 8 26 -2q80 -53 132 -53t89 26q37 27 37 67t-38 69t-111 29h-64q-20 0 -20 18v51q0 18 20 19h64q65 0 99 26t34 65t-33 65t-89 26t-103 -49q-12 -12 -27 0l-41 37q-16 12 0 24q78 82 180 82q101 0 163 -47t62 -109t-32 -102q-33 -39 -74 -55v-4
q45 -17 85 -59t40 -106t-65 -115q-66 -50 -184 -50z" />
    <glyph glyph-name="fiveeighths" unicode="&#x215d;" horiz-adv-x="1394" 
d="M969 155q-1 -38 33 -63q34 -24 82 -24t82 24t34 63q0 37 -31 67t-86 40q-53 -10 -83 -40t-31 -67zM983 453q0 -74 100 -93q102 18 103 93q0 37 -30 61t-73 25q-43 -1 -71 -25t-29 -61zM1311 140q-1 -64 -63 -112t-164 -48t-164 48t-62 112t41 111q41 46 76 60v4
q-37 15 -69 55t-32 102t60 109q60 46 149 46q91 0 151 -46t60 -122q0 -47 -32 -86t-70 -58v-4q43 -18 81 -62q38 -45 38 -109zM304 807q-116 0 -187 78q-16 18 -2 30l43 41q14 10 22 2q24 -24 67 -41q42 -16 87 -16t82 35t37 83t-35 79t-101 30h-157q-31 0 -31 33v254
q0 18 18 19h320q18 0 18 -19v-55q0 -16 -18 -17h-240v-122h99q111 -1 173 -55t62 -144t-69 -153q-72 -62 -188 -62zM1065 1434q23 0 34 -18t1 -38l-707 -1358q-10 -20 -35 -20h-28q-23 0 -34 18t-1 37l702 1358q12 20 35 21h33z" />
    <glyph glyph-name="seveneighths" unicode="&#x215e;" horiz-adv-x="1394" 
d="M967 155q-1 -38 33 -63q34 -24 82 -24t82 24t34 63q0 37 -31 67t-86 40q-53 -10 -83 -40t-31 -67zM981 453q0 -74 100 -93q102 18 103 93q0 37 -30 61t-73 25q-43 -1 -71 -25t-29 -61zM1309 140q-1 -64 -63 -112t-164 -48t-164 48t-62 112t41 111q41 46 76 60v4
q-37 15 -69 55t-32 102t60 109q60 46 149 46q91 0 151 -46t60 -122q0 -47 -32 -86t-70 -58v-4q43 -18 81 -62q38 -45 38 -109zM223 827q-18 0 -18 15v14l270 485h-293q-18 0 -18 19v55q0 18 18 19h412q18 0 18 -19v-22l-293 -547q-10 -18 -26 -19h-70zM1063 1434
q23 0 34 -18t1 -38l-707 -1358q-10 -20 -35 -20h-28q-23 0 -34 18t-1 37l702 1358q12 20 35 21h33z" />
    <glyph glyph-name="partialdiff" unicode="&#x2202;" horiz-adv-x="1167" 
d="M264 440q0 -133 89 -229t203 -96t189 51q74 51 107 128q79 185 45 333q-14 14 -42 37q-28 24 -113 60t-169 36q-129 0 -219 -94t-90 -226zM119 452q0 196 130 318t310 123q78 0 156 -23t116 -47l39 -22q-20 77 -73 155q-91 133 -235 232q-145 99 -209 119t-46 63l23 49
q14 33 45 21q173 -71 298 -168t199 -188t125 -228t52 -293q0 -260 -120 -422t-358 -161q-184 0 -318 138t-134 334z" />
    <glyph glyph-name="Delta" unicode="&#x2206;" horiz-adv-x="1404" 
d="M252 145h899l-444 1029h-5zM98 0q-78 0 -37 80l611 1364q10 18 28 18h11q18 0 28 -18l609 -1368q35 -76 -37 -76h-1213z" />
    <glyph glyph-name="product" unicode="&#x220f;" horiz-adv-x="1347" 
d="M100 31v1372q0 12 10 21t21 10h1083q31 0 31 -31v-1372q0 -31 -31 -31h-98q-12 0 -21 9t-10 22v1257h-825v-1257q0 -31 -31 -31h-98q-11 0 -21 10t-10 21z" />
    <glyph glyph-name="summation" unicode="&#x2211;" horiz-adv-x="1087" 
d="M100 31v41l635 659l-635 635v37q0 31 29 31h829q12 0 22 -10t9 -21v-86q0 -11 -9 -21t-22 -10h-591l491 -473q31 -31 31 -53v-55q0 -14 -31 -52l-491 -508h591q31 0 31 -28v-86q0 -11 -9 -21t-22 -10h-829q-29 0 -29 31z" />
    <glyph glyph-name="minus" unicode="&#x2212;" horiz-adv-x="1060" 
d="M141 643q-14 0 -26 12t-13 27v57q0 15 12 27t27 12h781q14 0 25 -11t11 -28v-57q0 -16 -11 -28t-25 -11h-781z" />
    <glyph glyph-name="uni2215" unicode="&#x2215;" horiz-adv-x="243" 
d="M-197 0h-28q-23 0 -34 17t-1 38l702 1358q12 20 35 21h33q23 0 34 -18t1 -38l-707 -1358q-10 -20 -35 -20z" />
    <glyph glyph-name="uni2219" unicode="&#x2219;" horiz-adv-x="724" 
d="M363 418q-49 0 -83 35t-34 83t35 82t83 33q48 0 81 -34q34 -33 34 -81t-34 -83t-82 -35z" />
    <glyph glyph-name="radical" unicode="&#x221a;" horiz-adv-x="1368" 
d="M104 819h105q20 0 27 -16l227 -535h6l508 1145q8 20 31 21h305q29 0 28 -31v-72q0 -31 -28 -31h-228l-587 -1300q-6 -20 -29 -20h-12q-17 0 -27 20l-346 784q-18 35 20 35z" />
    <glyph glyph-name="infinity" unicode="&#x221e;" horiz-adv-x="1245" 
d="M389 436q70 0 120 50t50 120t-50 120t-120 50t-120 -50t-50 -120t50 -120t120 -50zM684 606q0 -72 49 -121t120 -49t121 50t50 120t-50 120t-121 50t-120 -49t-49 -121zM387 322q-119 0 -202 84t-83 202t83 200q83 83 202 83q70 0 132 -38t102 -97q86 135 237 135
q117 0 201 -83t84 -201q0 -117 -84 -201t-201 -84q-72 0 -135 38t-102 97q-39 -59 -101 -97t-133 -38z" />
    <glyph glyph-name="integral" unicode="&#x222b;" horiz-adv-x="804" 
d="M287 -287v1393q0 170 87 259t225 89t226 -84q25 -20 9 -47l-33 -53q-18 -31 -53 -2q-78 59 -152 59t-121 -54t-47 -167v-1393q0 -170 -87 -259t-225 -89t-227 84q-25 20 -8 47l33 53q18 31 53 2q78 -59 152 -59t121 54t47 167z" />
    <glyph glyph-name="approxequal" unicode="&#x2248;" horiz-adv-x="894" 
d="M571 371q82 0 131 104q14 31 46 8l45 -32q25 -16 4 -45q-5 -6 -11 -18q-53 -95 -135 -132q-39 -18 -80 -18q-83 0 -157 62t-119 62q-82 0 -131 -104q-14 -31 -45 -8l-45 33q-25 16 -4 45q4 6 10 17q50 92 135 132q39 18 80 19q79 0 155 -62t121 -63zM295 913
q79 0 155 -62t121 -63q82 0 131 105q14 31 46 8l45 -33q25 -16 4 -45q-5 -6 -11 -17q-87 -148 -215 -151q-83 1 -157 63t-119 62q-84 0 -133 -104q-14 -31 -45 -8l-43 32q-25 16 -4 45q4 5 10 17q48 91 135 133q39 18 80 18z" />
    <glyph glyph-name="notequal" unicode="&#x2260;" horiz-adv-x="894" 
d="M141 287q-16 0 -27 11t-12 28v63q0 15 12 27t27 12h209l137 291h-346q-16 0 -27 11t-12 28v61q0 15 12 27t27 12h410l74 156q15 35 57 16t25 -53l-56 -119h103q16 0 27 -11t12 -28v-61q1 -16 -11 -28t-28 -11h-168l-135 -291h303q16 0 27 -11t12 -28v-63q1 -16 -11 -28
t-28 -11h-369l-74 -158q-12 -41 -61 -12q-39 16 -21 49l56 121h-144z" />
    <glyph glyph-name="lessequal" unicode="&#x2264;" horiz-adv-x="923" 
d="M72 125q-14 0 -27 11q-12 11 -12 28v57q0 15 12 27t27 12h780q14 0 26 -11t11 -28v-57q0 -16 -11 -28t-26 -11h-780zM39 817v10q0 18 20 33l787 397q37 18 37 -24v-84q0 -20 -17 -31l-620 -295l620 -288q16 -10 17 -31v-84q1 -18 -11 -26t-26 1l-787 387q-20 14 -20 35z
" />
    <glyph glyph-name="greaterequal" unicode="&#x2265;" horiz-adv-x="923" 
d="M70 125q-14 0 -26 11q-11 11 -11 28v57q0 15 11 27t26 12h780q14 0 26 -11t13 -28v-57q0 -16 -12 -28t-27 -11h-780zM39 420v84q0 20 16 31l621 288l-621 295q-16 10 -16 31v84q0 43 37 24l786 -397q20 -14 21 -33v-10q0 -20 -21 -35l-786 -387q-14 -8 -26 -1
q-11 7 -11 26z" />
    <glyph glyph-name="lozenge" unicode="&#x25ca;" horiz-adv-x="1404" 
d="M702 195h5l385 534l-385 539h-5l-385 -539zM700 1462h11q18 0 28 -18l451 -606q47 -68 45 -110t-45 -107l-451 -605q-8 -16 -28 -16h-11q-16 0 -28 16l-457 611q-29 39 -37 61q-23 62 41 148l453 608q10 18 28 18z" />
    <glyph glyph-name="uniF8FF" unicode="&#xf8ff;" horiz-adv-x="1226" 
d="M502 319q0 -41 30 -69t69 -29q40 0 70 29q29 30 29 70t-29 69q-30 29 -70 29q-39 0 -69 -29t-30 -70zM537 643q0 -25 28 -25h74q31 0 31 27v53q0 57 107 124q40 26 74 75t34 109q0 98 -73 162t-193 65q-120 0 -213 -80q-22 -18 -41 -44t-3 -38l46 -45q24 -18 70 33
q45 51 120 51q74 0 108 -31t34 -75t-32 -80q-32 -37 -70 -62q-38 -24 -70 -66t-31 -94v-59zM102 61v1311q0 61 62 62h899q61 0 61 -62v-1311q0 -61 -61 -61h-899q-62 0 -62 61z" />
    <glyph glyph-name="CR" horiz-adv-x="0" 
 />
    <glyph glyph-name="grave.cap" horiz-adv-x="618" 
d="M465 1599l-330 138q-29 10 -12 43l37 73q6 11 25 13t28 -6l307 -172q25 -12 12 -39l-20 -45q-10 -21 -47 -5z" />
    <glyph glyph-name="acute.cap" horiz-adv-x="618" 
d="M143 1604l-20 45q-12 27 12 39l307 172q8 8 28 7t26 -14l36 -73q16 -33 -12 -43l-330 -138q-37 -15 -47 5z" />
    <glyph glyph-name="circumflex.cap" horiz-adv-x="763" 
d="M123 1587l-29 37q-14 20 12 39l246 192q10 9 26 9t28 -9l245 -192q27 -18 13 -39q-4 -4 -12 -16t-18 -26q-17 -23 -46 -3l-209 143l-209 -139q-31 -21 -47 4z" />
    <glyph glyph-name="caron.cap" horiz-adv-x="763" 
d="M379 1573q-16 0 -27 8l-246 193q-27 18 -12 38l29 37q16 25 47 4l209 -139l209 144q31 20 47 -5l29 -41q4 -6 4 -16t-14 -21q-14 -10 -20 -15q-7 -5 -9 -7l-219 -172q-11 -8 -27 -8z" />
    <glyph glyph-name="caron.alt" horiz-adv-x="763" 
d="M358 1456q135 0 136 -184q0 -115 -54 -217t-118 -162q-29 -25 -50 -4l-28 29q-20 20 12 49q127 115 127 258q-8 -2 -40 -2q-32 1 -67 35q-34 34 -34 82t34 82q35 34 82 34z" />
    <glyph glyph-name="tilde.cap" horiz-adv-x="778" 
d="M500 1712q61 0 92 105q10 33 47 16l33 -16q20 -10 8 -54q-57 -166 -182 -166q-49 0 -94 39q-44 39 -76 77q-33 38 -57 38t-44 -18q-20 -17 -27 -35t-18 -49q-12 -41 -51 -21l-37 19q-23 12 -8 45q0 2 12 30q42 100 107 128q93 39 165 -24q42 -38 74 -76t56 -38z" />
    <glyph glyph-name="dieresis.cap" horiz-adv-x="970" 
d="M367 1718q0 -40 -29 -68t-69 -28q-41 0 -69 29t-28 69t28 68q28 29 68 29t70 -29q29 -29 29 -70zM700 1622q-40 0 -68 29t-28 69t28 68q28 29 68 29t70 -29q29 -29 29 -70q0 -40 -29 -68t-70 -28z" />
    <glyph glyph-name="macron.cap" horiz-adv-x="847" 
d="M725 1718q0 -35 -39 -37h-524q-16 1 -28 11t-11 26v43q0 39 39 39h524q39 0 39 -39v-43z" />
    <glyph glyph-name="breve.cap" horiz-adv-x="708" 
d="M353 1579q-105 0 -183 67t-92 166q-8 41 28 41h44q27 0 38 -34q16 -59 62 -95t102 -36q57 0 102 37q44 37 59 83t42 45h47q37 0 29 -41q-17 -100 -95 -166t-183 -67z" />
    <glyph glyph-name="ring.cap" horiz-adv-x="593" 
d="M297 1651q49 0 85 38t36 87t-36 85q-36 35 -85 35t-87 -36t-38 -84q0 -49 38 -87t87 -38zM296 1552q-93 0 -158 65t-64 159q0 94 64 158t158 65q93 0 159 -65q65 -64 65 -158t-66 -159t-158 -65z" />
    <glyph glyph-name="hungarumlaut.cap" horiz-adv-x="802" 
d="M133 1575q-16 0 -30 12q-13 12 -9 27l103 289q12 39 39 39h79q29 0 39 -16t-2 -36l-159 -284q-16 -31 -37 -31h-23zM473 1575q-16 0 -30 12q-13 12 -9 27l103 289q12 39 38 39h80q29 0 39 -16t-2 -36l-160 -284q-16 -31 -36 -31h-23z" />
    <glyph glyph-name="dotaccent.cap" horiz-adv-x="448" 
d="M222 1630q-48 0 -83 35t-35 83t35 82t83 34t82 -34t34 -82t-34 -83t-82 -35z" />
    <glyph glyph-name="cedilla.cap" horiz-adv-x="505" 
d="M117 0h110v-109q95 -12 155 -68t60 -144q0 -87 -62 -149t-154 -62t-154 71q-29 33 0 53l28 23q29 20 47 0q35 -37 80 -37t70 27t25 69t-31 73q-31 30 -62 39t-71 16t-41 42v156z" />
    <glyph glyph-name="ogonek.cap" horiz-adv-x="565" 
d="M211 -198q0 -54 35 -88q69 -67 194 -1q12 6 24 -2t13 -26v-52q0 -18 -28 -34q-61 -31 -149 -31t-149 53q-63 53 -63 150t45 157t82 84l14 11h105q-45 -32 -84 -99q-39 -68 -39 -122z" />
    <glyph glyph-name="commaaccent" horiz-adv-x="598" 
d="M281 -188q135 0 135 -185q0 -115 -54 -217t-118 -162q-29 -25 -49 -4l-29 29q-20 20 12 49q127 115 127 258q-8 -2 -24 -2q-47 0 -82 35t-35 83t35 82t82 34z" />
    <glyph glyph-name="commaaccent.alt" horiz-adv-x="598" 
d="M281 -188q135 0 135 -185q0 -115 -54 -217t-118 -162q-29 -25 -49 -4l-29 29q-20 20 12 49q127 115 127 258q-8 -2 -24 -2q-47 0 -82 35t-35 83t35 82t82 34z" />
    <glyph glyph-name="commaaccent.cap" horiz-adv-x="598" 
d="M281 -188q135 0 135 -185q0 -115 -54 -217t-118 -162q-29 -25 -49 -4l-29 29q-20 20 12 49q127 115 127 258q-8 -2 -24 -2q-47 0 -82 35t-35 83t35 82t82 34z" />
    <glyph glyph-name="brokenbar.case" horiz-adv-x="745" 
d="M328 346q0 16 11 28t28 11h14q17 0 27 -11t10 -28v-678q0 -14 -11 -25t-28 -12h-12q-15 -1 -27 11t-12 26v678zM367 1051q-16 0 -28 11q-11 11 -11 25v676q0 15 11 27t28 12h14q17 0 27 -11t10 -28v-676q0 -14 -11 -25t-28 -11h-12z" />
    <glyph glyph-name="zero.tf" horiz-adv-x="1236" 
d="M618 113q170 0 262 151q91 152 91 432t-92 432q-93 152 -261 152t-260 -153t-92 -433t91 -430q91 -151 261 -151zM618 -20q-238 0 -368 189t-129 527q0 338 130 528q129 190 367 189q238 0 368 -189q130 -190 130 -528t-130 -527t-368 -189z" />
    <glyph glyph-name="one.tf" horiz-adv-x="1236" 
d="M262 0q-39 0 -39 37v45q0 39 39 39h316v1018l-203 -158q-27 -20 -47 2l-39 43q-18 23 4 45l342 322h55q14 1 26 -11t11 -28v-1233h250q39 0 39 -39v-45q0 -17 -11 -27t-28 -10h-715z" />
    <glyph glyph-name="two.tf" horiz-adv-x="1236" 
d="M170 39v61q84 90 251 272t251 271q207 225 207 371q0 102 -71 181t-217 79t-290 -154q-27 -27 -55 0l-41 39q-25 29 -2 53q96 128 255 180q67 22 134 21q209 0 326 -115t116 -280q0 -123 -63 -224t-161 -206t-228 -245t-197 -210h602q15 0 27 -11t12 -28v-55
q0 -15 -11 -27t-28 -12h-778q-16 0 -28 11q-11 12 -11 28z" />
    <glyph glyph-name="three.tf" horiz-adv-x="1236" 
d="M586 106q123 0 209 70t86 186t-91 192q-91 77 -272 77h-115q-39 0 -38 45v49q0 45 43 45h112q158 0 242 71t84 183t-78 184q-78 70 -190 70q-152 0 -269 -133q-25 -29 -53 -4l-49 39q-29 25 0 53q13 17 59 56q148 124 324 124t293 -102t116 -273q1 -110 -65 -198
t-146 -125v-6q92 -39 169 -126t77 -206q0 -172 -124 -285t-330 -112q-252 0 -412 182q-25 29 2 49l55 47q31 23 53 -5q22 -27 51 -53t103 -60t154 -34z" />
    <glyph glyph-name="four.tf" horiz-adv-x="1236" 
d="M813 442v713l-577 -713h577zM1118 440q39 0 39 -37v-45q0 -16 -11 -27t-28 -12h-166v-280q0 -15 -11 -27t-28 -12h-69q-16 0 -28 12q-11 12 -11 27v276h-703q-16 -1 -27 11t-12 28v76l777 973q12 12 30 12h41q15 0 27 -11t12 -28l2 -936h166z" />
    <glyph glyph-name="five.tf" horiz-adv-x="1236" 
d="M926 445q0 128 -83 212t-239 84h-311q-29 0 -46 23t-18 49v541q-1 16 11 27t28 12h619q16 1 27 -11t12 -28v-60q0 -16 -12 -27t-27 -12h-520v-376h237q229 0 351 -114q122 -115 122 -313t-135 -335t-340 -137q-254 0 -395 170q-35 39 -4 69q8 5 23 21t24 24q31 27 50 -1
q19 -27 47 -55q29 -28 101 -63t156 -34q141 0 232 103q90 103 90 231z" />
    <glyph glyph-name="six.tf" horiz-adv-x="1236" 
d="M654 115q114 0 203 96t89 229q0 132 -90 226t-219 94q-84 0 -165 -34t-120 -67l-39 -32q-34 -148 45 -333q33 -77 107 -128q75 -51 189 -51zM162 563q0 156 51 293t125 228t198 188t300 168q31 12 45 -21l22 -49q18 -43 -37 -59q-75 -24 -174 -93q-100 -69 -162 -126
q-62 -58 -116 -136q-53 -78 -74 -155q45 32 139 62q95 30 172 30q181 0 311 -123q130 -122 130 -318t-134 -334t-319 -138q-237 0 -357 162t-120 421z" />
    <glyph glyph-name="seven.tf" horiz-adv-x="1236" 
d="M315 39v22l572 1194h-670q-15 -1 -27 11t-12 28v60q0 14 11 26t28 13h823q16 -1 28 -13t11 -26v-15l-598 -1286q-25 -53 -67 -53h-60q-14 0 -26 12t-13 27z" />
    <glyph glyph-name="eight.tf" horiz-adv-x="1236" 
d="M311 352q0 -108 89 -178q89 -72 219 -72t219 70q88 70 88 179t-84 191t-224 95q-141 -13 -224 -95t-83 -190zM891 1040q0 108 -79 179t-197 71q-117 0 -193 -72t-76 -180q0 -106 68 -172t204 -78q135 14 204 79t69 173zM158 375q0 119 79 211t169 131v6q-82 37 -147 122
t-64 193q0 168 118 272q119 103 304 103t305 -103t120 -272q0 -110 -64 -194t-147 -121v-6q90 -39 169 -131t79 -211q0 -172 -126 -284q-126 -111 -336 -111q-211 0 -335 112t-124 283z" />
    <glyph glyph-name="nine.tf" horiz-adv-x="1236" 
d="M598 645q84 0 165 34t120 66l39 33q34 148 -45 333q-33 77 -107 128t-188 51t-204 -96q-89 -96 -89 -229t90 -227t219 -93zM584 512q-180 0 -311 123q-130 123 -130 319q1 196 135 333q134 138 318 138q238 1 358 -161t119 -422q0 -156 -51 -293t-125 -228t-198 -188
t-300 -168q-31 -12 -45 21l-22 49q-18 43 37 59q75 24 174 93q100 69 163 126q62 57 115 135t74 156q-45 -32 -139 -62q-95 -30 -172 -30z" />
    <glyph glyph-name="zero.denom" horiz-adv-x="712" 
d="M356 78q68 0 105 58t37 166t-37 166t-105 58t-104 -58t-37 -166q1 -108 37 -166t104 -58zM356 -20q-122 0 -188 84t-66 238q0 153 67 238t187 85t188 -85q66 -85 66 -238q0 -154 -66 -238t-188 -84z" />
    <glyph glyph-name="one.denom" horiz-adv-x="432" 
d="M219 18v431l-84 -23q-18 -4 -20 8l-11 35q-2 14 7 23l143 114h57q18 0 19 -18v-570q0 -18 -19 -18h-71q-21 0 -21 18z" />
    <glyph glyph-name="two.denom" horiz-adv-x="641" 
d="M102 18v29l260 272q66 72 66 112t-30 70q-30 29 -92 29t-122 -61q-12 -12 -24 0l-41 43q-12 12 -2 22l26 26q17 15 69 41t105 26q105 1 163 -51t58 -132t-100 -184l-166 -170h248q18 0 19 -20v-52q0 -18 -19 -18h-397q-21 0 -21 18z" />
    <glyph glyph-name="three.denom" horiz-adv-x="655" 
d="M312 72q52 0 89 26t37 66q0 42 -38 70t-111 28h-64q-20 0 -20 19v51q0 18 20 18h64q65 0 99 26t34 66t-33 65t-89 25t-103 -49q-12 -12 -27 0l-41 37q-16 12 0 25q78 82 180 82q101 0 163 -47q62 -48 62 -110t-32 -101q-33 -39 -74 -56v-4q45 -16 85 -58q40 -43 40 -107
t-65 -114t-183 -50t-196 83q-12 12 2 23l43 41q14 8 26 -2q80 -53 132 -53z" />
    <glyph glyph-name="four.denom" horiz-adv-x="739" 
d="M432 211v242l-217 -242h217zM121 121q-18 0 -19 18v60l353 401q6 6 16 6h43q20 0 21 -18v-379h83q18 0 19 -16v-54q0 -16 -19 -16h-83v-105q0 -18 -21 -18h-65q-20 0 -21 18v103h-307z" />
    <glyph glyph-name="five.denom" horiz-adv-x="661" 
d="M453 192q0 48 -35 78q-35 31 -101 31h-157q-31 0 -31 33v254q0 18 18 18h320q18 0 18 -18v-56q0 -16 -18 -16h-240v-123h99q111 0 173 -54t62 -144t-69 -153q-70 -62 -186 -62t-189 77q-16 18 -2 31l43 41q14 10 24 0q55 -55 152 -55q45 0 82 35t37 83z" />
    <glyph glyph-name="six.denom" horiz-adv-x="663" 
d="M332 76q57 0 93 35t36 82t-37 81t-86 33q-49 0 -86 -22t-53 -47q2 -58 39 -110t94 -52zM326 -20q-102 0 -162 78q-62 78 -62 180q0 190 138 292q105 80 192 107q16 6 25 -12l20 -47q10 -20 -18 -27q-59 -19 -137 -71t-101 -122q57 35 136 35t141 -53t63 -144
q0 -91 -66 -154q-67 -62 -169 -62z" />
    <glyph glyph-name="seven.denom" horiz-adv-x="653" 
d="M143 14v15l271 485h-293q-18 0 -19 18v56q0 18 19 18h411q18 0 19 -18v-23l-293 -547q-10 -18 -27 -18h-69q-19 0 -19 14z" />
    <glyph glyph-name="eight.denom" horiz-adv-x="657" 
d="M213 155q0 -38 34 -63q34 -24 82 -24t82 24q33 24 33 63q0 37 -30 67t-86 40q-53 -10 -84 -40t-31 -67zM430 453q0 37 -30 61t-72 25q-42 0 -72 -25q-29 -25 -29 -61q1 -75 101 -93q102 18 102 93zM102 140q0 64 41 111q41 46 76 60v4q-37 15 -69 55t-31 102q0 62 59 109
q60 46 150 46t150 -46q60 -45 60 -107t-31 -101q-32 -39 -71 -58v-4q43 -18 81 -62q38 -45 38 -109t-62 -112q-63 -48 -165 -48t-164 48t-62 112z" />
    <glyph glyph-name="nine.denom" horiz-adv-x="663" 
d="M326 295q49 1 86 23t53 47q-2 59 -39 110t-94 51t-93 -34t-36 -82q0 -47 37 -81t86 -34zM306 209q-79 0 -141 53q-63 52 -63 144t67 154t169 62t162 -78q61 -78 61 -180q0 -189 -137 -292q-105 -80 -193 -107q-16 -6 -24 12l-21 48q-10 20 19 26q59 19 137 71t100 122
q-57 -35 -136 -35z" />
    <glyph glyph-name="zero.num" horiz-adv-x="712" 
d="M356 905q68 1 105 59t37 166t-37 165q-37 59 -105 59t-104 -58t-37 -166q1 -108 37 -166t104 -59zM356 807q-122 0 -188 85q-66 86 -66 238t67 237t187 85t188 -85q66 -85 66 -238t-66 -237t-188 -85z" />
    <glyph glyph-name="one.num" horiz-adv-x="432" 
d="M240 827q-20 0 -21 19v430l-84 -23q-18 -4 -20 9l-11 34q-2 14 7 23l143 115h57q18 0 19 -19v-569q0 -18 -19 -19h-71z" />
    <glyph glyph-name="two.num" horiz-adv-x="641" 
d="M123 827q-20 0 -21 19v28l260 273q66 72 66 112q0 39 -30 69t-92 30t-122 -62q-12 -12 -24 0l-41 43q-12 13 -2 23l26 26q17 16 69 40q52 26 105 26q105 0 163 -51t58 -131t-100 -185l-166 -169h248q18 0 19 -21v-51q0 -18 -19 -19h-397z" />
    <glyph glyph-name="three.num" horiz-adv-x="655" 
d="M304 807q-118 0 -195 84q-12 12 2 22l43 41q14 8 26 -2q80 -53 132 -53t89 26q37 27 37 67t-38 69t-111 29h-64q-20 0 -20 18v51q0 18 20 19h64q65 0 99 26t34 65t-33 65t-89 26t-103 -49q-12 -12 -27 0l-41 37q-16 12 0 24q78 82 180 82q101 0 163 -47t62 -109t-32 -102
q-33 -39 -74 -55v-4q45 -17 85 -59t40 -106t-65 -115q-66 -50 -184 -50z" />
    <glyph glyph-name="four.num" horiz-adv-x="739" 
d="M432 1038v242l-217 -242h217zM449 827q-20 0 -21 19v102h-307q-18 0 -19 19v59l353 401q6 6 16 7h43q20 0 21 -19v-379h83q18 0 19 -16v-53q0 -16 -19 -17h-83v-104q0 -18 -21 -19h-65z" />
    <glyph glyph-name="five.num" horiz-adv-x="661" 
d="M304 807q-116 0 -187 78q-16 18 -2 30l43 41q14 10 22 2q24 -24 67 -41q42 -16 87 -16t82 35t37 83t-35 79t-101 30h-157q-31 0 -31 33v254q0 18 18 19h320q18 0 18 -19v-55q0 -16 -18 -17h-240v-122h99q111 -1 173 -55t62 -144t-69 -153q-72 -62 -188 -62z" />
    <glyph glyph-name="six.num" horiz-adv-x="663" 
d="M332 903q57 0 93 35t36 82t-37 81t-86 34t-86 -23t-53 -47q2 -59 39 -111t94 -51zM326 807q-102 0 -162 79q-62 79 -62 180q-1 188 138 292q103 79 192 106q16 6 25 -12l20 -47q10 -20 -18 -27q-59 -18 -137 -70t-101 -122q57 35 136 35q79 1 141 -53t63 -145
q0 -91 -66 -154q-67 -62 -169 -62z" />
    <glyph glyph-name="seven.num" horiz-adv-x="653" 
d="M162 827q-18 0 -19 15v14l271 485h-293q-18 0 -19 19v55q0 18 19 19h411q18 0 19 -19v-22l-293 -547q-10 -18 -27 -19h-69z" />
    <glyph glyph-name="eight.num" horiz-adv-x="657" 
d="M213 982q0 -38 34 -62t82 -25q48 0 82 25q33 24 33 62t-30 68q-31 30 -86 40q-53 -10 -84 -40t-31 -68zM430 1280q0 38 -30 62t-72 24t-72 -25q-29 -25 -29 -61q1 -74 101 -92q102 18 102 92zM555 968q-1 -64 -63 -113q-62 -48 -164 -48t-164 48q-62 49 -62 113t41 110
t76 61v4q-37 16 -69 55q-32 40 -31 102q0 62 59 108q60 46 150 46t150 -46t60 -108t-31 -100q-32 -39 -71 -57v-4q43 -19 81 -63t38 -108z" />
    <glyph glyph-name="nine.num" horiz-adv-x="663" 
d="M326 1122q49 0 86 23t53 47q-2 58 -39 110t-94 52t-93 -35t-36 -82t37 -81t86 -34zM306 1036q-79 0 -141 54q-63 54 -63 144q0 92 67 154t169 62t162 -79q61 -79 61 -180q0 -235 -244 -362q-47 -24 -75 -33t-35 9l-21 47q-10 20 19 27q59 18 137 70t100 122
q-57 -35 -136 -35z" />
    <glyph glyph-name="a.alt" 
d="M487 711q-119 0 -189 -88t-69 -213q0 -125 68 -213t163 -88t155 48q57 41 81 87v366q-8 10 -24 28t-70 45q-54 28 -115 28zM453 -20q-151 0 -259 126t-108 304t111 304t276 126q66 0 125 -22t86 -44l27 -20l14 37q10 29 39 28h37q15 -1 27 -13t12 -26v-741q0 -15 -12 -27
t-27 -12h-43q-27 0 -35 33l-12 55q-108 -108 -258 -108z" />
    <glyph glyph-name="agrave.alt" 
d="M674 1145l-330 137q-29 10 -12 43l37 74q6 12 25 13t28 -7l307 -172q25 -12 12 -39l-20 -45q-10 -20 -47 -4zM487 711q-119 0 -189 -88t-69 -213q0 -125 68 -213t163 -88t155 48q57 41 81 87v366q-8 10 -24 28t-70 45q-54 28 -115 28zM453 -20q-151 0 -259 126t-108 304
t111 304t276 126q66 0 125 -22t86 -44l27 -20l14 37q10 29 39 28h37q15 -1 27 -13t12 -26v-741q0 -15 -12 -27t-27 -12h-43q-27 0 -35 33l-12 55q-108 -108 -258 -108z" />
    <glyph glyph-name="aacute.alt" 
d="M336 1149l-21 45q-12 27 13 39l307 172q7 8 27 7t26 -13l37 -74q16 -33 -12 -43l-330 -137q-37 -16 -47 4zM487 711q-119 0 -189 -88t-69 -213q0 -125 68 -213t163 -88t155 48q57 41 81 87v366q-8 10 -24 28t-70 45q-54 28 -115 28zM453 -20q-151 0 -259 126t-108 304
t111 304t276 126q66 0 125 -22t86 -44l27 -20l14 37q10 29 39 28h37q15 -1 27 -13t12 -26v-741q0 -15 -12 -27t-27 -12h-43q-27 0 -35 33l-12 55q-108 -108 -258 -108z" />
    <glyph glyph-name="acircumflex.alt" 
d="M496 1413q16 0 26 -8l246 -193q27 -18 12 -38q-4 -4 -11 -16q-23 -41 -43 -39q-9 1 -21 9l-209 144l-209 -139q-31 -21 -47 4l-29 37q-14 20 12 38l246 193q11 8 27 8zM487 711q-119 0 -189 -88t-69 -213q0 -125 68 -213t163 -88t155 48q57 41 81 87v366q-8 10 -24 28
t-70 45q-54 28 -115 28zM453 -20q-151 0 -259 126t-108 304t111 304t276 126q66 0 125 -22t86 -44l27 -20l14 37q10 29 39 28h37q15 -1 27 -13t12 -26v-741q0 -15 -12 -27t-27 -12h-43q-27 0 -35 33l-12 55q-108 -108 -258 -108z" />
    <glyph glyph-name="atilde.alt" 
d="M396 1413q46 0 88 -38t74 -76t56 -37q61 0 93 104q10 33 47 16l32 -16q20 -10 9 -53q-57 -166 -183 -166q-49 0 -93 39t-77 77q-32 37 -56 37t-44 -18t-28 -36t-18 -52q-11 -36 -50 -16l-37 18q-23 12 -8 45q0 2 12 31q42 101 106 128q31 13 77 13zM487 711
q-119 0 -189 -88t-69 -213q0 -125 68 -213t163 -88t155 48q57 41 81 87v366q-8 10 -24 28t-70 45q-54 28 -115 28zM453 -20q-151 0 -259 126t-108 304t111 304t276 126q66 0 125 -22t86 -44l27 -20l14 37q10 29 39 28h37q15 -1 27 -13t12 -26v-741q0 -15 -12 -27t-27 -12
h-43q-27 0 -35 33l-12 55q-108 -108 -258 -108z" />
    <glyph glyph-name="adieresis.alt" 
d="M311 1198q-41 0 -69 28t-27 68q0 40 28 70q29 29 69 29t69 -29t29 -70q0 -40 -29 -68t-70 -28zM805 1294q-1 -40 -29 -68t-68 -28t-69 28t-29 68t28 70q28 29 69 29t69 -29t29 -70zM487 711q-119 0 -189 -88t-69 -213q0 -125 68 -213t163 -88t155 48q57 41 81 87v366
q-8 10 -24 28t-70 45q-54 28 -115 28zM453 -20q-151 0 -259 126t-108 304t111 304t276 126q66 0 125 -22t86 -44l27 -20l14 37q10 29 39 28h37q15 -1 27 -13t12 -26v-741q0 -15 -12 -27t-27 -12h-43q-27 0 -35 33l-12 55q-108 -108 -258 -108z" />
    <glyph glyph-name="amacron.alt" 
d="M231 1194q-16 0 -27 10t-11 27v43q0 39 38 39h525q39 0 39 -39v-43q1 -17 -11 -27t-28 -10h-525zM487 711q-119 0 -189 -88t-69 -213q0 -125 68 -213t163 -88t155 48q57 41 81 87v366q-8 10 -24 28t-70 45q-54 28 -115 28zM453 -20q-151 0 -259 126t-108 304t111 304
t276 126q66 0 125 -22t86 -44l27 -20l14 37q10 29 39 28h37q15 -1 27 -13t12 -26v-741q0 -15 -12 -27t-27 -12h-43q-27 0 -35 33l-12 55q-108 -108 -258 -108z" />
    <glyph glyph-name="abreve.alt" 
d="M503 1087q-105 0 -184 67q-78 67 -92 167q-8 41 29 41h43q27 0 39 -35q16 -59 61 -95t103 -36t101 38t59 83t43 45h47q37 0 28 -41q-16 -100 -94 -167t-183 -67zM487 711q-119 0 -189 -88t-69 -213q0 -125 68 -213t163 -88t155 48q57 41 81 87v366q-8 10 -24 28t-70 45
q-54 28 -115 28zM453 -20q-151 0 -259 126t-108 304t111 304t276 126q66 0 125 -22t86 -44l27 -20l14 37q10 29 39 28h37q15 -1 27 -13t12 -26v-741q0 -15 -12 -27t-27 -12h-43q-27 0 -35 33l-12 55q-108 -108 -258 -108z" />
    <glyph glyph-name="aring.alt" 
d="M492 1106q49 0 85 38t35 87q0 49 -35 85q-36 36 -85 36q-50 0 -88 -36t-38 -85t39 -87q38 -38 87 -38zM715 1231q1 -95 -65 -159t-159 -64t-158 64t-65 159q0 94 65 159q65 64 158 64t159 -64t65 -159zM487 711q-119 0 -189 -88t-69 -213q0 -125 68 -213t163 -88t155 48
q57 41 81 87v366q-8 10 -24 28t-70 45q-54 28 -115 28zM453 -20q-151 0 -259 126t-108 304t111 304t276 126q66 0 125 -22t86 -44l27 -20l14 37q10 29 39 28h37q15 -1 27 -13t12 -26v-741q0 -15 -12 -27t-27 -12h-43q-27 0 -35 33l-12 55q-108 -108 -258 -108z" />
    <glyph glyph-name="aringacute.alt" 
d="M305 1362l-20 45q-12 27 12 39l307 172q8 8 28 7t25 -13l37 -74q16 -33 -12 -43l-330 -137q-37 -16 -47 4zM498 991q49 0 85 38t35 87q0 49 -35 85q-36 36 -85 36t-87 -36t-38 -85t38 -87t87 -38zM721 1116q1 -94 -65 -158t-159 -65q-93 1 -158 65t-65 158t65 159t158 65
t159 -66q66 -64 65 -158zM487 711q-119 0 -189 -88t-69 -213q0 -125 68 -213t163 -88t155 48q57 41 81 87v366q-8 10 -24 28t-70 45q-54 28 -115 28zM453 -20q-151 0 -259 126t-108 304t111 304t276 126q66 0 125 -22t86 -44l27 -20l14 37q10 29 39 28h37q15 -1 27 -13
t12 -26v-741q0 -15 -12 -27t-27 -12h-43q-27 0 -35 33l-12 55q-108 -108 -258 -108z" />
    <glyph glyph-name="aogonek.alt" 
d="M487 711q-119 0 -189 -88t-69 -213q0 -125 68 -213t163 -88t155 48q57 41 81 87v366q-8 10 -24 28t-70 45q-54 28 -115 28zM453 -20q-151 0 -259 126t-108 304t111 304t276 126q66 0 125 -22t86 -44l27 -20l14 37q10 29 39 28h37q15 -1 27 -13t12 -26v-741q0 -13 -10 -25
t-25 -14q-96 -90 -96 -203q1 -49 35 -83q68 -67 194 -1q12 6 24 -2t13 -26v-52q0 -18 -29 -34q-61 -31 -148 -31t-150 53q-62 53 -62 156q0 141 139 246l-14 65q-108 -108 -258 -108z" />
    <glyph glyph-name="parenleft.case" horiz-adv-x="704" 
d="M119 707q0 593 308 757q81 43 175 47q35 4 37 -20l4 -55q6 -31 -20 -35q-189 -37 -275 -211t-86 -483t86 -483t275 -212q27 -4 20 -35l-4 -55q-2 -24 -37 -20q-190 8 -328 179q-72 89 -113 249q-42 160 -42 377z" />
    <glyph glyph-name="parenright.case" horiz-adv-x="704" 
d="M442 706q0 310 -86 484t-274 211q-27 4 -21 35l5 55q2 25 36 20q192 -8 328 -179q72 -89 114 -249q42 -161 42 -377q0 -592 -308 -757q-81 -43 -176 -47q-35 -4 -36 20l-5 55q-6 31 21 35q188 37 274 211q86 173 86 483z" />
    <glyph glyph-name="hyphen.case" horiz-adv-x="845" 
d="M209 635q-39 0 -39 37v39q0 39 39 39h428q39 0 39 -39v-39q0 -16 -11 -26t-28 -11h-428z" />
    <glyph glyph-name="bracketleft.case" horiz-adv-x="669" 
d="M299 -240h281q16 0 27 -11t11 -25v-54q0 -14 -12 -26t-26 -13h-381q-15 1 -27 13t-12 26v1970q0 14 12 26t27 13h381q14 0 26 -12t12 -27v-51q0 -16 -11 -27t-27 -12h-281v-1790z" />
    <glyph glyph-name="bracketright.case" horiz-adv-x="669" 
d="M90 -240h281v1790h-281q-16 0 -28 12t-11 27v51q0 14 11 26t28 13h381q15 0 27 -12t12 -27v-1970q0 -14 -11 -26t-28 -13h-381q-16 1 -28 13t-11 26v54q0 14 11 25q12 11 28 11z" />
    <glyph glyph-name="braceleft.case" horiz-adv-x="817" 
d="M223 100v330q0 60 -48 106t-86 52t-38 37v63q0 27 38 33t86 51t48 107v329q0 134 48 234t125 153q153 105 329 105q41 0 41 -35v-39q0 -33 -27 -37q-159 -23 -267 -123t-107 -258v-272q0 -145 -54 -199t-108 -75v-15q116 -45 146 -150q15 -52 16 -124v-273
q1 -158 109 -257t265 -122q27 -4 27 -34v-41q0 -14 -12 -24t-29 -11q-178 0 -329 104q-77 53 -125 153t-48 232z" />
    <glyph glyph-name="bar.case" horiz-adv-x="405" 
d="M158 -332v2095q0 15 11 27t28 12h14q17 0 27 -11t10 -28v-2095q0 -14 -11 -25t-28 -12h-12q-15 -1 -27 11t-12 26z" />
    <glyph glyph-name="braceright.case" horiz-adv-x="817" 
d="M453 373q0 146 54 200t107 74v15q-116 45 -146 150q-15 52 -15 124v272q0 158 -109 258t-266 123q-27 4 -27 37v39q0 35 41 35q176 0 329 -105q77 -53 125 -153t48 -234v-329q0 -61 48 -107t86 -51q38 -6 38 -33v-63q0 -31 -38 -37t-86 -51t-48 -107v-330
q0 -133 -48 -232q-48 -98 -125 -152q-153 -107 -329 -105q-16 0 -29 10q-12 10 -12 25v41q0 31 27 34q158 23 266 122t109 257v273z" />
    <glyph glyph-name="guilsinglleft.case" horiz-adv-x="516" 
d="M344 1020h29q27 0 35 -20t-5 -44l-151 -284l145 -301q12 -25 3 -43t-33 -19h-39q-19 1 -31 17l-213 317q-16 23 0 49l223 303q18 25 37 25z" />
    <glyph glyph-name="guilsinglright.case" horiz-adv-x="516" 
d="M147 309q-25 1 -33 19t3 43l145 301l-151 284q-12 25 -5 44q8 19 35 20h29q20 0 37 -25l223 -303q16 -27 0 -49l-213 -317q-12 -16 -31 -17h-39z" />
    <glyph glyph-name="guillemotleft.case" horiz-adv-x="849" 
d="M344 1020h29q27 0 35 -20t-5 -44l-151 -284l145 -301q12 -25 4 -43t-34 -19h-39q-19 1 -31 17l-213 317q-16 23 0 49l223 303q14 25 37 25zM678 1020h29q27 0 35 -20t-5 -44l-151 -284l145 -301q12 -25 4 -43t-35 -19h-38q-18 0 -31 17l-213 317q-16 23 0 49l223 303
q14 25 37 25z" />
    <glyph glyph-name="guillemotright.case" horiz-adv-x="849" 
d="M147 309q-27 1 -35 19t5 43l145 301l-151 284q-12 25 -5 44q8 19 35 20h29q23 0 37 -25l223 -303q16 -27 0 -49l-213 -317q-12 -16 -31 -17h-39zM504 1020q23 0 37 -25l223 -303q16 -27 0 -49l-213 -317q-12 -16 -31 -17h-39q-27 1 -35 19t5 43l145 301l-152 284
q-12 25 -4 44t35 20h29z" />
    <glyph glyph-name="endash.case" horiz-adv-x="1181" 
d="M213 641q-39 0 -39 37v22q0 39 39 39h756q39 0 39 -39v-22q0 -16 -12 -26t-27 -11h-756z" />
    <glyph glyph-name="emdash.case" horiz-adv-x="1632" 
d="M213 641q-39 0 -39 37v22q0 39 39 39h1206q39 0 39 -39v-22q0 -16 -11 -26t-28 -11h-1206z" />
    <glyph glyph-name="bullet.case" horiz-adv-x="724" 
d="M360 428q-90 0 -153 64t-63 153q0 90 62 156q64 65 154 65t156 -66t66 -155t-66 -153t-156 -64z" />
    <glyph glyph-name="periodcentered.case" horiz-adv-x="468" 
d="M234 602q-48 0 -82 35t-35 83q0 48 35 82q34 34 82 34t82 -34t34 -82t-34 -83t-82 -35z" />
    </font>
</defs>
</svg>
